<svg xmlns="http://www.w3.org/2000/svg" width="92.892" height="86.778"><g data-name="Group 378"><path data-name="Path 2255" d="M14.843 68.198c.307.004.62.053 1.002.085a10.6 10.6 0 0013.541 12.6l.194-.064c.064-.02.13-.04.193-.063s.129-.039.193-.062.129-.04.193-.063l.192-.062c.065-.02.129-.04.193-.064s.127-.038.189-.06l.199-.064c.064-.02.127-.04.191-.063l.194-.062.193-.063.19-.062.192-.062.199-.064c.063-.02.126-.04.187-.062s.13-.041.195-.063l.195-.063c.064-.02.128-.041.19-.063s.13-.04.194-.062a9.162 9.162 0 002.616-1.324c4.362-3.193 6.011-8.143 4.114-12.9a1.9 1.9 0 01.672-2.622c13.125-10.962 15.14-12.672 27.862-23.354 2.958 1.465 5.848 1.991 8.649 1.147.065-.017.128-.043.193-.062s.13-.044.195-.062.127-.043.19-.062.13-.044.197-.063.128-.044.193-.063.126-.044.19-.063.129-.044.193-.063.13-.044.196-.063.127-.043.19-.062.13-.043.194-.063l.193-.062.194-.064c.065-.02.127-.042.19-.062s.13-.043.195-.062.128-.044.193-.063.128-.042.191-.063.13-.044.195-.062.129-.043.193-.063.126-.043.19-.062a10.56 10.56 0 003.157-1.5c4.147-2.846 5.834-7.157 4.436-11.59-1.68-5.327-5.574-7.733-10.98-7.74 1.004-4.978-.53-9.021-4.888-11.665a9.561 9.561 0 00-8.13-1.133c-.065.019-.13.04-.194.062l-.192.064c-.064.021-.129.04-.193.063s-.127.04-.191.061l-.197.065-.19.061-.195.063c-.065.02-.127.042-.192.064s-.13.042-.194.062l-.192.062c-.064.022-.13.042-.194.063l-.192.062c-.064.02-.128.042-.191.063l-.193.063-.193.062-.194.064c-.064.022-.13.042-.194.062s-.128.042-.192.064-.129.04-.193.063a11.318 11.318 0 00-3.438 1.743c-4.85 3.539-5.515 8.467-3.417 14.084a1.318 1.318 0 01-.134.197C40.144 34.32 37.152 36.854 24.649 47.306a11.633 11.633 0 00-9.233-.816c-.065.02-.13.04-.192.063s-.13.04-.194.064l-.192.062c-.064.021-.13.04-.193.062s-.128.04-.191.062-.13.041-.196.063-.127.04-.19.063-.128.04-.193.062-.131.04-.196.065-.127.039-.189.06-.13.04-.195.064-.128.04-.191.062-.13.041-.194.064-.128.04-.192.062-.13.04-.194.062-.13.04-.193.064l-.19.06c-.067.022-.132.041-.194.065s-.13.04-.194.062a10.4 10.4 0 00-5.914 4.886 9.885 9.885 0 00.027 10.29 10.136 10.136 0 008.977 5.341z" fill="#f3732b" fill-rule="evenodd"/><g data-name="Group 371"><path data-name="Path 2256" d="M66.683 38.78l-1.762 1.48C51.6 51.435 49.745 53.02 36.4 64.166a1.9 1.9 0 00-.673 2.621c1.896 4.758.248 9.707-4.114 12.9a10.153 10.153 0 01-12.028-.35 10.391 10.391 0 01-3.93-10.993c-.384-.033-.695-.078-1.004-.085a10.136 10.136 0 01-8.978-5.342 9.885 9.885 0 01-.026-10.29c3.028-5.442 9.896-7.01 15.5-3.704a1.59 1.59 0 001.454-.002c14.097-11.785 16.71-14 30.776-25.824a1.264 1.264 0 00.134-.198c-2.1-5.615-1.434-10.545 3.418-14.084a9.681 9.681 0 0111.373-.546c4.356 2.644 5.89 6.688 4.887 11.665 5.405.01 9.3 2.415 10.98 7.74 1.402 4.437-.288 8.745-4.436 11.59s-8.53 2.18-13.05-.484z" fill="#fd8e00" fill-rule="evenodd"/></g><path data-name="Path 2257" d="M8.635 61.267a6.445 6.445 0 005.878 3.486c.352.007.658.04.93.067.097.011.198.02.305.03a3.7 3.7 0 012.621 1.474 3.651 3.651 0 01.688 2.915c-.657 3.243.11 5.448 2.565 7.377a6.782 6.782 0 007.855.184c.195-.143.387-.294.569-.446 2.74-2.3 3.667-5.45 2.48-8.43-1.552-3.895.79-5.86 1.559-6.505A7681.557 7681.557 0 0048.86 49.055l15.517-13.028a3.413 3.413 0 013.925-.252c3.785 2.232 6.674 2.4 9.371.55.29-.2.57-.411.824-.625 2.359-1.98 3.202-4.514 2.373-7.141-1.129-3.58-3.365-5.11-7.48-5.117a3.73 3.73 0 01-3.6-4.399c.73-3.63-.236-6.036-3.145-7.793a6.285 6.285 0 00-7.582.455c-3.27 2.39-4.013 5.587-2.316 10.131a3.484 3.484 0 01-.314 3.127L56.41 25a3.425 3.425 0 01-.727.854l-7.713 6.482a9932.967 9932.967 0 01-9.507 7.988c-3.618 3.036-7.541 6.328-13.563 11.355a4.895 4.895 0 01-5.375.251 7.849 7.849 0 00-9.138.488 7.335 7.335 0 00-1.694 2.065 6.39 6.39 0 00-.058 6.784z" fill="#ffbc00" fill-rule="evenodd"/><g data-name="Group 372" fill="#ffe0ae" fill-rule="evenodd"><path data-name="Path 2258" d="M20.019 70.387a3.649 3.649 0 00-.688-2.915 3.762 3.762 0 00-.665-.677 3.608 3.608 0 01.39 2.446c-.578 2.85-.053 4.9 1.75 6.663a6.907 6.907 0 01-.787-5.517z"/><path data-name="Path 2259" d="M73.385 23.449a3.658 3.658 0 01-2.241-.804 3.689 3.689 0 003.202 1.95c2.44.003 4.217.55 5.496 1.736-1.292-1.994-3.334-2.883-6.457-2.882z"/><path data-name="Path 2260" d="M9.598 62.415a6.39 6.39 0 01.06-6.79 7.325 7.325 0 011.694-2.064 7.85 7.85 0 019.138-.489 4.9 4.9 0 005.375-.251c6.018-5.03 9.945-8.32 13.562-11.355 3.036-2.548 5.856-4.914 9.508-7.988l7.712-6.483a3.412 3.412 0 00.727-.854l.023-.036a3.479 3.479 0 00.314-3.126c-1.699-4.549-.954-7.744 2.317-10.132a6.285 6.285 0 017.58-.455 8.761 8.761 0 011.49 1.122 7.363 7.363 0 00-2.451-2.27 6.285 6.285 0 00-7.582.456c-3.27 2.389-4.013 5.586-2.317 10.131a3.484 3.484 0 01-.313 3.127l-.023.036a3.426 3.426 0 01-.727.854l-7.713 6.483c-3.654 3.072-6.472 5.44-9.507 7.988-3.618 3.035-7.541 6.328-13.563 11.354a4.895 4.895 0 01-5.375.252 7.849 7.849 0 00-9.138.488 7.334 7.334 0 00-1.694 2.064 6.39 6.39 0 00-.061 6.788 8.006 8.006 0 001.34 1.74 9.452 9.452 0 01-.376-.59z"/></g><g data-name="Group 377" fill-rule="evenodd"><g data-name="Group 373"><path data-name="Path 2261" d="M56.062 35.538a3.2 3.2 0 114.625.545 3.3 3.3 0 01-4.625-.545z" fill="#ffd78f"/><path data-name="Path 2262" d="M55.419 35.158a3.2 3.2 0 114.626.535 3.3 3.3 0 01-4.626-.535z" fill="#faeabb"/></g><g data-name="Group 374"><path data-name="Path 2263" d="M47.385 42.819a3.2 3.2 0 114.625.544 3.3 3.3 0 01-4.625-.544z" fill="#ffd78f"/><path data-name="Path 2264" d="M46.745 42.436a3.2 3.2 0 114.624.544 3.3 3.3 0 01-4.624-.544z" fill="#faeabb"/></g><g data-name="Group 375"><path data-name="Path 2265" d="M38.71 50.099a3.2 3.2 0 114.624.544 3.3 3.3 0 01-4.625-.544z" fill="#ffd78f"/><path data-name="Path 2266" d="M38.068 49.716a3.2 3.2 0 114.625.544 3.3 3.3 0 01-4.625-.544z" fill="#faeabb"/></g><g data-name="Group 376"><path data-name="Path 2267" d="M30.033 57.379a3.2 3.2 0 114.625.544 3.3 3.3 0 01-4.625-.544z" fill="#ffd78f"/><path data-name="Path 2268" d="M29.391 56.997a3.2 3.2 0 114.625.544 3.3 3.3 0 01-4.625-.544z" fill="#faeabb"/></g></g></g></svg>