<svg data-name="Group 1320" xmlns="http://www.w3.org/2000/svg" width="19.209" height="19.208"><path data-name="Path 7800" d="M12.334 13.672a1.3 1.3 0 001.3 1.3h1.525a1.3 1.3 0 001.3-1.3V12.15a1.3 1.3 0 00-1.3-1.3h-1.525a1.3 1.3 0 00-1.3 1.3zm1.3-1.525h1.525v1.525h-1.525z"/><circle data-name="Ellipse 293" cx="1" cy="1" r="1" transform="translate(13.36 6.24)"/><circle data-name="Ellipse 294" cx="1" cy="1" r="1" transform="translate(8.36 6.24)"/><circle data-name="Ellipse 295" cx="1" cy="1" r="1" transform="translate(3.36 6.24)"/><circle data-name="Ellipse 296" cx="1" cy="1" r="1" transform="translate(3.36 11.24)"/><circle data-name="Ellipse 297" cx="1" cy="1" r="1" transform="translate(8.36 11.24)"/><path data-name="Path 7801" d="M18.458 13.206a.75.75 0 00.75-.75V4.5a3 3 0 00-3-3h-.975V.75a.75.75 0 00-1.5 0v.75h-3.416V.75a.75.75 0 00-1.5 0v.75H5.44V.75a.75.75 0 00-1.5 0v.75H3a3 3 0 00-3 3v11.707a3 3 0 003 3h13.207a3 3 0 003-3 .75.75 0 00-1.5 0 1.5 1.5 0 01-1.5 1.5H3a1.5 1.5 0 01-1.5-1.5V4.5A1.5 1.5 0 013 3h.938v.75a.75.75 0 001.5 0V3h3.378v.75a.75.75 0 001.5 0V3h3.414v.75a.75.75 0 001.5 0V3h.975a1.5 1.5 0 011.5 1.5v7.954a.75.75 0 00.753.752z"/></svg>