<svg xmlns="http://www.w3.org/2000/svg" width="109.917" height="267.779"><g data-name="Group 625"><g data-name="Group 624"><path data-name="Path 2735" d="M103.523 267.741a1.469 1.469 0 00.569-.267 1.489 1.489 0 00.283-2.088C23.71 159.362 19.643 62.527 24.395 14.242a1.49 1.49 0 10-2.965-.293c-4.8 48.72-.712 146.407 80.573 253.241a1.488 1.488 0 001.52.551z" fill="#00b59c"/></g><path data-name="Path 2736" d="M30.52 232.894a3.3 3.3 0 01.2-.628c.854-2.044 2.761-3.227 5.154-3.841.31-.085.636-.153.963-.22a23.832 23.832 0 014.066-.361h.74a67.479 67.479 0 0111.666 1.443c.516.1 1.032.2 1.55.31.229.044.46.094.689.143a91.972 91.972 0 0127.255 10.257c.482.28.965.567 1.441.855l.242.007c.016-1.189.052-2.381.116-3.568.314-6.749 1.245-13.434 2.2-20.145.793-5.612 1.306-11.517 3.442-16.826.127-.317.26-.628.4-.941v-.006c.012-.01.01-.016.015-.024a22.963 22.963 0 012.176-3.723c.13-.18.26-.36.4-.543 2.478-3.326 6.078-6.574 9.673-6.416a5.751 5.751 0 011.64.317 6.635 6.635 0 011.8 1c2.622 2.037 3.567 5.458 3.58 9.263.006.293.006.594-.008.892a48.529 48.529 0 01-3.355 14.718 5.801 5.801 0 01-.193.5c-.175.465-.35.9-.52 1.29a75.13 75.13 0 01-1.644 3.622c-.055.122-.122.247-.181.377-3.767 7.7-9.617 16.553-16.632 20.882-.486.3-.984.58-1.479.838a.984.984 0 01-.951.6h-.192c-4.151-.038-27.364-.033-42.068-2.9a78.568 78.568 0 01-.848-.177c-.7-.142-1.375-.295-2.021-.456-.269-.068-.536-.13-.8-.2-4.305-1.133-7.414-2.607-8.312-4.532a2.8 2.8 0 01-.204-1.807z" fill="#00b59c"/><path data-name="Path 2737" d="M21.277 196.358c1.335-1.648 3.754-2.118 6.553-1.943.145.008.293.022.44.036a36.279 36.279 0 017.6 1.646c.135.051.273.088.407.133.665.218 1.312.44 1.932.668.2.07.4.147.6.219a68.16 68.16 0 014.526 1.863c.612.278 1.217.564 1.828.869.206.1.415.2.617.3a111.972 111.972 0 0121.952 15c.652.549 1.285 1.1 1.918 1.657a.048.048 0 00.036.006 1.343 1.343 0 01.182.047 68.356 68.356 0 01-1.669-7.009v-.013a63.256 63.256 0 01-.364-20.717v-.013c.034-.3.082-.6.136-.9q.308-1.981.75-3.973c.773-3.477 2.2-10.146 5.261-14.283.094-.125.184-.241.279-.366 1.733-2.183 3.974-3.552 6.869-3.166a6.006 6.006 0 012.074.656 5.124 5.124 0 01.942.647c2.933 2.5 3.145 7.986 2.8 12.456q-.041.492-.088.965a73.598 73.598 0 01-.491 3.845c-.06.4-.127.8-.192 1.2-.038.221-.082.451-.12.671a74.732 74.732 0 01-13.567 30.62l-.429.55c.038.2.07.4.113.584a.858.858 0 01-1.672.382c-.027-.09-.048-.18-.076-.271a.931.931 0 01-.487.3 1.067 1.067 0 01-.343.023c-3.161-.229-20.528-3.493-33.8-8.382-.284-.107-.56-.208-.83-.31-2.317-.882-4.492-1.8-6.424-2.771-.308-.149-.6-.3-.893-.46a19.4 19.4 0 01-6.424-4.839v-.007a5.99 5.99 0 01-.862-1.557 4.28 4.28 0 01.916-4.363z" fill="#00b59c"/><path data-name="Path 2738" d="M14.278 166.76c1.868-2.461 4.9-2.866 8.2-2.264.221.038.45.082.672.127a25.919 25.919 0 013.335.991c.134.045.269.1.4.149a65.4 65.4 0 0110.063 5.124c.84.5 1.694 1.031 2.547 1.589.19.114.369.238.554.36a59.7 59.7 0 0111 9.129v.006a.007.007 0 00.008.005 39.03 39.03 0 012.465 2.943 52 52 0 01-.836-6.63v-.007a61.519 61.519 0 01.2-10.272v-.006c.024-.286.056-.567.087-.849a71.876 71.876 0 011.4-8.154c.68-2.929 2.368-10.287 5.738-13.187a1.721 1.721 0 01.168-.134 4.391 4.391 0 015.294-.354 9.389 9.389 0 012.7 2.211 7.784 7.784 0 01.531.707c1.891 2.7 2.443 6.352 2.292 10.037 0 .22-.014.448-.031.671a32.716 32.716 0 01-.284 2.743c-.032.247-.071.5-.112.738a44.7 44.7 0 01-1.828 7.253c-.973 2.818-5.852 18.144-9.862 22.259a3.952 3.952 0 01-1.06.817c.075.024.148.049.216.074a.157.157 0 01-.088.3c-.2-.049-.458-.115-.748-.186a1.243 1.243 0 01-.322 0 .758.758 0 01-.382-.173c-.116.123-.125.2-.275.206-.175.013-.129-.175-.223-.408 0-.019-.066-.019-.135-.023-.117 0-.271.014-.285-.018a189.313 189.313 0 01-27.382-9.528c-.345-.161-.682-.317-1.02-.479a62.974 62.974 0 01-7.042-3.829c-.305-.2-.6-.4-.9-.6-2.757-1.883-4.815-3.851-5.719-5.857a5.526 5.526 0 01-.459-1.471 5.1 5.1 0 011.123-4.01z" fill="#00b59c"/><path data-name="Path 2739" d="M1.525 128.842a4.624 4.624 0 012.57-2.628 3.966 3.966 0 011.292-.247c4.022-.166 9.33 4.552 11.516 6.779.658.664 1.31 1.33 1.963 2 .124.122.243.253.367.375q4.251 4.36 8.429 8.853a512.62 512.62 0 0113.557 15.113c-.236-1-.443-2.029-.6-3.061v-.013a59.178 59.178 0 01-.675-11.14c.047-1.894.171-3.779.34-5.618.025-.28.056-.561.082-.841q.16-1.547.36-3.041c.271-1.993.61-7.221 1.9-11.174.069-.208.14-.409.21-.61.857-2.333 2.083-4.1 3.886-4.265a4.385 4.385 0 011.974.247 4.2 4.2 0 01.621.29c3.9 2.192 4.775 10.3 4.7 13.446-.01.29-.017.586-.032.877 0 .233-.018.463-.032.7q-.085 1.786-.28 3.6c-.025.218-.049.443-.081.662a96.774 96.774 0 01-1.674 9.67l-.1.454c-1.256 5.622-2.877 11.2-4.34 16.491q-.185.628-.351 1.251l.773.419c.413.221.092.945-.349.751-.934-.4-1.878-.817-2.81-1.241a137.092 137.092 0 01-29.623-17.659c-.441-.344-.871-.7-1.295-1.053a5.756 5.756 0 01-.31-.251 62.986 62.986 0 01-8.71-8.549h-.006c-.24-.3-.466-.6-.693-.9a18.741 18.741 0 01-2.426-4.24 7.688 7.688 0 01-.307-.9 6.409 6.409 0 01.154-4.547z" fill="#00b59c"/><path data-name="Path 2740" d="M4.632 111.922c.119.192.253.387.393.581a35.878 35.878 0 002.435 3.08c.195.223.391.452.6.672a89.608 89.608 0 0010.692 9.686c.32.263.652.516.97.772 5.87 4.541 11.665 8.36 14.658 10.375.589.392 1.067.715 1.418.963.244.17.545-.193.334-.4q-1.094-1.056-2.2-2.086a319.965 319.965 0 00-10.938-9.767c-.214-.19-.436-.38-.655-.562q-1.6-1.361-3.207-2.712c-2.606-2.178-5.357-4.242-7.78-6.639l.051-.224.117-.506.621-2.737.284-1.243 1.182-5.2c.505.535.993 1.081 1.456 1.639.185.212.358.425.531.646.286.353.567.713.836 1.083 2.252 2.964 4.208 6.2 6.212 9.333.114.173.224.353.339.525.012.025.03.042.042.066 1.86 2.869 3.635 5.874 5.566 8.755a57.795 57.795 0 001.578 2.263 45.125 45.125 0 003.466 4.269.006.006 0 01.008 0v.014c.239.267.491.531.741.789a.386.386 0 00.617-.449c-.294-.748-1.022-2.287-2.067-4.315a104.403 104.403 0 001.016-6.107l-.006-.026c.5-3.545.925-7.1 1.665-10.606.514-2.426.952-5.963 1.641-9.3.031-.137.055-.273.086-.4v-.007c.24-1.137.516-2.234.832-3.251.064-.2.123-.391.188-.584a12.917 12.917 0 011.429-3.066q.289-3.456 4.7-1.65c.225.086.454.191.7.3a19.725 19.725 0 01.185 3.149v.007a18.828 18.828 0 01-.412 3.594c-.062.3-.129.6-.21.911-.095.364-.2.73-.312 1.092a53.218 53.218 0 01-2.524 6.6c-.153.35-.305.7-.465 1.052-.129.3-.265.608-.4.914-2.086 4.716-4.308 9.374-6.349 14.107-.307.693-.6 1.391-.893 2.087a.14.14 0 00-.015.086c-.019.244.386.4.514.15s.366-.679.682-1.273c.2-.367.429-.789.688-1.273l.005-.008.023-.046c1.443-2.707 3.7-7.058 5.823-11.823l.061-.124.014-.03c.3-.686.608-1.385.906-2.091h.006l.408-.97a76.743 76.743 0 002.946-8.3l.008-.023v-.015c.055-.21.119-.41.173-.621.084-.321.167-.648.246-.96v-.007c.867-3.609 1.084-6.734.127-8.734a3.782 3.782 0 00-1.326-1.58 4.731 4.731 0 00-2.515-.727c-2.962-.11-4.562 3.707-5.528 7.359-.008.023-.009.051-.018.073v.007c-.367 1.392-.642 2.763-.861 3.875-.038.193-.077.38-.106.552-.12.554-.214 1.014-.306 1.358-1.183 4.441-2.528 9.194-3.392 13.987a53.129 53.129 0 00-.893 8.56v.007c-.009.262-.008.536-.01.8v.231c-.176-.323-.356-.658-.543-1l-.034-.06c-1.775-3.217-3.988-7-6.415-10.7a15.864 15.864 0 00-.327-.5 86.3 86.3 0 00-7.59-10.065c-.14-.16-.285-.319-.429-.471a31.963 31.963 0 00-3.475-3.288 14.557 14.557 0 00-.515-.4c-3.053-2.275-5.861-2.941-8.018-.873q-.168.162-.317.319a6.8 6.8 0 00-.891 1.2c-1.638 2.809-.7 6.259 1.723 9.911z" fill="#00b59c"/><path data-name="Path 2741" d="M.358 78.578A6.416 6.416 0 01.97 77.24a.982.982 0 01.082-.149c1.093-1.749 2.748-1.874 4.726-.888.146.069.293.145.444.234a19.78 19.78 0 013.822 2.975c.123.122.255.249.387.377a59.417 59.417 0 014.5 5.06c.066.081.131.155.191.237a146.979 146.979 0 0110.357 15.043c.009.011.012.024.022.036q1.025-2.925 1.981-5.863a338.767 338.767 0 003.262-10.567l.125-.412q.841-2.884 1.645-5.78l.158-.571c.368-1.324.724-2.644 1.086-3.967.534-1.978 1.385-6.885 4.667-5.162a2.834 2.834 0 01.641.469 5.214 5.214 0 011.284 2.3v.007c1.125 3.667.421 9.636-.225 12.358-.049.2-.1.393-.145.561-.014.058-.03.109-.051.169-1.946 6.677-6.612 12.867-11.077 18.284-.45.548-.9 1.082-1.336 1.614a41.135 41.135 0 011.959 3.784.854.854 0 01.011.587c.088.144-.024.375-.2.334a.655.655 0 01-1.1.011c-.179-.247-.339-.5-.512-.745-.276-.129-.552-.258-.821-.388-7.011-3.3-13.917-7.01-19.357-12.636a38.882 38.882 0 01-4.706-5.855 17.12 17.12 0 01-.536-.877v-.006C.495 84.813-.605 81.497.358 78.578z" fill="#00b59c"/><path data-name="Path 2742" d="M5.362 46.889c.246-.3.514-.6.8-.889a.91.91 0 01.3-.2 1.174 1.174 0 01.731-.037c2.7.751 4.482 3.14 5.791 5.813.068.149.136.3.211.445.772 1.673 1.371 3.426 1.913 4.932.1.258.186.512.281.751v.019c2.519 6.773 4.447 13.688 6.805 20.477v.007c.939 2.7 1.943 5.391 3.087 8.034a.928.928 0 01-1.633.88 16.264 16.264 0 01-.414-.8v-.033a27.889 27.889 0 01-.693-1.356c-3.557-3.762-9.42-9.77-13.815-16.245-.142-.2-.277-.4-.412-.6a37.737 37.737 0 01-4.521-8.918v-.007c-.073-.23-.136-.448-.2-.673-1.215-4.219-.973-8.254 1.769-11.6z" fill="#00b59c"/><path data-name="Path 2743" d="M23.27 76.568a39.365 39.365 0 001.532-1.959 56.661 56.661 0 006.942-13.189 80.864 80.864 0 00.948-2.621 37.984 37.984 0 001.532-5.343c.032-.158.056-.321.076-.477.321-2.073.205-4.136-.98-5.611a4.557 4.557 0 00-.41-.447 5.717 5.717 0 00-.5-.433c-3-2.3-5.274 1.041-6.862 5.9-.1.292-.193.592-.282.893a61.242 61.242 0 00-1.633 7.058l-.005.008v.007a58.907 58.907 0 00-1.046 9.78.247.247 0 00.492.025c.009-.05.01-.105.019-.155l.164-1.352c.034-.241.063-.473.091-.712.162-1.3.332-2.59.524-3.88 0-.007.005-.008 0-.015v-.006a57.567 57.567 0 011.456-7.209c.2-.7.357-1.582.564-2.444.075-.305.154-.617.251-.914a6.424 6.424 0 01.815-1.857q.672-3.081 3.927-.219c.3.267.617.571.954.912.251.258.514.541.788.841a2.122 2.122 0 01-.049.176c-.034.151-.076.3-.123.453a51.031 51.031 0 01-.558 1.963 43.232 43.232 0 01-2.126 5.472c-.082.177-.166.353-.243.521-1.575 3.325-3.418 6.5-5.036 9.787-.249.5-.485.995-.714 1.492-.469 1-.909 2.016-1.309 3.052-.165.436.49.876.801.503z" fill="#00b59c"/><path data-name="Path 2744" d="M7.009 22.089v-.013a3.739 3.739 0 01.968-1.728 2.736 2.736 0 01.533-.423c1.186-.743 2.351-.407 3.483.683.133.134.276.28.416.44a15.433 15.433 0 011.989 3.073v.007c.093.17.182.349.278.525v.007a52.981 52.981 0 012.524 6.375l.194.579v.006c1.047 3.233 1.965 6.715 2.7 9.883v.013a86.439 86.439 0 011.924 10.525.49.49 0 01-.234.471.266.266 0 01-.449.253c-.088-.082-.168-.167-.256-.249a.591.591 0 01-.222-.223q-.315-.3-.61-.6A47.409 47.409 0 019.105 33.748l-.049-.126c-.042-.127-.095-.266-.151-.424-.85-2.363-2.835-7.785-1.896-11.109z" fill="#00b59c"/><path data-name="Path 2745" d="M20.269 31.454a3.293 3.293 0 01-.219-.477c-1.715-5.409-3.842-15.2-2.929-22.329.048-.36.1-.707.164-1.051C18.056 3.27 20.11.151 24.308.006c.183-.007.367-.008.541 0a5.768 5.768 0 011.134.138c3.042.667 3.947 3.645 3.707 7.536-.017.257-.04.515-.068.782a36.016 36.016 0 01-.983 5.348c-.034.151-.069.3-.111.443a100.319 100.319 0 01-5.148 14.238l-.005.008c-.654 1.485-1.19 2.614-1.489 3.251a.785.785 0 01-.7.454c.075.51.157 1.019.226 1.53.027.179-.236.314-.321.121a25.24 25.24 0 01-.724-1.909c-.041-.032.206-.116.172-.149a1.712 1.712 0 01-.269-.336z" fill="#00b59c"/><path data-name="Path 2746" d="M24.098 74.411l-1.223-5.354s1.956-23.395 7.371-19.312 1.9 8.327 1.9 8.327z" fill="#00b59c"/><path data-name="Path 2747" d="M33.064 124.625c.229-.365 3.581-20.845 3.581-20.845l3.045-9.041 3.211-1.464 3.248 2.6-.274 7.821-4.29 11.412-5.91 11.989-2.744 3.5-1.738-.849z" fill="#00b59c"/><path data-name="Path 2748" d="M36.131 137.647l-16.749-13.13-9.755-8.931 3.673-10.853 11.614 13.514 9.43 13.482z" fill="#00b59c"/></g></svg>