<svg xmlns="http://www.w3.org/2000/svg" width="177.367" height="180.67"><g data-name="Group 951" fill="#f0f0f0"><path data-name="Path 7415" d="M103.732 82.924a13.516 13.516 0 00-.6-3.873 8.762 8.762 0 00-1.855-3.409 4.114 4.114 0 00-3.2-1.392 5.369 5.369 0 00-3.966 1.67 12.022 12.022 0 00-2.62 4.221 22.06 22.06 0 00-1.3 5.334q-.14 1.392-.14 2.644a20.656 20.656 0 00.14 2.458 18.1 18.1 0 01-4.315-.51 7.962 7.962 0 01-3.433-1.693 4.128 4.128 0 01-1.35-3.27 16.006 16.006 0 011.786-8 13.839 13.839 0 014.523-4.894 18.047 18.047 0 015.775-2.458c2.026-.464 8.213-.078 10.516 1.066a13.589 13.589 0 015.566 5.1 15.779 15.779 0 012.111 8.49 17.855 17.855 0 01-1.74 7.838 33.292 33.292 0 01-4.268 6.7q-2.528 3.085-5.079 5.73c-1.732 1.762-3.65 7.793-3.65 9.092a6.6 6.6 0 01-.952 3.873 4.664 4.664 0 01-2.388 1.79 8.16 8.16 0 01-2.6.417h-.278a5.658 5.658 0 01-3.177-.858 2.421 2.421 0 01-1-2.018 9.315 9.315 0 011.021-4.059 29.321 29.321 0 012.644-4.36q1.624-2.25 3.572-4.662 2.458-3.015 4.8-6.355a38.353 38.353 0 003.9-6.98 19.243 19.243 0 001.557-7.632zm-15.307 52.788a6.163 6.163 0 01-4.132-2.55 6.94 6.94 0 01-1.16-3.9q0-.51.046-1.022a6.962 6.962 0 012.462-4.449 5.835 5.835 0 013.757-1.345 7.988 7.988 0 01.881.046 5.92 5.92 0 014.082 2.551 6.687 6.687 0 011.206 3.943q0 .464-.046.974a6.928 6.928 0 01-2.458 4.407 6.02 6.02 0 01-3.9 1.392 5.978 5.978 0 01-.738-.047z"/><g data-name="Group 950"><path data-name="Path 4270" d="M100.469 41.158a56.509 56.509 0 0119.246.299c2.354.412 4.719.526 7.07.998 5.546 1.114 10.86 3.656 16.093 6.582a43.494 43.494 0 0111.775 9.572 29.535 29.535 0 015.003 7.894c.886 2.097 1.83 4.164 2.59 6.33a42.342 42.342 0 011.912 17.293 72.264 72.264 0 01-8.121 28.522 81.635 81.635 0 01-10.536 14.906 66.5 66.5 0 00-5.674 7.866c-3.266 5.3-3.89 11.64-2.59 18.59.233 1.245.437 2.497.635 3.748a2.394 2.394 0 01-.836 2.285c-.613.591-1.189.326-1.81-.18a29.4 29.4 0 00-16.014-6.354c-4.52-.488-8.87.284-13.221 1.253-7.283 1.618-14.206 4.671-21.31 7.013-4.237 1.395-8.437 3.003-12.746 4.055-7.954 1.948-15.91.667-23.767-3.467-5.785-3.049-10.526-8.037-14.183-14.746a46.2 46.2 0 01-5.554-26.929 159.27 159.27 0 013.361-21.799 74.022 74.022 0 017.54-18.795A85.136 85.136 0 0156.267 64.89a111.8 111.8 0 0117.565-13.435c8.737-5.384 17.93-9.055 26.638-10.297zm33.878 116.382c-.019-.805-.014-1.12-.036-1.43a29.646 29.646 0 012.297-14.308 42.678 42.678 0 016.95-10.69 76.826 76.826 0 0010.494-14.95 69.114 69.114 0 007.819-27.642 38.9 38.9 0 00-2.537-16.961 36.185 36.185 0 00-11.113-15.58 57.465 57.465 0 00-11.661-7.107 42.385 42.385 0 00-17.552-4.4 5.206 5.206 0 01-.895-.198 50.215 50.215 0 00-11.692-.962 62.262 62.262 0 00-12.807 2.218 56.865 56.865 0 00-13.245 5.073 105.953 105.953 0 00-23.086 16.85 84.414 84.414 0 00-14.038 16.978 73.348 73.348 0 00-10.442 27.67 55.275 55.275 0 00.164 20.258c2.22 10.418 6.922 18.128 14.427 22.74a31.288 31.288 0 0022.97 4.215c3.521-.668 6.967-1.793 10.433-2.773a101.88 101.88 0 0015.135-6.178 49.9 49.9 0 0117.555-5.057q11.057-.78 19.266 10.117c.432.582.87 1.158 1.594 2.117zM30.5 133.357a33.038 33.038 0 001.74 10.57c3.062 9.747 8.32 16.807 15.555 20.998a31.5 31.5 0 0025.913 3.14c5.939-1.812 11.8-3.97 17.66-6.107a105.914 105.914 0 0118.593-5.366 33.621 33.621 0 0121.294 3.126 12.471 12.471 0 001.379.473c-5.268-8.023-11.38-11.78-18.69-11.269a46.154 46.154 0 00-17.075 5.065 94.159 94.159 0 01-19.143 7.458c-3.779.912-7.47 2.241-11.416 2.333a35.169 35.169 0 01-18.142-4.205c-7.329-4.004-12.78-10.64-15.987-20.347-.636-1.927-1.126-3.917-1.681-5.875z"/><g data-name="Group 949"><path data-name="Path 4271" d="M48.71 26.892l9.011 19.303a5.11 5.11 0 01.679 1.72c.026.622-.128 1.544-.54 1.807-.38.24-1.336-.048-1.814-.403-3.986-2.974-7.012-6.908-10.314-10.556-5.598-6.183-11.105-12.445-16.6-18.718a29.005 29.005 0 01-2.931-4.102 4.07 4.07 0 01.172-4.533c1.892-2.988 4.637-5.106 7.45-7.104a2.837 2.837 0 014.052.674 13.039 13.039 0 011.836 2.91c2.997 6.331 5.946 12.694 8.91 19.044zm1.732 12.747l.623-.296c-5.077-10.777-9.884-21.686-15.664-32.645-1.942 1.831-3.629 3.248-5.102 4.86-1.88 2.051-1.904 2.557-.125 4.81 2.088 2.647 4.322 5.181 6.546 7.716 4.555 5.201 9.146 10.372 13.722 15.555z"/><path data-name="Path 4273" d="M8.692 44.326a2.333 2.333 0 012.659.233 26.15 26.15 0 012.704 2.33c7.459 7.597 14.891 15.223 22.348 22.823.495.507 1.114 1.05.582 1.67a1.993 1.993 0 01-1.72.456 27.526 27.526 0 01-4.348-1.744Q18.157 63.633 5.439 57.09c-2.396-1.228-3.002-2.429-1.898-4.634 1.26-2.525 2.834-4.894 4.307-7.308a4.174 4.174 0 01.844-.822zm1.343 2.146c-2.535 3.412-4.075 6.306-4.32 8.046L29.282 66.83l.263-.384z"/><path data-name="Path 4274" d="M92.87 31.015a6.26 6.26 0 01-1.166-1.618c-2.26-5.676-4.392-11.401-6.665-17.067-1.887-4.704-1.264-6.16 3.616-7.513a32.731 32.731 0 014.943-.99c1.697-.198 2.436.426 2.827 2.1a12.523 12.523 0 01.238 2.108c.398 6.985.996 13.976-.54 20.91a13.307 13.307 0 01-.41 1.807c-.51 1.349-1.23 1.523-2.843.263zm.667-4.596c1.554-6.726.524-13.267.33-19.942a14.808 14.808 0 00-7.291 2.243c2.341 5.953 4.653 11.826 6.962 17.7z"/></g><path data-name="Path 4275" d="M18.773 133.084a68.256 68.256 0 01-.627-13.976 42.561 42.561 0 013.414-13.522 3.712 3.712 0 01.803-1.367 1.767 1.767 0 011.357-.48c.644.193.447.814.261 1.351-.607 1.768-1.18 3.546-1.765 5.322a40.381 40.381 0 00-1.518 15.447c.253 3.862.78 7.705 1.167 11.557a11.9 11.9 0 01.034 1.996 1.127 1.127 0 01-1.127 1.175c-.766.03-1.015-.51-1.106-1.157q-.448-3.174-.893-6.346z"/><path data-name="Path 4284" d="M167.676 110.926c-.174.965-.28 1.894-.513 2.789a31.685 31.685 0 01-5.49 11.045c-2.804 3.73-5.766 7.344-8.623 11.036-3.702 4.785-6.85 9.871-8.378 15.812a1.753 1.753 0 01-.404.898c-.325.267-.878.616-1.154.5a2.015 2.015 0 01-.918-1.118c-.118-.325.098-.774.166-1.166a28.914 28.914 0 015.246-12.011 214.892 214.892 0 017.992-10.252 57.631 57.631 0 008.66-12.923 32.753 32.753 0 001.152-3.593 4.023 4.023 0 01.5-1.287 1.327 1.327 0 011.01-.366c.248.018.47.381.754.636z"/></g></g></svg>