<svg xmlns="http://www.w3.org/2000/svg" width="171.601" height="231.399"><g data-name="Group 1094"><path data-name="Path 2817" d="M157.977 50.289c-4.931 2.105-8.941 6.439-12.8 10.028a315.74 315.74 0 00-4.889 4.617c-.5.484-.979.946-1.472 1.445a305.188 305.188 0 00-6.005 5.984c-.264.254-.523.525-.8.817a276.28 276.28 0 00-3.352 3.459c-9.726 10.183-19.006 20.782-28.252 31.373-.539.616-1.094 1.237-1.631 1.853a36.006 36.006 0 01-1.332 1.52c-1.3 1.514-2.6 3.009-3.922 4.493-.308.37-.62.723-.949 1.08-7.936 9.058-15.939 18.042-24.256 26.74-5.331 5.586-10.8 11.042-16.455 16.273-.69.651-1.4 1.271-2.1 1.9a449.725 449.725 0 0027.731-42.711 70.24 70.24 0 001.1-1.931c.194-.327.387-.654.564-.977a433 433 0 0026.273-55.168c1.67-4.242 3.3-8.527 4.767-12.866l.825-2.527a73.618 73.618 0 001.013-3.28c.212-.65.406-1.3.579-1.957 3.636-12.758 5.348-25.87 2.251-39.212a1.644 1.644 0 00-1.923-1.226c-5.935.694-10.083 5.449-13.554 10.375a.017.017 0 00-.013.021c-.218.3-.419.59-.634.9-.958 1.367-1.86 2.739-2.732 4.015a158.323 158.323 0 00-12.558 22.087 272.529 272.529 0 00-11.093 27.658c-.168.446-.319.888-.448 1.343a139.422 139.422 0 00-1.5 4.452 1.709 1.709 0 00-.132.367c-1.8 5.423-3.5 10.88-5.2 16.337q-1.693 5.463-3.579 10.773c-.141.4-.282.808-.441 1.217-7.159 19.931-16.334 38.462-27 57.164 4.26-12.985 10.83-22.912 13.418-35.917a153.11 153.11 0 002.181-14.6c.084-.658.148-1.329.2-2 .192-2.262.346-4.533.427-6.808.006-.533.025-1.088.031-1.623.083-3.232.044-6.456-.135-9.666a106.038 106.038 0 00-2.453-17.73c-.628-2.755-2.45-14.907-6.343-14.293-6.33 1-10.373 7.911-12.944 13.134a59.221 59.221 0 00-2.334 5.49c-.135.35-.267.716-.386 1.062-.83 2.262-1.551 4.535-2.269 6.825-.176.482-.32.959-.48 1.438-.3.972-.619 1.931-.94 2.89a315.76 315.76 0 00-8.591 31.579c-.129.544-.24 1.083-.368 1.627a333.373 333.373 0 00-1.253 6.121c-.13.614-.247 1.209-.36 1.82-.33 1.635-.639 3.285-.932 4.931a565.516 565.516 0 00-8.038 64.22 366.09 366.09 0 00-.461 8.822 35.2 35.2 0 00-.064 1.47 375.525 375.525 0 00-.217 6.477l-1.43 1.561a1.1 1.1 0 00.64 1.847.973.973 0 00.737-.2c-.087 4.814-.1 9.631-.005 14.4a1.772 1.772 0 003.536.175c.875-6.551 1.53-13.126 2.095-19.715q8.716-8.138 16.8-16.954a1.93 1.93 0 001.8.045 440.521 440.521 0 0076.489-47.055c12.144-9.209 25.076-19.107 36.631-30.175.32-.32.643-.621.945-.938.807-.765 1.607-1.564 2.406-2.363a97.9 97.9 0 002.231-2.27 134.621 134.621 0 0017.357-21.818 82.458 82.458 0 004.451-8.037c.342-.7.677-1.429 1-2.156 2.772-6.315 4.644-13.176 4.079-19.657-.662-7.59-6.279-11.477-13.532-8.395z" fill="#00b59c"/><path data-name="Path 2818" d="M18.63 163.148c-5.793 13.68-11.8 27.177-16.61 40.9.113-2.937.277-5.886.461-8.822 3.77-9.271 7.9-18.355 11.736-27.162a292.6 292.6 0 0014.273-38.462c-5.677-.624-11.369-2.2-17.039-3.522.113-.611.23-1.206.36-1.82 5.786.955 11.725 2.125 16.852 4.434.021.014.028.047.065.056.355-1.286.7-2.589 1.039-3.888-3.667-1.567-7-3.777-10.826-5.042-1.88-.631-3.951-1.006-5.876-1.681.129-.544.24-1.083.368-1.627 5.817 1.5 11.842 3.538 16.637 7.074.937-3.866 1.782-7.747 2.431-11.709 1.475-8.887 2.406-17.83 3.5-26.756-4.327-.941-8.728-1.9-13.036-3.078.161-.479.3-.956.48-1.438 4.248 1.065 8.476 2.365 12.684 3.492.223-1.719.43-3.433.652-5.153-3.924-1.208-7.425-3.309-11.067-5.165.119-.347.251-.713.386-1.062 3.682 1.315 7.155 3.209 10.938 4.341A184.793 184.793 0 0140.91 56.63c.113-.451.771-.206.691.238-2.989 15.918-3.926 32.126-6.091 48.162a53.587 53.587 0 016.883-4.509q3.906-2.437 7.915-4.738c-.006.534-.025 1.089-.031 1.623a433.627 433.627 0 00-7.272 4.276c-2.521 1.518-4.934 3.367-7.647 4.5-.216 1.593-.448 3.19-.7 4.773 4.818-2.614 10.084-4.562 15.193-6.742-.048.668-.112 1.34-.2 2-4.869 2.3-10.015 4.475-15.1 5.389-.26 1.71-.542 3.405-.861 5.092-2.982 16.108-8.679 31.42-15.06 46.454z" fill="#99e1d7"/><path data-name="Path 2819" d="M168.33 51.616a126.028 126.028 0 01-13.88 29.341 98.741 98.741 0 0110.874-2.2l2.093-.411a50.732 50.732 0 01-1 2.156 63.859 63.859 0 01-12.423 1.138 180.073 180.073 0 01-25.708 30.915c5.4-.628 10.867-1.592 16.323-2.2-.736.768-1.488 1.538-2.231 2.27-4.822.43-9.719.521-14.411.656a.256.256 0 01-.251-.175 223.31 223.31 0 01-3.665 3.494 80.751 80.751 0 0115.921-1.611c-.3.316-.626.618-.945.938a82.057 82.057 0 01-15.605 1.275c-7.086 6.56-14.522 12.737-22.115 18.611a.72.72 0 01-.451.366c-5.29 4.085-10.627 8.038-15.936 11.878-20.532 14.78-41.7 28.743-61.275 44.82-8.337 6.838-16.239 14.2-22.7 22.524a1.1 1.1 0 01-.64-1.847c.472-.513.958-1.047 1.43-1.56.054-2.16.125-4.325.217-6.477 15.46-21.339 31.358-42.372 46.22-64.152q7.013-10.292 13.571-20.8a.34.34 0 01.192-.415.163.163 0 00.081-.036 489.504 489.504 0 006.576-10.94 49.222 49.222 0 00-5.527-6.606 9.156 9.156 0 01-1.625-2.446 3.286 3.286 0 00-.389-.553c.159-.409.3-.812.441-1.217a43.491 43.491 0 002.884 3.641 18.747 18.747 0 014.693 6.365c4.542-7.79 8.887-15.661 12.937-23.662-3.317-3.437-6.106-7.455-9.27-11-.779-.875-1.628-1.663-2.46-2.455a1.71 1.71 0 01.132-.367c1.945 1.9 4.119 3.615 5.895 5.62a59.068 59.068 0 015.962 7.682c.6-1.2 1.17-2.408 1.758-3.6-3.477-2.8-5.816-6.7-8.589-10.171-1.086-1.376-2.313-2.667-3.526-3.978.13-.454.28-.9.448-1.343a47.342 47.342 0 014.687 4.893 100.645 100.645 0 007.687 9.146 347.437 347.437 0 0022.333-57.858 76.112 76.112 0 01-8.327-9.946c.215-.313.416-.607.634-.9a85.922 85.922 0 018.224 8.921c1.7-6.256 3.269-12.57 4.586-18.971.072-.317.59-.219.556.108a226.6 226.6 0 01-10.606 44.414 40.977 40.977 0 015.8-2.6c1.514-.619 3.084-1.3 4.688-1.838a34.76 34.76 0 01-.579 1.957c-1.01.331-2.006.64-2.995.984a69.83 69.83 0 01-7.32 2.617 190.922 190.922 0 01-1.591 4.438c3.589-1.507 7.214-3.251 10.893-4.758l-.825 2.526c-3.46 1.051-6.957 1.933-10.323 2.927-8.765 23.662-20.786 46.251-34.05 67.714a62.008 62.008 0 0112.777-1.625c-.354.647-.725 1.3-1.1 1.931-2.2.256-4.383.492-6.56.762-2.105.271-4.215.685-6.322.868q-3.553 5.715-7.218 11.332c-14.522 22.274-30.362 43.65-46.061 65.1-2.794 3.816-5.609 7.618-8.348 11.439a137.178 137.178 0 019.709-9.788c17.336-15.9 37.164-28.962 56.415-42.392 8.871-6.193 17.671-12.548 26.242-19.135a.514.514 0 01-.188-.367c-.429-6.742-1.955-13.312-2.589-20.026.329-.357.641-.71.949-1.08 1.645 6.7 2.922 14.074 2.613 20.855 1.229-.947 2.478-1.881 3.685-2.842a198.008 198.008 0 00-2.375-22.506c.46-.492.9-1 1.332-1.52a53.755 53.755 0 012.977 22.5 281.326 281.326 0 0036.623-34.453c-1.971-8.264-4.121-16.526-6.364-24.73.273-.292.532-.562.8-.817a204.185 204.185 0 016.553 24.386 214.224 214.224 0 004.356-5.263c-.954-8.473-3.656-16.665-4.9-25.108.493-.5.977-.962 1.472-1.445.821 4.507 1.459 9.072 2.384 13.573.778 3.912 1.954 7.7 2.109 11.609a168.85 168.85 0 0023.054-38.656.26.26 0 01.477.156z" fill="#99e1d7"/></g></svg>