<svg xmlns="http://www.w3.org/2000/svg" width="353.897" height="280.813"><g data-name="Group 1288"><path data-name="Path 7718" d="M.323 147.934a1.125 1.125 0 01.628-.249 1.748 1.748 0 011.427-.56 348.533 348.533 0 0159.886 7.89l1.544.34c1.852.415 3.708.847 5.554 1.31.384.077.757.172 1.129.267a336.159 336.159 0 0173.548 27.502c.429.223.873.442 1.3.679q5.508 2.853 10.925 5.954c.154.077.311.169.468.261.451.263.919.524 1.375.8 25.1 14.583 47.215 33.3 71.034 49.789 24.087 16.665 47.9 27.1 75.879 31.2q4.817-.958 9.647-2.167a1.747 1.747 0 012.179 1.907 1.811 1.811 0 01-.8 1.529c.11.009.222.033.332.042.376.033.445.619.041.669-1.531.2-3.075.32-4.606.439-2.443.563-4.9 1.067-7.344 1.523-53.391 10.229-105.764-1.128-154.091-26.175-24.839-12.866-48.152-28.421-71.076-44.424l-1.321-.921c-.107-.072-.2-.146-.3-.217a253.444 253.444 0 01-3.417-2.4c-.571-.394-1.126-.791-1.7-1.185q-17.329-12.161-34.56-24.524c-11.9-8.544-24.974-16.487-35.842-26.407-.015 0-.032-.009-.047-.006a1.619 1.619 0 01-1.326-.707 1.981 1.981 0 01-.3-.8c-.074-.063-.151-.14-.225-.2a.725.725 0 01.059-1.159z" fill="#00b59c"/><path data-name="Path 7720" d="M195.611 1.514a1.631 1.631 0 01.516-1.042c.619-.6 1.824-.732 3.9.193 20.142 9.045 38.043 25.015 52.621 43.7.34.394.654.809.966 1.224q1.707 2.2 3.335 4.463c.2.251.377.509.553.767a215.746 215.746 0 0126.274 48.631 269.623 269.623 0 019.838 32.831l.466 1.878c.377 1.664.769 3.326 1.146 4.99l.319 1.369c7.674 33.785 13.153 68.377 32.061 97.293a123.147 123.147 0 006.253 8.7q2.5 3.173 5.289 6.243a.4.4 0 01.053.5c.21.127.42.255.645.379 1.887 1.057.01 3.847-1.862 2.789-42.428-23.635-71.819-70.83-89.291-114.888a294.337 294.337 0 01-11-35.215c-.109-.394-.214-.773-.31-1.17-.879-3.412-1.727-6.83-2.576-10.247l-.237-.954c-8.023-32.377-15.8-64.909-38.339-90.256a2.88 2.88 0 01-.62-2.178z" fill="#00b59c"/><path data-name="Path 7719" d="M62.598 43.014a1.941 1.941 0 012.446-.933 414.167 414.167 0 0158.01 28.311c.519.3 1.043.608 1.567.919 1.468.879 2.935 1.756 4.391 2.653.451.263.892.545 1.333.827a418.4 418.4 0 0180.062 64.154c.311.323.619.633.928.956.346.346.694.708 1.03 1.072q3.082 3.2 6.122 6.416c.332.35.645.687.977 1.037 18.33 19.6 35.582 40.191 53.743 59.943 20.819 22.594 44.732 50.838 74.689 61.115a8.4 8.4 0 011.934.6 1.927 1.927 0 01.956 1.012 2.44 2.44 0 011.031.856c.024.042.015.074.039.116a2.306 2.306 0 012.034 2.18 2.669 2.669 0 01-1.151 2.493 2.505 2.505 0 01-1.495.374 132.355 132.355 0 01-22.242-2.977c-2.61-.589-5.2-1.227-7.762-1.964-15.463-4.327-30.177-11.157-44.218-19.4-26.261-15.446-51.683-34.261-74.87-53.983-18.023-15.347-33.87-33.281-49.461-51.252-.376-.418-.737-.838-1.1-1.259q-2.4-2.756-4.775-5.515h-.015c-.384-.462-.779-.906-1.161-1.354h-.015a1099.743 1099.743 0 00-9.978-11.406Q99.152 86.78 62.789 45.452a2.08 2.08 0 01-.39-.646v-.014a2.136 2.136 0 01.199-1.778z" fill="#00b59c"/><g data-name="Group 1187" fill="#99e1d7"><path data-name="Path 2785" d="M.267 149.096c.074.062.151.139.225.2a1.983 1.983 0 00.3.8 329.4 329.4 0 0167.009 29.7c7.558 4.345 15.021 8.834 22.474 13.352-6.45 1.531-12.095 5.1-17.709 8.59.571.394 1.126.791 1.7 1.185a49.534 49.534 0 014.623-3.213c4.066-2.3 8.832-3.329 12.842-5.681 1.628.984 3.269 1.966 4.895 2.95-6.377 2.671-12.662 5.492-18.943 8.343.106.071.2.145.3.217l1.321.921c6.438-2.758 12.9-5.447 19.332-8.249 30.58 18.68 60.9 37.536 94.456 50.96a436.88 436.88 0 0072.338 21.993c11.98 2.526 25.645 5.47 39.041 5.9 2.447-.456 4.9-.96 7.343-1.523 1.531-.119 3.075-.243 4.606-.439.4-.05.335-.636-.041-.669-.11-.009-.222-.033-.332-.042a1.81 1.81 0 00.8-1.529c-2 .291-4.037.51-6.093.613a120.8 120.8 0 01-22.1-1.126 372.114 372.114 0 01-43.013-8.618c-40.972-10.5-78.542-28.038-114.741-49.047 4.893-9.825 9.635-19.713 14.445-29.569-.432-.237-.876-.456-1.3-.679a202.2 202.2 0 00-14.122 29.688 773.167 773.167 0 01-18.176-10.929c-14.968-9.259-30.166-18.994-45.853-27.847 1.246-6.267 2.867-12.347 4.6-18.419-.373-.1-.746-.19-1.129-.267-1.6 6.045-2.952 12.164-4.3 18.22a364.614 364.614 0 00-6.735-3.693q2.89-7.872 5.482-15.837l-1.544-.34c-.122.317-.231.616-.338.928q-2.5 7.265-4.756 14.617c-18.162-9.7-36.988-17.93-56.847-22.627a.725.725 0 00-.06 1.166z"/><path data-name="Path 2786" d="M92.988 170.065a3.771 3.771 0 012.629-1.65 4.07 4.07 0 013.507-.771c1.579.356 3.3 1.824 3.263 3.566-.038 1.945-2.115 2.632-3.74 2.707a7.561 7.561 0 01-5.251-1.8 1.518 1.518 0 01-.408-2.052z"/><path data-name="Path 2787" d="M85.69 165.743a2.281 2.281 0 012.008-.183 1.185 1.185 0 01.19.118 1.383 1.383 0 01.983.693 1.361 1.361 0 01-.59 1.782 2.282 2.282 0 01-2.98-.38 1.329 1.329 0 01.389-2.03z"/><g data-name="Group 1110"><path data-name="Path 2789" d="M261.207 95.37c-8.772-.394-17.912-2.177-26.641-1.424l.237.954c8.821.106 17.927 2.173 26.626 1.042a213.46 213.46 0 013.105 8.879c-6.255.891-12.925-.228-19.233.011-2.639.11-5.283.205-7.923.315.1.4.2.776.309 1.17 3.655-.189 7.325-.38 10.986-.464 5.408-.122 10.823.879 16.133-.195 3.863 11.84 10.244 39.047 10.451 39.93 5.415 24.213 11.485 49.081 26.425 69.428 8.947 12.182 20.412 22.014 32.176 31.495a122.369 122.369 0 01-6.253-8.7c-9.416-7.962-18.325-16.394-25.451-26.614-13.115-18.833-18.867-41.177-23.88-63.363l.1-.021c5.772-2.317 11.483-4.778 17.168-7.3l-.318-1.369q-8.692 3.533-17.238 7.4c-.329-1.505-.675-3.006-1.007-4.525 5.789-2.307 11.465-5.023 17.1-7.869l-.467-1.878a165.584 165.584 0 00-16.911 8.507c-.635-2.813-1.255-5.615-1.889-8.414-5.87-25.569-14.072-48.474-28.093-70.466 3.143-3.3 6.478-6.415 9.557-9.815a22.24 22.24 0 011.224-1.274c-.175-.258-.349-.516-.553-.767-1.1.972-2.192 1.9-3.087 2.816-2.639 2.665-5.067 5.548-7.653 8.249a192.12 192.12 0 00-1.973-3.039c-.258-.365-.5-.747-.762-1.126 3.492-3.635 6.72-7.6 10.141-11.362a23.7 23.7 0 00-.966-1.224c-3.581 3.577-6.862 7.585-10.008 11.337C229.475 36.008 215.655 14.33 196.126.469a1.632 1.632 0 00-.516 1.042c20.566 18.381 36.578 41.563 51.247 64.8a161.587 161.587 0 0114.35 29.059z"/><path data-name="Path 2790" d="M242.259 113.482a1.455 1.455 0 011.769-1.22 1.094 1.094 0 011.179.221c2.28-1 5.518 4.715 3.323 6.827-1.243 1.2-3.323.726-4.5-.3a6.043 6.043 0 01-1.771-5.528z"/><path data-name="Path 2791" d="M246.306 125.152a2.353 2.353 0 013.451-1.161l.492.255a2.2 2.2 0 01.85 2.527 2.228 2.228 0 01-2.221 1.463l-.565-.039a2.327 2.327 0 01-2.007-3.045z"/></g><path data-name="Path 2793" d="M62.398 44.799v.014C86.337 57.72 107.041 74.318 126.715 93.4c13.629 13.2 26.794 26.869 40.229 40.267-6.909 1.313-14.785 2.789-21.306 5.749.382.448.778.892 1.161 1.354h.015c7.016-1.4 14.157-4.173 20.931-6.167a.243.243 0 00.083-.047c1.65 1.641 3.314 3.281 4.961 4.908q-10.578 3.445-21.2 6.821c.359.421.72.841 1.1 1.259a165.15 165.15 0 0020.619-7.584 743.885 743.885 0 0010.082 9.77c20.145 19.127 41.1 37.368 62.6 54.947 21.7 17.755 43.949 35.061 67.125 50.861 12.425 8.471 25.549 16.2 39.623 21.206a2.669 2.669 0 001.151-2.493c-20.388-7.117-38.671-20.21-56.1-32.888a1139.073 1139.073 0 01-88.609-71.689c3.527-7.029 6.812-14.18 10.286-21.244-.332-.35-.645-.687-.977-1.037-3.72 6.975-7.013 14.249-10.324 21.359-2.487-2.215-4.949-4.464-7.413-6.714 3.894-6.963 8.041-13.884 11.615-21.061a36.11 36.11 0 00-1.03-1.072c-4.165 6.909-7.78 14.186-11.539 21.277q-16.412-14.976-32.266-30.553c-14.309-14.085-28.554-29.46-43.706-43.822 2.141-4.013 4.383-7.985 6.521-12.012-.441-.282-.882-.565-1.333-.827-1.976 4.072-3.833 8.2-5.793 12.267-1.762-1.667-3.551-3.311-5.34-4.957 2.342-3.237 4.567-6.589 6.743-9.963-.524-.311-1.048-.622-1.567-.919a87.05 87.05 0 00-6.285 9.872c-16.5-14.942-34.155-28.3-54.168-37.246a2.136 2.136 0 00-.206 1.777z"/><path data-name="Path 2794" d="M151.724 99.709a1.6 1.6 0 011.25-1.415c.18-.014.362-.015.545-.015a2.631 2.631 0 011.379-.933 3.215 3.215 0 011.02-.112c2.8-1.1 5.487 2.121 5.109 4.81a1.479 1.479 0 01-1.123 1.273 5.431 5.431 0 01-1.955.246 3.76 3.76 0 01-1.442.765 4.016 4.016 0 01-4.783-4.619z"/><path data-name="Path 2795" d="M142.337 96.628a1.736 1.736 0 012.157-1.051 4.086 4.086 0 011.326.717 1.755 1.755 0 01.391 2.544.929.929 0 01-1.063.891 3.727 3.727 0 01-.489-.116 1.74 1.74 0 01-.844-.317 4.157 4.157 0 01-1.143-.989h.071a1.589 1.589 0 01-.406-1.679z"/></g></g></svg>