<svg xmlns="http://www.w3.org/2000/svg" width="344.822" height="223.22"><g data-name="Group 1867"><g data-name="Group 1581"><path data-name="Path 2817" d="M139.797 79.88a73.535 73.535 0 00-1.423-1.735 25.954 25.954 0 00-.717-.886A437.326 437.326 0 0095.14 32.523c-3.395-3.11-6.847-6.193-10.407-9.15L82.65 21.68a71.082 71.082 0 00-2.726-2.142 35.441 35.441 0 00-1.635-1.255C67.575 10.237 55.83 3.878 42.134 1.97a1.661 1.661 0 00-1.853 1.369c-1.495 5.847 1.485 11.478 4.876 16.535a.017.017 0 00.015.02c.201.313.408.61.623.925.942 1.397 1.91 2.746 2.798 4.03a159.905 159.905 0 0016.28 19.834A275.274 275.274 0 0086.94 65.15c.36.32.725.623 1.103.909a135.867 135.867 0 003.659 3.026 1.722 1.722 0 00.299.257c4.463 3.66 8.991 7.24 13.52 10.821q4.537 3.574 8.863 7.273c.33.28.66.559.988.856 16.201 13.965 30.353 29.326 44.129 46.146-10.703-8.715-17.684-18.506-29.01-25.652a153.55 153.55 0 00-12.98-7.34 39.7 39.7 0 00-1.81-.909 141.8 141.8 0 00-6.265-2.867c-.501-.199-1.018-.418-1.52-.616q-4.529-1.874-9.162-3.372a107.088 107.088 0 00-17.606-4.105c-2.824-.405-14.942-3.086-15.773.807-1.353 6.33 3.705 12.644 7.7 16.959a59.833 59.833 0 004.331 4.188c.28.254.579.51.862.749 1.833 1.6 3.715 3.104 5.614 4.61.39.34.788.648 1.182.973.809.632 1.596 1.283 2.385 1.932a318.951 318.951 0 0026.666 19.53c.466.318.934.618 1.4.936a348.815 348.815 0 005.318 3.398c.532.344 1.05.67 1.585.998 1.423.903 2.866 1.792 4.312 2.663a571.161 571.161 0 0057.645 30.825 368.52 368.52 0 008.151 3.627c.447.208.897.399 1.363.593a388.69 388.69 0 006.028 2.548c.314.632.66-4.815.2-5.953q-4.52-11.16-9.905-21.98c.436-.373-39.632-63.857-50.414-77.1z" fill="#00b59c"/><path data-name="Path 2818" d="M159.96 151.306c10.8 10.413 21.352 20.966 32.555 30.466a374.912 374.912 0 01-8.151-3.627c-7.377-6.91-14.448-14.091-21.363-20.897a295.51 295.51 0 00-31.106-27.381c-2.642 5.126-6.192 9.921-9.487 14.79a72.719 72.719 0 01-1.586-.998c2.994-5.11 6.247-10.286 10.28-14.284.02-.015.054-.01.077-.042a228.39 228.39 0 00-3.29-2.386c-2.803 2.887-6.094 5.23-8.673 8.383-1.275 1.545-2.38 3.361-3.714 4.931-.465-.318-.934-.618-1.4-.936 3.519-4.942 7.622-9.885 12.691-13.123-3.302-2.281-6.66-4.485-10.16-6.53-7.847-4.608-15.942-8.723-23.963-12.985-2.454 3.739-4.952 7.54-7.62 11.177-.394-.324-.79-.632-1.182-.973 2.541-3.62 5.298-7.136 7.884-10.696-1.54-.832-3.082-1.648-4.619-2.478-2.559 3.263-5.807 5.805-8.876 8.565a33.237 33.237 0 01-.862-.748c2.573-2.996 5.616-5.586 8.053-8.743a186.634 186.634 0 01-17.86-11.045c-.384-.27.084-.802.475-.568 13.928 8.58 28.871 15.33 43.208 23.175a54.11 54.11 0 01-1.76-8.122q-.885-4.566-1.602-9.178c.502.199 1.018.417 1.519.616.447 2.811.897 5.604 1.4 8.405.518 2.926 1.388 5.87 1.476 8.84 1.424.78 2.845 1.577 4.247 2.388-.72-5.49-.652-11.16-.859-16.766.613.286 1.223.59 1.812.91.41 5.425.595 11.062-.385 16.19 1.518.864 3.015 1.743 4.49 2.655 14.109 8.642 26.483 19.557 38.35 31.015z" fill="#99e1d7"/><path data-name="Path 2819" d="M193.878 182.366c-14.53-22.298-28.609-44.902-43.768-66.8q-7.17-10.34-14.703-20.325a.344.344 0 01-.321-.331.165.165 0 00-.006-.09 497.084 497.084 0 00-7.935-10.16 49.715 49.715 0 00-8.23 2.82 9.247 9.247 0 01-2.894.646 3.314 3.314 0 00-.662.167c-.329-.297-.66-.574-.988-.856a43.932 43.932 0 004.476-1.4 18.934 18.934 0 017.7-2.122c-5.702-7.102-11.55-14.049-17.63-20.764-4.442 1.884-9.24 3.06-13.726 4.76-1.106.42-2.157.934-3.205 1.432a1.72 1.72 0 01-.298-.257c2.492-1.148 4.899-2.575 7.432-3.523a59.653 59.653 0 019.401-2.84c-.912-1.004-1.847-1.976-2.763-2.963-3.897 2.266-8.424 3.058-12.7 4.418-1.691.528-3.35 1.215-5.027 1.884a17.245 17.245 0 01-1.103-.909 47.817 47.817 0 016.31-2.648 101.643 101.643 0 0011.407-3.938 350.925 350.925 0 00-46.467-42 76.875 76.875 0 01-12.393 4.251c-.217-.315-.421-.611-.623-.924a86.782 86.782 0 0111.389-4.526c-5.282-3.87-10.674-7.632-16.229-11.19-.274-.183.009-.64.303-.486a228.875 228.875 0 0138.046 26.083 41.391 41.391 0 01-.353-6.406c-.036-1.652-.113-3.38-.036-5.086.56.402 1.099.82 1.636 1.254-.054 1.072-.122 2.124-.157 3.18a70.541 70.541 0 01-.182 7.848 189.755 189.755 0 013.609 3.106c-.122-3.93-.454-7.979-.545-11.992l2.084 1.692c-.261 3.644-.696 7.26-.977 10.793 19.14 16.83 36.088 36.34 51.524 56.616a62.624 62.624 0 013.091-12.631c.483.568.962 1.153 1.423 1.735-.554 2.165-1.12 4.312-1.657 6.46-.507 2.083-.879 4.223-1.469 6.276q4.103 5.419 8.072 10.908c15.75 21.756 30.169 44.427 44.713 66.995 2.587 4.015 8.26 11.097 10.097 14.186-1.473-.506-3.67-1.478-5.666-2.343z" fill="#99e1d7"/></g><path data-name="Path 7853" d="M316.035 99.18c5.51-3.982 16.76-10.71 24.88-6.715 2.758 1.356 2.524 3.633 2.054 5.998a44.367 44.367 0 01-6.907 15.81c-13.324 19.938-37.555 33.77-59.415 45.497-13.214 7.087-26.898 13.495-40.646 19.793-10.822 4.96-22.74 11.967-36.008 8.993-.554.24-1.105.49-1.658.723-.27.114-.503-.26-.241-.385.382-.182.752-.372 1.134-.555a.977.977 0 01.765-1.797c.69.169 1.374.301 2.063.414.504-.257 1-.516 1.502-.774a393.888 393.888 0 0160.253-89.394c2.694-3 8.011-11.512 13.652-10.12 5.192 1.28 2.516 7.632 1.671 10.304-2.61 8.266-7.703 15.591-12.767 22.662-5.195 7.249-10.761 14.272-16.566 21.125-12.393 14.637-25.882 28.424-39.683 41.965 18.476-10.164 35.1-22.507 50.8-35.853 18.439-15.676 35.297-33.368 55.117-47.69zm-47.26 13.593a84.7 84.7 0 005.808-9.949c.885-1.834 5.125-11.614 2.881-13.857-2.485-1.438-6.433 3.272-6.89 3.771q-2.09 2.272-4.143 4.571-3.892 4.364-7.646 8.831a401.502 401.502 0 00-27.281 36.467 382.27 382.27 0 00-23.88 41.461l1.058-.57c21.124-22.738 43.105-45.13 60.094-70.725zm-61.773 72.557c-.317.653-.645 1.302-.962 1.956 10.437.132 20.136-5.536 28.837-9.52 10.729-4.91 21.415-9.89 31.873-15.208 21.184-10.774 42.877-22.933 59.057-39.298a67.728 67.728 0 0010.195-12.831c2.111-3.548 10.144-17.137-.262-17.424-11.677-.325-20.685 8.42-28.252 14.792-16.55 13.936-32.153 28.738-48.8 42.584-15.8 13.146-32.602 25.623-51.686 34.949z" fill="#f0f0f0"/></g></svg>