<svg data-name="Group 847" xmlns="http://www.w3.org/2000/svg" viewBox="0 0 115.909 214.217" preserveAspectRatio="none"><path data-name="Path 2817" d="M76.547 120.359c.377-.639.753-1.3 1.11-1.95.2-.33.391-.66.57-.987a437.326 437.326 0 0026.528-55.724c1.687-4.284 3.328-8.612 4.814-12.995l.833-2.552c.365-1.1.713-2.2 1.023-3.313.214-.657.41-1.31.585-1.976 3.672-12.886 5.4-26.129 2.273-39.6a1.661 1.661 0 00-1.942-1.239c-5.994.7-10.184 5.5-13.689 10.478a.017.017 0 00-.014.021c-.22.3-.423.6-.64.913-.967 1.38-1.879 2.767-2.759 4.056a159.905 159.905 0 00-12.683 22.308 275.274 275.274 0 00-11.2 27.934c-.17.451-.322.9-.453 1.356-.529 1.5-1.041 2.993-1.514 4.5a1.722 1.722 0 00-.133.371c-1.817 5.478-3.537 10.989-5.257 16.5q-1.71 5.517-3.614 10.881c-.142.409-.285.816-.445 1.229-7.231 20.13-16.5 38.847-27.266 57.735 4.3-13.115 10.939-23.141 13.552-36.276a153.55 153.55 0 002.2-14.747c.085-.664.15-1.342.2-2.017a141.8 141.8 0 00.432-6.876c.006-.539.025-1.1.031-1.639q.126-4.9-.136-9.763a107.088 107.088 0 00-2.477-17.907c-.634-2.782-2.474-15.056-6.406-14.436-6.394 1.005-10.476 7.99-13.073 13.265a59.833 59.833 0 00-2.358 5.545c-.136.353-.269.723-.39 1.073-.838 2.285-1.567 4.581-2.292 6.893-.178.487-.323.968-.485 1.452-.3.982-.626 1.95-.949 2.919a318.951 318.951 0 00-8.677 31.894c-.13.549-.242 1.094-.372 1.643-.441 2.053-.862 4.12-1.266 6.182-.131.62-.249 1.221-.364 1.838a218.447 218.447 0 00-.941 4.98A571.161 571.161 0 00.784 197.19a368.52 368.52 0 00-.465 8.91c-.034.492-.051.98-.065 1.485a382.984 382.984 0 00-.219 6.541c-.477.519 4.732-1.11 5.629-1.947q8.8-8.22 16.97-17.124c.505.273 45.414-59.884 53.913-74.696z" fill="#00b59c"/><path data-name="Path 2818" d="M17.091 164.779C11.24 178.595 5.169 192.227.315 206.091c.114-2.967.28-5.945.465-8.91 3.807-9.363 7.978-18.538 11.853-27.433a295.51 295.51 0 0014.416-38.852c-5.733-.63-11.482-2.226-17.209-3.557.114-.617.233-1.218.364-1.838 5.843.964 11.842 2.146 17.02 4.478.021.014.028.047.066.057.358-1.3.712-2.615 1.049-3.927-3.7-1.582-7.066-3.815-10.934-5.092-1.9-.637-3.991-1.017-5.935-1.7.13-.549.242-1.094.372-1.643 5.875 1.514 11.96 3.573 16.8 7.145.946-3.9 1.8-7.824 2.455-11.826 1.49-8.976 2.43-18.008 3.535-27.024-4.37-.951-8.815-1.921-13.166-3.108.162-.484.307-.965.485-1.452 4.29 1.075 8.561 2.388 12.811 3.527.225-1.736.434-3.468.658-5.2-3.963-1.22-7.5-3.342-11.177-5.217.121-.35.254-.72.39-1.073 3.719 1.328 7.227 3.241 11.048 4.385a186.634 186.634 0 013.911-20.632c.114-.456.779-.209.7.24-3.019 16.077-3.965 32.447-6.151 48.643a54.11 54.11 0 016.952-4.554q3.945-2.462 7.994-4.785c-.006.54-.025 1.1-.031 1.639a431.582 431.582 0 00-7.345 4.319c-2.546 1.533-4.983 3.4-7.723 4.546a208.748 208.748 0 01-.708 4.821c4.867-2.64 10.185-4.608 15.345-6.81a34.333 34.333 0 01-.2 2.017c-4.918 2.327-10.115 4.52-15.253 5.443a143.975 143.975 0 01-.87 5.143c-3.012 16.269-8.767 31.733-15.211 46.918z" fill="#99e1d7"/><path data-name="Path 2819" d="M.249 207.576c15.61-21.557 31.667-42.8 46.678-64.8q7.083-10.4 13.706-21.01a.344.344 0 01.194-.419.165.165 0 00.082-.037c2.273-3.66 4.469-7.34 6.642-11.05a49.715 49.715 0 00-5.582-6.672 9.247 9.247 0 01-1.641-2.47 3.314 3.314 0 00-.393-.559c.16-.413.3-.821.445-1.229a43.932 43.932 0 002.912 3.677 18.934 18.934 0 014.74 6.428c4.587-7.868 8.976-15.818 13.066-23.9-3.35-3.472-6.167-7.53-9.363-11.108-.787-.883-1.644-1.68-2.485-2.479a1.72 1.72 0 01.133-.371c1.965 1.915 4.16 3.651 5.953 5.676a59.653 59.653 0 016.021 7.759c.61-1.211 1.182-2.432 1.775-3.641-3.512-2.826-5.874-6.769-8.675-10.273-1.1-1.39-2.336-2.693-3.561-4.018.131-.459.283-.905.453-1.356a47.817 47.817 0 014.734 4.942 101.643 101.643 0 007.764 9.238 350.925 350.925 0 0022.558-58.432 76.875 76.875 0 01-8.41-10.046c.217-.316.42-.613.64-.913a86.782 86.782 0 018.306 9.01c1.721-6.318 3.3-12.7 4.632-19.161.072-.321.6-.221.562.109a228.875 228.875 0 01-10.717 44.866 41.391 41.391 0 015.855-2.625c1.529-.626 3.115-1.317 4.735-1.856a35.191 35.191 0 01-.585 1.976c-1.02.334-2.026.647-3.024.993a70.541 70.541 0 01-7.393 2.643c-.511 1.494-1.057 3-1.606 4.482 3.625-1.522 7.286-3.283 11-4.806l-.833 2.552c-3.495 1.062-7.027 1.952-10.426 2.956-8.852 23.9-20.994 46.714-34.391 68.391a62.624 62.624 0 0112.9-1.641 65.379 65.379 0 01-1.11 1.95c-2.22.259-4.427.5-6.625.769-2.126.273-4.257.692-6.385.877q-3.589 5.772-7.291 11.445c-14.667 22.5-30.665 44.086-46.521 65.752-2.822 3.854-7.4 11.689-9.626 14.51-.055-1.556.065-3.956.157-6.129z" fill="#99e1d7"/></svg>