<svg xmlns="http://www.w3.org/2000/svg" width="229.716" height="199.207"><g data-name="Group 1863"><path data-name="Path 9334" d="M197.231 49.645a4.487 4.487 0 00-6.345 0l-2.782 2.783V19.969a4.487 4.487 0 00-4.483-4.486H151.19l2.774-2.771a4.487 4.487 0 10-6.343-6.348L137.18 16.793a4.535 4.535 0 000 6.346l10.441 10.447a4.487 4.487 0 106.346-6.344l-2.785-2.786h27.95v27.963l-2.767-2.771a4.487 4.487 0 00-6.35 6.34l10.428 10.445c1.776 1.332 4.671 2.1 6.348 0l10.44-10.44a4.486 4.486 0 000-6.345z" fill="#fff"/><path data-name="Path 9335" d="M215.22 82.363h-98.412V14.5a14.514 14.514 0 00-14.5-14.5H14.5A14.514 14.514 0 000 14.5v170.221a14.507 14.507 0 0014.5 14.486h124.185a4.487 4.487 0 000-8.973h-22.971a14.4 14.4 0 001.093-5.513V91.336h98.413a5.53 5.53 0 015.523 5.525v16.161h-7.964a10.655 10.655 0 00-10.642 10.644v34.248a10.655 10.655 0 0010.642 10.644h7.964v16.161a5.524 5.524 0 01-5.523 5.513h-36.232a4.487 4.487 0 000 8.973h36.232a14.507 14.507 0 0014.5-14.486V96.862a14.513 14.513 0 00-14.5-14.5zM39.61 8.973H77.2v7.968a1.7 1.7 0 01-1.682 1.671H41.279a1.692 1.692 0 01-1.669-1.671zm-25.114 0h16.142v7.968A10.655 10.655 0 0041.28 27.586h34.236a10.662 10.662 0 0010.655-10.644V8.973h16.142a5.53 5.53 0 015.522 5.526v155.888H8.973V14.5A5.53 5.53 0 0114.5 8.973zm30.548 181.26H14.5a5.524 5.524 0 01-5.523-5.513v-5.36h98.861v5.36a5.524 5.524 0 01-5.522 5.513zm167.735-30.648a1.692 1.692 0 01-1.669-1.671v-34.247a1.692 1.692 0 011.669-1.667h7.964v37.59z" fill="#fff"/><path data-name="Path 9339" d="M116.808 82.363V14.5a14.514 14.514 0 00-14.5-14.5H14.5A14.514 14.514 0 000 14.5v170.221a14.507 14.507 0 0014.5 14.486h87.816c1.938 0 10.841-1.006 13.4-8.973a14.4 14.4 0 001.093-5.513V82.363zm-77.2-73.39H77.2v7.968a1.7 1.7 0 01-1.682 1.671H41.279a1.692 1.692 0 01-1.669-1.671zm-25.114 0h16.144v7.968A10.655 10.655 0 0041.28 27.586h34.236a10.662 10.662 0 0010.655-10.644V8.973h16.142a5.53 5.53 0 015.522 5.526v155.888H8.973V14.5A5.53 5.53 0 0114.5 8.973zm30.548 181.26H14.5a5.524 5.524 0 01-5.523-5.513v-5.36h98.861v5.36a5.524 5.524 0 01-5.522 5.513z" fill="#6e6e6e"/><path data-name="Path 9338" d="M158.838 190.233h-.026a4.5 4.5 0 10.026 0z" fill="#fff"/></g></svg>