<svg xmlns="http://www.w3.org/2000/svg" width="33.088" height="31.021"><path data-name="Path 7829" d="M32.054 26.885H17.578a1.034 1.034 0 01-1.034-1.034V5.171a1.034 1.034 0 011.034-1.034h14.476a1.034 1.034 0 011.034 1.034v20.68a1.034 1.034 0 01-1.034 1.034z" fill="#fff"/><g data-name="Group 1495" fill="#388e3c"><path data-name="Path 7830" d="M21.714 10.341h-4.136a1.034 1.034 0 110-2.068h4.136a1.034 1.034 0 110 2.068z"/><path data-name="Path 7831" d="M21.714 14.477h-4.136a1.034 1.034 0 110-2.068h4.136a1.034 1.034 0 010 2.068z"/><path data-name="Path 7832" d="M21.714 18.613h-4.136a1.034 1.034 0 110-2.068h4.136a1.034 1.034 0 110 2.068z"/><path data-name="Path 7833" d="M21.714 22.749h-4.136a1.034 1.034 0 110-2.068h4.136a1.034 1.034 0 010 2.068z"/><path data-name="Path 7834" d="M27.916 10.341h-2.068a1.034 1.034 0 010-2.068h2.068a1.034 1.034 0 110 2.068z"/><path data-name="Path 7835" d="M27.916 14.477h-2.068a1.034 1.034 0 010-2.068h2.068a1.034 1.034 0 010 2.068z"/><path data-name="Path 7836" d="M27.916 18.613h-2.068a1.034 1.034 0 110-2.068h2.068a1.034 1.034 0 110 2.068z"/><path data-name="Path 7837" d="M27.916 22.749h-2.068a1.034 1.034 0 110-2.068h2.068a1.034 1.034 0 010 2.068z"/></g><path data-name="Path 7838" d="M18.238.24a1.016 1.016 0 00-.85-.219L.844 3.122A1.031 1.031 0 000 4.138v22.748a1.033 1.033 0 00.844 1.015l16.544 3.1a.973.973 0 00.19.019 1.034 1.034 0 001.034-1.034V1.036a1.031 1.031 0 00-.374-.796z" fill="#2e7d32"/><path data-name="Path 7839" d="M14.219 18.967l-3.27-3.737 3.307-4.252a1.035 1.035 0 00-1.632-1.272l-3.063 3.937-2.576-2.948a1.033 1.033 0 00-1.555 1.361l2.844 3.251-2.889 3.706a1.035 1.035 0 001.635 1.269l2.637-3.392 3.007 3.435a1.033 1.033 0 101.555-1.359z" fill="#fafafa"/></svg>