<svg xmlns="http://www.w3.org/2000/svg" width="468.978" height="318.811"><g data-name="Group 1863"><path data-name="Path 7416" d="M237.461 121.455c-9.033 14.31-16.11 29.739-24.69 44.31a510.212 510.212 0 01-9.288 15.12c-.134-.183-.266-.366-.402-.55a.072.072 0 00-.121.077c.123.236.25.47.376.708-20.28 31.81-43.53 61.74-62.825 94.171-.058.096.089.2.158.112 22.75-29.155 44.074-60.42 64.05-91.68 2.21 4.153 4.49 8.263 7.006 12.25-3.449 5.237-6.907 10.447-10.329 15.64-21.108 32.056-43.837 63.39-71.76 89.806a167.826 167.826 0 0011.019-27.585 1.274 1.274 0 00-.13-1.116 830.265 830.265 0 0031.251-78.571c.799-2.307 1.55-4.632 2.328-6.946a.424.424 0 00.167-.497c13.969-41.51 25.148-84.39 31.666-127.683a161.789 161.789 0 002.18-30.629c-.256-6.243-.12-19.853-5.068-24.5-9.603-9.02-20.379 19.47-22.444 24.772-7.352 18.854-12.302 38.557-19.042 57.675a.783.783 0 00-.459.947c.017.049.045.09.06.136a285.762 285.762 0 01-2.437 6.632c-8.357 21.67-16.071 43.398-21.905 65.903-6.015 23.19-18.821 82.622-23.21 147.338-.061.885 9.687 7.23 17.238 3.016 55.567-26.752 109.655-82.754 128.862-136.503 4.64-12.983 7.63-26.968 7.02-40.822-.327-7.397-2.043-27.8-10.18-31.037-7.65-3.042-15.732 14.185-19.09 19.506zm.524 4.326a155.308 155.308 0 019.872-14.55q2.197-2.846 4.567-5.551a12.735 12.735 0 012.001.54c-4.357 21.8-13.574 41.76-24.609 60.836-1.916-4.345-4.536-9.2-7.86-12.527 5.224-9.65 10.321-19.367 16.03-28.748zm-28.81 50.963c4.236-6.694 8.099-13.594 11.875-20.541.868 1.713 1.906 3.354 2.864 5.012 1.57 2.719 2.948 5.54 4.484 8.282-4.957 8.42-10.239 16.68-15.602 24.851-2.417-3.849-5.02-7.558-7.687-11.226 1.353-2.129 2.722-4.256 4.066-6.378zm-38.909 13.39c-11.628 34.218-26.192 66.736-41.706 99.044 3.255-12.259 5.968-24.686 8.825-37.076 4.161-18.048 9.062-35.905 14.256-53.676 3.572-1.76 6.938-3.97 10.525-5.723 2.774-1.355 5.678-2.467 8.489-3.759-.132.394-.255.795-.389 1.19zm1.07-3.263a57.96 57.96 0 00-18.644 7.936q3.558-12.07 7.246-24.102c4.034-13.17 8.11-26.33 12.046-39.517a156.462 156.462 0 0018.632-11.043q-8.222 33.751-19.278 66.722zm30.13-118.49q-4.341 24.841-10.266 49.372a143.479 143.479 0 00-18.85 12.19c7.146-23.988 13.803-48.08 19.034-72.51a81.1 81.1 0 0013.003-9.093c-.726 6.71-1.762 13.395-2.923 20.039zM199.606 8.3c2.66-.233 3.887 1.08 3.64 3.975.963 1.639 1.545 9.47 1.553 9.532a105.989 105.989 0 01.512 13.377c-.07 3.412-.312 6.811-.622 10.207-4.378 3.08-8.718 6.618-12.874 10.078 3.282-15.558 5.969-31.259 7.792-47.17zm-27.344 57.506c2.787-8.928 5.066-18.008 7.895-26.92a144.553 144.553 0 015.486-14.823c1.602-3.623 5.764-14.536 9.505-16.288l2.643.455c-3.387 25.818-9.026 51.205-15.711 76.348-2.537-1.773-5.188-3.354-7.666-5.222-1.785-1.346-3.49-2.802-5.273-4.15 1.078-3.122 2.138-6.248 3.12-9.4zm-3.619 10.913a48.894 48.894 0 0012.872 9.56.563.563 0 00.114.03q-1.793 6.685-3.663 13.347a24.037 24.037 0 00-6.74-7.294c-2.142-1.585-4.572-2.665-6.714-4.177q2.118-5.715 4.13-11.465zm-19.182 52.612c4.31-13.136 9.399-25.998 14.237-38.945 1.002.66 2.14 1.198 3.204 1.849 4.143 2.533 6.98 6.038 10.326 9.456a.7.7 0 00.13.094c-6.16 21.7-12.915 43.244-19.525 64.743-.947 3.068-1.87 6.15-2.807 9.222a176.332 176.332 0 00-15.172-13.042c2.84-11.227 5.998-22.374 9.607-33.377zm-31.157 180.98c3.105-40.625 7.343-81.219 15.494-121.17q2.66-13.034 5.938-25.938a171.693 171.693 0 0014.623 14.741c-6.873 22.592-13.48 45.264-18.926 68.245-4.839 20.404-8.885 41.013-15.527 60.836-.535 1.094-1.065 2.192-1.602 3.287zm6.518.637c22.068-20.892 41.369-44.19 59.1-68.737 12.963-3.94 26.88-7.442 39.309-13-2.43 2.934-4.885 5.812-7.38 8.572-26.273 29.063-58.544 51.594-91.029 73.165zm99.896-83.566c-13.42 2.691-26.836 8.315-39.654 13.25q9.76-13.597 18.957-27.63c6.344-9.644 13.198-19.568 19.809-29.786 10.332-.914 21.733-4.307 31.714-7.447-7.068 18.735-18.321 36.24-30.826 51.613zm34.925-115.122c3.703 7.356 3.773 17.453 3.631 25.507a112.081 112.081 0 01-6.936 35.889c-10.316 2.046-22.167 4.522-31.921 8.663 15.043-23.352 28.678-48.296 31.858-75.231a7.371 7.371 0 013.372 5.17z" fill="#f0f0f0"/><g data-name="Group 953"><path data-name="Path 2772" d="M426.306 33.094a1.427 1.427 0 00-.86.01 2.239 2.239 0 00-1.957.027 444.963 444.963 0 00-66.927 38.274l-1.66 1.148a293.56 293.56 0 00-5.928 4.232c-.417.278-.811.57-1.205.863a429.038 429.038 0 00-73.58 68.05c-.4.471-.818.944-1.213 1.433q-5.127 6.033-10.026 12.314c-.145.165-.286.35-.427.534-.406.53-.833 1.065-1.236 1.614-22.607 29.365-39.678 62.167-59.85 93.159-20.397 31.33-44.647 33.621-75.708 51.987q-6.155 1.196-12.445 2.104a2.232 2.232 0 00-1.653 3.305 2.317 2.317 0 001.688 1.419c-.125.064-.245.15-.371.21-.428.22-.224.946.275.809 1.903-.508 27.029-1.064 30.142-1.708 68.009-13.729 110.467-32.665 155.449-85.615 23.124-27.207 43.145-56.853 62.49-86.84.378-.583.74-1.144 1.117-1.729.092-.134.164-.266.256-.402a344.47 344.47 0 002.874-4.485c.484-.743.949-1.48 1.433-2.222q14.592-22.741 28.971-45.676c9.93-15.85 21.534-31.55 29.578-48.525.018-.003.035-.025.051-.028a2.068 2.068 0 001.225-1.476 2.539 2.539 0 00-.035-1.092c.057-.113.11-.238.168-.348a.927.927 0 00-.636-1.346z" fill="#00b59c"/><path data-name="Path 2773" d="M426.916 34.305c-.059.1-.113.217-.172.318a2.108 2.108 0 01.017.99 419.741 419.741 0 00-65.204 62.27c-6.898 8.08-13.619 16.27-20.316 24.49 8.289-1.327 16.566-.116 24.77 1.02-.492.681-.96 1.357-1.455 2.04a65.953 65.953 0 00-6.91-1.301c-5.837-.586-11.914.505-17.708-.16-1.462 1.792-2.943 3.587-4.406 5.38 8.726-.081 17.413.038 26.107.194-.094.12-.167.246-.26.37-.382.535-.748 1.05-1.132 1.586-8.835.015-17.674.118-26.52.082-27.408 33.868-54.433 67.804-87.745 97.444a573.124 573.124 0 01-75.005 56.511c-12.935 8.174-27.657 17.562-43.217 24.152a246.94 246.94 0 01-9.339 1.744c-1.854.574-3.728 1.15-5.618 1.642a.388.388 0 01-.26-.73c.125-.06.247-.136.37-.196a2.146 2.146 0 01-1.648-1.258 90.013 90.013 0 007.45-2.14 165.316 165.316 0 0025.483-11.32 498.363 498.363 0 0046.643-28.863c43.379-29.927 79.531-65.784 112.48-104.7-10.253-8.206-20.366-16.545-30.541-24.821.398-.45.82-.886 1.222-1.32a236.046 236.046 0 0130.206 25.098q8.303-9.866 16.37-19.945c13.36-16.698 26.778-34.01 41.17-50.608-4.342-6.092-9.032-11.813-13.851-17.479.394-.272.79-.543 1.206-.802 4.65 5.695 9.045 11.58 13.41 17.402a455.346 455.346 0 016.23-7.01q-7.006-7.048-13.709-14.33l1.662-1.068c.289.28.555.549.825.833q6.27 6.577 12.292 13.363C386.73 64.55 405.1 47.179 426.307 33.09a.805.805 0 01.61 1.215z" fill="#99e1d7"/><path data-name="Path 2774" d="M327.545 104.04a4.812 4.812 0 00-3.901-.679 5.2 5.2 0 00-4.518.785c-1.693 1.184-3.012 3.744-2.134 5.79.983 2.28 3.767 2.087 5.727 1.39a9.643 9.643 0 005.33-4.667 1.933 1.933 0 00-.504-2.619z" fill="#99e1d7"/><path data-name="Path 2775" d="M334.079 95.408a2.918 2.918 0 00-2.459.754 1.432 1.432 0 00-.167.236 1.764 1.764 0 00-.826 1.293 1.737 1.737 0 001.558 1.82 2.914 2.914 0 003.338-1.89 1.7 1.7 0 00-1.444-2.213z" fill="#99e1d7"/></g></g></svg>