<svg xmlns="http://www.w3.org/2000/svg" width="333.876" height="266.056"><g data-name="Group 1864"><path data-name="Path 7413" d="M123.994 158.355c-1.25 27.531-3.546 63.148-27.717 80.999-.144 1.027-.277 2.055-.445 3.082a.28.28 0 01-.553-.083c.094-.82.157-1.642.238-2.463a52.084 52.084 0 01-4.006 2.597 1.268 1.268 0 01-1.477-2.058 68.136 68.136 0 005.869-4.928c1.99-28.002-5.754-77.409-6.577-105.426 3.37 2.007 35.929.498 34.668 28.28zM91.4 131.193c2.014 24.312 7.999 79.041 5.463 103.365 17.078-16.753 22.032-39.925 23.609-63.916.563-8.597-.09-19.477-4.766-28.512-9.002-17.415-25.785-28.795-24.306-10.937z" fill="#fff"/><g data-name="Group 1863"><path data-name="Path 7362" d="M107.97 46.226c4.066 1.393 6.186 6.405 7.898 9.928a83.688 83.688 0 016.016 17.144c6.536 27.332 3.372 57.277 2.111 85.057-1.25 27.53-3.546 63.147-27.717 80.998-.144 1.027-.277 2.055-.446 3.082a.28.28 0 01-.553-.083c.095-.82.158-1.642.24-2.463a52.084 52.084 0 01-4.008 2.598 1.268 1.268 0 01-1.476-2.059 68.136 68.136 0 005.869-4.928c1.99-28.002-3.18-56.294-5.224-84.143q-1.725-23.49-2.29-47.045c-.312-13.139-1.51-27.316 2.224-40.106 1.799-6.161 8.52-21.011 17.356-17.98zM94.209 60.72c-2.594 6.12-3.38 12.952-3.704 19.535-1.325 26.912.874 54.497 3.09 81.309 2.014 24.312 5.8 48.67 3.266 72.995 17.077-16.754 22.032-39.925 23.608-63.917 1.689-25.735 3.795-52.345 1.827-78.097-.904-11.852-3.129-23.71-8.15-34.543-.842-1.812-1.422-4.273-2.91-5.574-1.07-.93-7.784-2.897-9.482-2.327-3.121 1.052-6.393 7.902-7.545 10.62z" fill="#f0f0f0"/><g data-name="Group 935"><path data-name="Path 2693" d="M332.186 76.843a9.809 9.809 0 00-4.541-2.595 23.75 23.75 0 00-3.749-.7c-11.234-1.223-23.234.727-34.361 4.127-.537.147-1.061.309-1.585.484-2.982.941-5.885 1.99-8.694 3.106q-6.491 2.561-12.806 5.619c-.3.135-.592.269-.874.416a264.407 264.407 0 00-46.426 29.453c-.43.336-.86.659-1.277 1.008-8.062 6.332-15.815 13-23.219 19.815-.995.915-1.989 1.842-2.984 2.8-.309.269-.618.551-.927.86a442.649 442.649 0 00-36.456 39.007q-9.371 11.272-18.141 23.028c-1.464 1.963-3.749 4.772-6.033 7.958 0 .014-.014.014-.026.027-2.648 3.724-5.322 7.931-6.665 11.843a11.784 11.784 0 00-.619 7.017c2.93 10.324 13.667-4.718 16.7-8.953a220.909 220.909 0 0149.02-49.4c.161-.135.336-.255.511-.376a251.934 251.934 0 0127.6-17.584c.108-.067.216-.135.323-.188.3-.161.578-.323.874-.47 12.9-7.059 26.217-13.484 39.466-20.058.363-.174.739-.349 1.115-.551 6.76-3.347 13.5-6.735 20.17-10.244.618-.335 1.25-.658 1.868-.995a308.394 308.394 0 0036.173-22.182c4.987-3.603 22.753-14.558 15.563-22.272z" fill="#00b59c"/><path data-name="Path 2694" d="M300.271.187c-16.433 2.124-32.209 12.408-46.131 20.958-.2.121-.389.242-.591.376-.578.349-1.143.7-1.72 1.062a307.6 307.6 0 00-31.847 22.881c-.43.349-.846.685-1.263 1.048q-3.387 2.783-6.692 5.673a310.541 310.541 0 00-31.645 32c-.3.323-.565.658-.846.981a306.191 306.191 0 00-33.406 47.862c-10.764 19.1-21.433 38.166-30.947 58.021-10.939 22.854-22.629 46.608-23.53 72.366-.107 2.971 4.744 3.736 5.3.712a187.114 187.114 0 014.837-20.138c.417-1.438.86-2.863 1.317-4.3q1.329-4.113 2.8-8.186a1.186 1.186 0 00.268-.188l.041.04q2.2-2.621 4.528-5.095c2.593-2.2 16.312-19.719 18.626-22.735 22.234-28.971 44.413-58.335 70.437-84.273.417-.43.847-.846 1.277-1.264 2.109-2.1 4.26-4.18 6.436-6.224a354.69 354.69 0 0137.034-30.059q1.593-1.17 3.225-2.3c5.966-4.221 12.04-8.321 18.167-12.354q5.846-3.851 11.7-7.689c.806-.525 1.613-1.062 2.419-1.586 5.375-3.536 10.737-7.085 16.045-10.728 7.4-5.082 15.8-10.218 20.573-18.1 8.098-13.369.506-30.953-16.412-28.761z" fill="#00b59c"/><path data-name="Path 2695" d="M209.394 14.934c-7.27-8.684-20.1-4.382-28.487.229-8.628 4.732-15.7 11.668-21.7 19.385a67.902 67.902 0 00-1.519 1.989 116.57 116.57 0 00-2.863 3.979q-3.063 4.435-5.953 9.035c-.242.363-.47.727-.672 1.089a279.1 279.1 0 00-15.575 28.379q-2.479 5.182-4.69 10.526c-.147.349-.3.7-.43 1.062a210.281 210.281 0 00-12.926 45.371c-.43 2.635-.82 5.283-1.129 7.931a179.062 179.062 0 00-1.263 28.242c.268 7.474 7.121-1 8.4-3.509 8.653-17.113 16.594-34.522 26.579-50.855.376-.632.765-1.251 1.155-1.869q2.036-3.286 4.219-6.507 6.39-9.437 13.425-18.391c.4-.523.806-1.048 1.223-1.573 8.829-11.211 18.235-21.98 27.816-32.545 4.851-5.351 11.892-12.973 15.682-21.039v-.012c.2-.4.376-.806.551-1.21 2.833-6.69 3.263-13.617-1.843-19.707z" fill="#00b59c"/><path data-name="Path 2696" d="M316.464 82.769c-20.385 10.674-40.971 20.851-61.127 31.806 8.466.887 16.837 4.088 25.115 6.722-.618.336-1.25.659-1.868.995-8.224-1.868-16.326-5.188-24.443-7.057-4.837 2.635-9.661 5.3-14.432 8.053 2.9.577 5.672 2.688 8.143 4.126a56.232 56.232 0 0010.562 5.121c-.376.2-.753.376-1.115.551a28.883 28.883 0 01-7.793-3.078c-3.413-1.842-7.875-3.6-10.871-6.1-12.591 7.286-24.94 15.016-36.846 23.552a89.687 89.687 0 0116.045 5.687c-.3.147-.578.309-.874.47-.107.054-.214.121-.323.188a167.738 167.738 0 00-16.178-5.364c-8.264 5.983-16.193 12.355-23.852 19.022 4.206 1.2 8.318 2.541 12.43 3.926-.174.121-.35.242-.511.376-4.327-1.143-8.667-2.218-12.98-3.375q-13.466 11.816-25.748 24.962c-8.922 9.531-17.442 19.9-26.377 29.75 1.344-3.912 4.017-8.119 6.665-11.843.013-.014.026-.014.026-.027 6.544-7.152 13.061-14.3 19.807-21.254a369.913 369.913 0 0143.242-38.281c-.027-.027-.054-.041-.067-.081-.766-3.347-1.827-6.869-2.352-10.379.309-.309.618-.591.927-.86.914 3.6 2.433 7.192 2.191 10.808a299.39 299.39 0 014.864-3.6c6.974-5.041 14.123-9.854 21.392-14.518-1.827-4.544-2.245-10.042-2.245-15.3.417-.349.847-.672 1.277-1.008.175 1.586.335 3.173.51 4.759.4 3.6 1.277 7.218 1.559 10.835 15.345-9.787 31.243-18.793 47.462-27.169a78.378 78.378 0 01-3.1-17.88c.282-.147.578-.282.874-.416.9 6 1.934 11.924 3.023 17.893 6.275-3.226 12.577-6.386 18.933-9.424-.739-5.714-.471-11.454-.457-17.194a32.274 32.274 0 011.585-.484c.122 5.673-.133 11.359.229 17.032q13.222-6.311 26.566-12.153c.146-.071.282.13.132.211z" fill="#99e1d7"/><path data-name="Path 2697" d="M315.564 30.394a219.945 219.945 0 01-41.751 2.2 363.684 363.684 0 00-35.434 22.231c13.975 2.85 27.574 2.661 41.683 2.957-.806.525-1.613 1.062-2.419 1.586-13.584.658-27.788.026-40.837-3.388a332.223 332.223 0 00-32.962 27.626 240.374 240.374 0 0143.927-4.195q-1.634 1.129-3.225 2.3c-13.867 1.183-27.9 1.842-41.71 2.876q-8.648 8.289-16.7 17.18c-5.805 6.4-11.422 12.973-16.932 19.654a241.649 241.649 0 0131.875-3.428c-.43.417-.86.834-1.277 1.264a230.642 230.642 0 01-31.525 3.28c-10.012 12.188-19.621 24.746-29.04 37.328-13.572 18.135-23.82 41.675-30.314 59.943-.309 1.573-2.7.9-2.393-.672 6.143-15.923 16.918-42.292 30.611-60.494 14.789-19.681 30.153-39.174 46.669-57.43l2.029-2.191c-2.164-3.6-3.374-7.918-5.133-11.71-.349-.753-.766-1.465-1.169-2.151.282-.323.551-.658.846-.981a36.06 36.06 0 012.835 4.906 93.181 93.181 0 013.712 8.74 366.726 366.726 0 0136.389-34.347c-2.875-4.787-4.367-11.521-4.6-16.966.416-.363.833-.7 1.263-1.048 1.008 3.441 1.518 7 2.392 10.486.578 2.286 1.345 4.53 1.787 6.829a308.1 308.1 0 0126.19-19.171 116.721 116.721 0 011.479-21.025c.577-.363 1.142-.713 1.72-1.062-.484 7.031-.846 14.075-1.613 21.065a239.855 239.855 0 0143.525-22.3c.228-.095.375.282.161.4-6.786 3.656-13.532 7.3-20.21 11.024 13.3-.942 26.767-1.735 40.07-1.937.347-.012.447.566.081.621z" fill="#99e1d7"/><path data-name="Path 2698" d="M211.235 34.641c-.174.4-.349.806-.551 1.21v.014c-11.059 2.648-22.266 4.6-33.46 6.479-12.523 15.299-24.738 30.637-35.475 47.239 8.319-.713 17.025-.161 25.438-.135-.416.525-.82 1.049-1.223 1.573-8.183.606-16.958.982-24.859-.43-3.481 5.445-6.813 11.024-9.944 16.79q-2.217 4.073-4.313 8.2c-.027.014-.027.041-.04.068-4.771 9.276-9.191 18.712-13.358 28.257.309-2.648.7-5.3 1.129-7.931 4.73-10.418 9.782-20.7 15.319-30.732.9-1.613 1.8-3.213 2.727-4.813a63.146 63.146 0 01-5.12-9.827c.135-.363.283-.713.43-1.062 1.68 3.347 3.508 6.6 5.228 9.947a350.016 350.016 0 0123.852-35.622 77.048 77.048 0 01-8.815-13.228c.2-.363.43-.727.672-1.089 2.7 4.718 5.6 9.329 8.371 14.021q4.817-6.331 9.89-12.475a57.171 57.171 0 01-8.654-12.946 85.89 85.89 0 00-.793-1.613c.5-.672.995-1.331 1.519-1.989a53.462 53.462 0 002.23 4.678c.511.953 5.335 9.369 6.948 10.377 7.417-8.9 15.2-17.476 23.247-25.717.255-.268.631.122.4.4-4.811 5.9-9.647 11.749-14.432 17.6 11.277-2.126 22.443-4.757 33.637-7.244z" fill="#99e1d7"/><path data-name="Path 2699" d="M148.32 115.919c-.39.618-.779 1.237-1.155 1.869a92.75 92.75 0 01-20.235-1.896.181.181 0 01-.121-.242c.013-.027.013-.055.04-.068a.167.167 0 01.135-.066c7.119.456 14.228.323 21.336.403z" fill="#99e1d7"/></g></g></g></svg>