<svg xmlns="http://www.w3.org/2000/svg" width="122.807" height="60.363"><g data-name="Group 907" fill="#fff"><path data-name="Path 4549" d="M122.717 58.15a13.973 13.973 0 00-10.451-8.633c-6.6-1.259-9.521 2.5-14.568 5.74-7.486 4.806-11.437-6.576-18.719-6.619-3.331-.019-6.3 2.028-8.9 3.837a36.47 36.47 0 01-4.747 3.176c-5.85 2.837-7.819.2-11.267-3.894-3.121-3.706-7.495-5.567-12.38-4.486-6.326 1.4-10.776 13.2-17.181 9.94-4.474-2.274-6.334-8.12-11.662-9.163-5.714-1.119-9.9 4.065-12.717 8.239-.5.739.676 1.668 1.25.964 2.842-3.5 6.377-7.982 11.4-6.754 3.193.78 4.958 3.436 7.115 5.692 2.2 2.306 4.769 4.58 8.2 4.112 4.821-.657 6.553-5.944 9.9-8.673 4.926-4.02 10.784-2.631 14.712 1.995 1.558 1.835 2.474 3.824 4.8 4.89 4.266 1.955 8.713-.586 12.2-2.983 4.506-3.1 8.733-6.394 14.1-2.661 2.011 1.4 3.531 3.454 5.648 4.721 3.872 2.315 7.318 1.134 10.731-1.425 2.8-2.1 5.18-4.521 8.92-4.661a11.889 11.889 0 0111.48 7.243c.524 1.307 2.69.733 2.136-.597z"/><path data-name="Path 4550" d="M122.717 42.099a13.975 13.975 0 00-10.451-8.633c-6.6-1.259-9.521 2.5-14.568 5.74-7.486 4.806-11.437-6.576-18.719-6.617-3.331-.019-6.3 2.028-8.9 3.836a36.479 36.479 0 01-4.747 3.177c-5.85 2.836-7.819.2-11.267-3.894-3.121-3.706-7.495-5.569-12.38-4.487-6.326 1.4-10.776 13.2-17.181 9.94-4.474-2.273-6.334-8.119-11.662-9.163-5.714-1.119-9.9 4.065-12.717 8.24-.5.738.676 1.668 1.25.963 2.842-3.5 6.377-7.981 11.4-6.754 3.193.78 4.958 3.436 7.115 5.693 2.2 2.3 4.769 4.579 8.2 4.112 4.821-.658 6.553-5.944 9.9-8.674 4.926-4.02 10.784-2.631 14.712 2 1.558 1.834 2.474 3.823 4.8 4.89 4.266 1.954 8.713-.587 12.2-2.984 4.506-3.1 8.733-6.394 14.1-2.662 2.011 1.4 3.531 3.454 5.648 4.721 3.872 2.315 7.318 1.134 10.731-1.425 2.8-2.1 5.18-4.521 8.92-4.661a11.889 11.889 0 0111.48 7.243c.524 1.303 2.69.729 2.136-.601z"/><path data-name="Path 4551" d="M122.717 27.235a13.977 13.977 0 00-10.451-8.634c-6.6-1.259-9.521 2.5-14.568 5.74-7.486 4.806-11.437-6.576-18.719-6.618-3.331-.019-6.3 2.028-8.9 3.836a36.479 36.479 0 01-4.747 3.177c-5.85 2.836-7.819.2-11.267-3.894-3.121-3.706-7.495-5.567-12.38-4.487-6.326 1.4-10.776 13.2-17.181 9.94-4.474-2.273-6.334-8.119-11.662-9.162-5.714-1.119-9.9 4.064-12.717 8.239-.5.739.676 1.668 1.25.964 2.842-3.5 6.377-7.982 11.4-6.755 3.193.78 4.958 3.436 7.115 5.693 2.2 2.3 4.769 4.58 8.2 4.112 4.821-.658 6.553-5.944 9.9-8.673 4.926-4.021 10.784-2.631 14.712 1.995 1.558 1.835 2.474 3.823 4.8 4.89 4.266 1.955 8.713-.587 12.2-2.985 4.506-3.1 8.733-6.392 14.1-2.661 2.011 1.4 3.531 3.455 5.648 4.721 3.872 2.317 7.318 1.135 10.731-1.424 2.8-2.1 5.18-4.522 8.92-4.662a11.889 11.889 0 0111.48 7.243c.524 1.308 2.69.735 2.136-.595z"/><path data-name="Path 4552" d="M122.717 11.184a13.977 13.977 0 00-10.451-8.634c-6.6-1.259-9.521 2.5-14.568 5.74-7.486 4.808-11.437-6.576-18.719-6.617-3.331-.019-6.3 2.028-8.9 3.837a36.471 36.471 0 01-4.747 3.176c-5.85 2.837-7.819.2-11.267-3.894C50.944 1.086 46.57-.775 41.685.305c-6.326 1.4-10.776 13.2-17.181 9.941-4.474-2.274-6.334-8.12-11.662-9.163C7.128-.036 2.942 5.147.125 9.322c-.5.739.676 1.668 1.25.964 2.842-3.5 6.377-7.982 11.4-6.754 3.193.779 4.958 3.435 7.115 5.692 2.2 2.306 4.769 4.58 8.2 4.112 4.821-.657 6.553-5.944 9.9-8.673C42.916.642 48.774 2.032 52.702 6.658c1.558 1.835 2.474 3.824 4.8 4.89 4.266 1.955 8.713-.587 12.2-2.983 4.506-3.1 8.733-6.394 14.1-2.663 2.011 1.4 3.531 3.455 5.648 4.722 3.872 2.315 7.318 1.134 10.731-1.425 2.8-2.1 5.18-4.521 8.92-4.661a11.89 11.89 0 0111.48 7.242c.524 1.309 2.69.736 2.136-.596z"/></g></svg>