<svg xmlns="http://www.w3.org/2000/svg" width="65.555" height="75.187"><defs><linearGradient id="a" x1=".53" y1=".23" x2=".367" y2="1" gradientUnits="objectBoundingBox"><stop offset="0" stop-color="#fd904c"/><stop offset="1" stop-color="#f53966"/></linearGradient></defs><g data-name="Group 30"><path data-name="Union 23" d="M25.858 70.02c-1.771-1.613-8.381-7.407-10.431-9.938-.123-.152-.235-.3-.336-.432A56.07 56.07 0 014.327 46.274a37.386 37.386 0 01-3.289-7.483 21.351 21.351 0 01-1.029-6.872 12.123 12.123 0 011.057-4.73 9.643 9.643 0 012.944-3.644 11.758 11.758 0 017.205-2.83 17.23 17.23 0 015.88 1.379l.27.1a19.3 19.3 0 006.771 1.476 13.693 13.693 0 001.814-.122c3.44-.465 6.172-3.452 9.066-6.615a40.37 40.37 0 016.28-5.947 14.287 14.287 0 018.451-2.816 17.431 17.431 0 014.566.649 16.007 16.007 0 016.787 4.056 14.9 14.9 0 013.056 4.39 16.183 16.183 0 011.392 6.28c.112 4.029-1.117 8.31-3.866 13.47A137.037 137.037 0 0152.6 50.986c-2.11 3.321-3.811 5.791-4.332 6.516-2.965 4.131-5.673 6.725-6.887 6.724a.614.614 0 01-.32-.08c-.991-.587 3.657-3.907 3.177-4.5-.231-.287-1.482.943-2.811 2.174-1.44 1.332-2.971 2.664-3.4 2.069-.817-1.145 5.477-5.261 4.853-5.809-.293-.257-1.48.925-2.755 2.107-1.439 1.336-2.993 2.67-3.505 1.934-.967-1.39 4.991-5.1 4.624-5.6-.175-.24-1.4.77-2.735 1.781-1.472 1.111-3.085 2.223-3.607 1.672-1-1.052 9.428-7.727 5.317-5.631s-4.34 1.362-4.274.986.823-.925 4.7-3.023a7.4 7.4 0 001.045-.7q-.048-.2-.09-.41A13.831 13.831 0 0144.23 39.7a22.3 22.3 0 003.67-6.8 8.309 8.309 0 00.194-4.523 5.925 5.925 0 00-3.075-3.739l-.006.008a41.332 41.332 0 01-3.771 3.879c-1.978 1.773-4.822 3.887-7.135 3.887a3.418 3.418 0 01-.8-.09 7.447 7.447 0 00-1.643-.186 9.613 9.613 0 00-6.214 2.7 15.02 15.02 0 00-2.373 2.7l-.008-.005a25.8 25.8 0 01-5.194-5.755c-.891 3-.014 5.362 1 8.092a22.073 22.073 0 011.807 8.5 36.3 36.3 0 00.664 6.558c2.7 6.79 6.808 7.223 10.876 8.422 4.227 1.247 5.082 1.627 5.224 1.98s.072 1.119-4.386-.076 7.129 3.166 6.372 4.4c-.4.661-2.285-.138-3.985-.936-1.477-.694-2.819-1.388-2.937-1.123-.254.57 6.345 2.957 5.688 4.517-.354.838-2.194-.183-3.9-1.2-1.468-.878-2.836-1.757-3.065-1.448-.5.665 6.516 3.384 5.954 4.674-.3.679-2.109-.338-3.812-1.354-1.534-.914-2.978-1.831-3.141-1.506-.346.683 4.891 2.965 4.043 3.745a.742.742 0 01-.52.167c-1.32-.001-4.357-1.94-7.899-5.168zm4.325-31.233a1.737 1.737 0 111.736 1.737 1.737 1.737 0 01-1.736-1.737zM15.737 10.92c-1.375-4.793.649-9.579 4.519-10.688s8.123 1.876 9.5 6.669-.65 9.578-4.52 10.688a5.973 5.973 0 01-1.652.231c-3.363 0-6.666-2.784-7.847-6.9z" transform="translate(-.001)" fill="url(#a)"/></g></svg>