<svg xmlns="http://www.w3.org/2000/svg" width="21.445" height="36.6"><g data-name="mouse (7)"><g data-name="Group 835" stroke="#cacacd"><path data-name="Path 3839" d="M13.183 6.78H8.259A8.018 8.018 0 00.25 14.789V25.88a10.473 10.473 0 1020.945 0V14.789a8.018 8.018 0 00-8.012-8.009zm-2.46 6.928c.483 0 .73.276.73.616v3.7c0 .34-.214.616-.73.616s-.777-.276-.777-.616v-3.7c0-.344.294-.616.777-.616zm9.24 12.172a9.241 9.241 0 01-18.481 0V14.789a6.784 6.784 0 016.776-6.776h1.848v4.577a2 2 0 00-1.393 1.735v3.7a2 2 0 002.009 1.848 1.951 1.951 0 001.961-1.852v-3.7a1.953 1.953 0 00-1.344-1.731V8.012h1.844a6.784 6.784 0 016.78 6.777z" fill="#cacacd" stroke-width=".5"/><path data-name="Line 20" fill="none" stroke-linecap="round" stroke-width="1.7" d="M10.75 6.85v-6"/></g></g></svg>