<svg xmlns="http://www.w3.org/2000/svg" width="242.273" height="161.155"><g data-name="Group 2397"><path data-name="Path 7709" d="M28.325 39.006C22.9 35.085 11.823 28.462 3.83 32.395c-2.72 1.337-2.485 3.577-2.023 5.906A43.68 43.68 0 008.61 53.866c13.115 19.628 36.97 33.246 58.493 44.79 13.007 6.978 26.48 13.29 40.014 19.487 10.653 4.878 22.385 11.781 35.449 8.854.546.237 1.085.483 1.634.715.265.111.495-.257.237-.38-.373-.179-.742-.365-1.116-.545a.962.962 0 00-.754-1.77 26.23 26.23 0 01-2.03.408c-.5-.247-.985-.507-1.479-.76a387.777 387.777 0 00-59.32-88.014c-2.652-2.954-7.889-11.333-13.437-9.965-5.111 1.26-2.477 7.514-1.645 10.145 2.57 8.138 7.583 15.35 12.57 22.314 5.11 7.144 10.591 14.054 16.305 20.798 12.202 14.406 25.481 27.977 39.066 41.312-18.187-10.007-34.556-22.159-50.011-35.299-18.151-15.428-34.75-32.85-54.261-46.95zM74.85 52.389a83.387 83.387 0 01-5.718-9.795c-.87-1.805-5.045-11.434-2.836-13.643 2.447-1.413 6.335 3.223 6.78 3.715q2.057 2.236 4.078 4.5 3.831 4.296 7.527 8.694a395.277 395.277 0 0126.862 35.899 376.342 376.342 0 0123.51 40.818q-.521-.28-1.041-.562C113.216 99.631 91.576 77.586 74.85 52.39zm60.815 71.432c.314.642.636 1.282.947 1.926-10.274.13-19.823-5.45-28.39-9.372-10.562-4.835-21.084-9.739-31.378-14.972-20.856-10.609-42.213-22.58-58.141-38.69A66.676 66.676 0 018.667 50.08c-2.08-3.492-9.988-16.87.258-17.153 11.497-.318 20.363 8.286 27.815 14.562 16.293 13.72 31.656 28.291 48.042 41.924 15.556 12.942 32.102 25.224 50.884 34.408z" fill="#f0f0f0"/><g data-name="Group 1158"><g data-name="Group 1142" transform="translate(90.806 21.818)"><path data-name="Path 7671" d="M149.559 34.641h-24.668a10.245 10.245 0 00-10.278-10.188H36.907A10.244 10.244 0 0026.63 34.641H1.965A34.834 34.834 0 0136.91 0h77.706a34.834 34.834 0 0134.943 34.641z" fill="#ff8e77"/><rect data-name="Rectangle 699" width="28.591" height="12.173" rx="2.462" transform="translate(0 34.641)" fill="#e04627"/><rect data-name="Rectangle 700" width="28.591" height="12.173" rx="2.462" transform="translate(122.875 34.641)" fill="#e04627"/><path data-name="Path 7672" d="M86.734 6.929h-39.24A3.343 3.343 0 0144.137 3.6 3.343 3.343 0 0147.494.272h39.24a3.343 3.343 0 013.36 3.331 3.343 3.343 0 01-3.36 3.326z" fill="#efecea" opacity=".2"/><path data-name="Path 7673" d="M105.35 6.929h-4.015A3.344 3.344 0 0197.977 3.6a3.344 3.344 0 013.358-3.328h4.015a3.343 3.343 0 013.358 3.328 3.344 3.344 0 01-3.358 3.329z" fill="#efecea" opacity=".2"/></g><g data-name="Group 1145"><path data-name="Path 7674" d="M235.085 136.357H98.04l2.727-27.7c2.321-23.572 19.7-41.387 40.369-41.387h50.854c20.672 0 38.048 17.814 40.369 41.387z" fill="#f5f6f7"/><path data-name="Path 7675" d="M191.228 32.299a5.889 5.889 0 00-5.924 6.372l.345 5.865a6.942 6.942 0 01-6.865 7.527h-24.443a6.942 6.942 0 01-6.865-7.527l.345-5.865a5.89 5.89 0 00-5.925-6.372 7.113 7.113 0 00-6.864 5.9c-4.194 25.351-19.478 60.866-19.478 60.866H217.57s-15.284-35.515-19.477-60.866a7.114 7.114 0 00-6.865-5.9z" fill="#f5f6f7"/><g data-name="Group 1144" transform="translate(128.269 43.927)"><path data-name="Path 7711" d="M7.321 30.718A31.813 31.813 0 0169.27 45.234 31.813 31.813 0 017.321 30.718z" fill="#40234c"/><path data-name="Path 7712" d="M7.314 34.796a31.82 31.82 0 0161.964 14.5 31.82 31.82 0 01-61.964-14.5z" fill="#efecea"/><ellipse data-name="Ellipse 232" cx="15.7" cy="15.563" rx="15.7" ry="15.563" transform="translate(22.593 26.482)" fill="#40234c"/><ellipse data-name="Ellipse 233" cx="8.922" cy="8.844" rx="8.922" ry="8.844" transform="translate(29.372 33.202)" fill="#40234c"/><g data-name="Group 1143" transform="translate(10.589 14.582)" fill="#cdbaba"><ellipse data-name="Ellipse 234" cx="4.121" cy="4.085" rx="4.121" ry="4.085" transform="translate(23.583)"/><path data-name="Path 7676" d="M47.295 13.821a4.146 4.146 0 01-5.828 0 4.059 4.059 0 010-5.778 4.148 4.148 0 015.828 0 4.061 4.061 0 010 5.778z"/><ellipse data-name="Ellipse 235" cx="4.121" cy="4.085" rx="4.121" ry="4.085" transform="translate(47.166 23.377)"/><ellipse data-name="Ellipse 236" cx="4.121" cy="4.085" rx="4.121" ry="4.085" transform="translate(40.259 39.908)"/><ellipse data-name="Ellipse 237" cx="4.121" cy="4.085" rx="4.121" ry="4.085" transform="translate(23.583 46.755)"/><path data-name="Path 7677" d="M8.115 41.104a4.146 4.146 0 015.828 0 4.06 4.06 0 010 5.778 4.146 4.146 0 01-5.828 0 4.06 4.06 0 010-5.778z"/><ellipse data-name="Ellipse 238" cx="4.121" cy="4.085" rx="4.121" ry="4.085" transform="translate(0 23.377)"/><path data-name="Path 7678" d="M13.943 8.043a4.06 4.06 0 010 5.778 4.146 4.146 0 01-5.828 0 4.059 4.059 0 010-5.778 4.148 4.148 0 015.828 0z"/></g></g><path data-name="Line 35" fill="none" stroke="#40234c" stroke-linecap="round" stroke-linejoin="round" stroke-width="5" d="M182.263 85.973h16.132"/><path data-name="Path 7679" d="M98.04 136.357h137.045v8.555a9.5 9.5 0 01-9.544 9.46H107.584a9.5 9.5 0 01-9.544-9.46z" fill="#7c7c7c"/><path data-name="Path 7680" d="M222.677 89.269a6.3 6.3 0 01-3.894 8.054 6.386 6.386 0 01-8.126-3.86 6.3 6.3 0 013.9-8.054 6.385 6.385 0 018.12 3.86z" fill="#efecea" opacity=".5"/><path data-name="Path 7681" d="M225.811 104.751a4.1 4.1 0 01-2.533 5.237 4.151 4.151 0 01-5.283-2.51 4.1 4.1 0 012.532-5.237 4.153 4.153 0 015.284 2.51z" fill="#efecea" opacity=".5"/><path data-name="Path 7682" d="M98.809 128.595h135.512l.314 3.188H98.49z" fill="#492345"/></g></g></g></svg>