<svg xmlns="http://www.w3.org/2000/svg" width="300.944" height="280.226"><g data-name="Group 1865"><path data-name="Path 2820" d="M234.328 114.612c7.357-5.318 22.377-14.299 33.215-8.966 3.682 1.812 3.366 4.85 2.743 8.008a59.234 59.234 0 01-9.222 21.107c-17.789 26.62-50.138 45.087-79.323 60.742-17.64 9.462-35.91 18.022-54.263 26.423-14.447 6.619-30.358 15.983-48.075 12.014-.736.322-1.474.654-2.215.97-.364.15-.67-.347-.322-.514.51-.242 1.003-.497 1.514-.74a1.305 1.305 0 011.022-2.402 35.95 35.95 0 002.753.553c.675-.337 1.336-.686 2.006-1.03a525.869 525.869 0 0180.446-119.359c3.596-4.005 10.695-15.369 18.227-13.511 6.931 1.708 3.359 10.19 2.231 13.757-3.481 11.037-10.285 20.816-17.047 30.26-6.932 9.686-14.367 19.057-22.115 28.204-16.548 19.542-34.554 37.94-52.979 56.023 24.665-13.57 46.861-30.05 67.822-47.868 24.615-20.93 47.121-44.549 73.582-63.671zm-63.093 18.148a113.082 113.082 0 007.755-13.282c1.183-2.448 6.842-15.504 3.847-18.5-3.318-1.92-8.59 4.37-9.2 5.035q-2.791 3.033-5.531 6.103-5.196 5.826-10.208 11.789a536.041 536.041 0 00-36.424 48.685 510.359 510.359 0 00-31.883 55.353l1.414-.76c28.201-30.357 57.548-60.249 80.229-94.423zm-82.473 96.868c-.427.871-.861 1.738-1.284 2.612 13.934.176 26.882-7.393 38.501-12.71 14.326-6.554 28.59-13.206 42.555-20.304 28.282-14.384 57.244-30.619 78.844-52.465a90.42 90.42 0 0013.611-17.132c2.819-4.736 13.544-22.878-.35-23.261-15.59-.431-27.615 11.237-37.72 19.747-22.095 18.605-42.928 38.366-65.155 56.853-21.093 17.551-43.531 34.207-69.002 46.66z" fill="#f0f0f0"/><g data-name="Group 1271"><path data-name="Path 2817" d="M124.886 112.367a82.316 82.316 0 011.545-2.347c.257-.406.515-.812.778-1.198a547.766 547.766 0 0147.106-61.294c3.822-4.319 7.719-8.612 11.765-12.762l2.377-2.383a92.048 92.048 0 013.115-3.025 44.107 44.107 0 011.874-1.777c12.292-11.426 26.088-20.885 42.906-25.057a2.08 2.08 0 012.487 1.462c2.627 7.088-.351 14.495-3.91 21.237a.022.022 0 01-.015.027c-.209.416-.425.811-.655 1.231-.99 1.864-2.02 3.67-2.957 5.386a200.3 200.3 0 01-17.688 26.848 344.791 344.791 0 01-24.805 28.388c-.405.446-.82.867-1.257 1.277a191.148 191.148 0 01-4.155 4.25 2.157 2.157 0 01-.339.36c-5.08 5.143-10.252 10.196-15.425 15.249q-5.185 5.046-10.088 10.221c-.376.391-.749.782-1.12 1.196-18.354 19.51-33.976 40.496-48.929 63.253 12.19-12.26 19.606-25.366 32.778-35.753 4.855-3.82 9.919-7.46 15.205-10.844a45.59 45.59 0 012.14-1.369 177.653 177.653 0 017.427-4.391c.598-.314 1.212-.654 1.811-.967q5.394-2.925 10.973-5.4a134.133 134.133 0 0121.393-7.42c3.465-.875 18.21-5.8 19.753-1.06 2.514 7.707-2.96 16.235-7.37 22.133a74.942 74.942 0 01-4.847 5.785c-.316.353-.655.711-.976 1.045-2.074 2.234-4.221 4.352-6.39 6.477-.442.476-.899.908-1.344 1.368-.925.895-1.821 1.808-2.718 2.72a399.5 399.5 0 01-30.66 27.82c-.54.457-1.085.889-1.623 1.349a429.777 429.777 0 01-6.179 4.928c-.618.5-1.22.973-1.842 1.45a276.452 276.452 0 01-5.023 3.883c-21.376 16.25-43.28 28.168-66.854 42.132-3.203 1.892-20.842 8.375-20.42 6.894q4.172-14.5 9.46-28.676c-.604-.409 40.994-84.736 52.696-102.646z" fill="#00b59c"/><path data-name="Path 2818" d="M109.12 203.983c-12.093 14.386-16.093 21.28-28.806 34.58a462.649 462.649 0 009.679-5.585c8.284-9.574 8.392-11.813 16.115-21.196 11.034-13.478 22.447-26.465 35.161-38.18 3.965 6.044 9.016 11.551 13.757 17.183a90.657 90.657 0 001.842-1.45c-4.395-5.97-9.127-11.996-14.672-16.446-.027-.015-.069-.004-.101-.041a292.74 292.74 0 013.785-3.404c3.872 3.234 8.276 5.717 11.903 9.311 1.792 1.756 3.404 3.877 5.269 5.658.539-.458 1.084-.89 1.622-1.35-5.034-5.693-10.79-11.316-17.529-14.689 3.82-3.276 7.709-6.458 11.802-9.466 9.17-6.766 18.715-12.952 28.149-19.311 3.546 4.336 7.157 8.746 10.955 12.926.45-.454.903-.892 1.345-1.368-3.64-4.176-7.533-8.196-11.222-12.292 1.81-1.239 3.623-2.455 5.434-3.693 3.615 3.729 7.994 6.468 12.178 9.507.321-.333.657-.692.975-1.045-3.596-3.395-7.727-6.222-11.175-9.836a233.767 233.767 0 0020.802-16.107c.444-.387-.21-.987-.664-.643-16.225 12.512-33.956 22.877-50.79 34.522.81-3.357.854-6.945 1.125-10.347q.504-5.803.795-11.641c-.599.314-1.214.653-1.812.967-.19 3.56-.385 7.097-.642 10.653-.263 3.713-.962 7.494-.682 11.204a257.335 257.335 0 00-4.977 3.532c.176-6.936-.649-13.987-1.126-20.997a46.03 46.03 0 00-2.14 1.368c.2 6.812.708 13.858 2.597 20.113a180.613 180.613 0 00-5.245 3.895c-16.44 12.625-30.426 27.84-43.708 43.668z" fill="#99e1d7"/><path data-name="Path 2819" d="M76.41 239.249c15.18-29.68 24.281-51.814 40.296-81.076q7.573-13.816 15.654-27.244a.43.43 0 00.357-.455.206.206 0 01-.004-.11 613.64 613.64 0 018.554-13.695 62.27 62.27 0 0110.62 2.436 11.583 11.583 0 003.69.427 4.15 4.15 0 01.848.12c.37-.412.744-.804 1.119-1.196a55.028 55.028 0 01-5.76-1.16c-3.343-1.102-6.49-1.967-9.87-1.634 6.173-9.593 12.55-19.011 19.242-28.172 5.782 1.768 11.91 2.601 17.721 4.132 1.433.376 2.806.881 4.18 1.362a2.154 2.154 0 00.34-.36c-3.257-1.103-6.441-2.566-9.72-3.416a74.717 74.717 0 00-12.081-2.308c1.005-1.37 2.042-2.703 3.053-4.052 5.152 2.313 10.894 2.706 16.398 3.84 2.174.434 4.334 1.076 6.51 1.689.437-.407.849-.83 1.256-1.277a59.894 59.894 0 00-8.207-2.473 127.312 127.312 0 01-14.725-3.411 439.554 439.554 0 0152.383-58.403c5.052 1.84 10.602 2.714 15.994 3.673.233-.424.446-.817.655-1.231a108.7 108.7 0 00-14.777-4.143c6.073-5.513 12.289-10.904 18.75-16.064.316-.262-.092-.791-.44-.561a286.673 286.673 0 00-43.979 37.475 51.846 51.846 0 00-.4-8.026c-.17-2.062-.3-4.224-.62-6.34a44.117 44.117 0 00-1.874 1.778c.207 1.328.43 2.628.612 3.94.419 3.108.464 6.61 1.255 9.753a245.49 245.49 0 00-4.089 4.342c-.363-4.91-.48-9.999-.892-15.011l-2.377 2.383c.802 4.504 1.816 8.95 2.632 13.315-21.645 23.456-40.203 49.98-56.776 77.26a78.439 78.439 0 00-5.506-15.335 85.98 85.98 0 00-1.545 2.348c.973 2.624 1.962 5.222 2.91 7.832.903 2.529 1.649 5.144 2.652 7.628q-4.401 7.287-8.627 14.645c-16.768 29.155-31.765 59.286-46.928 89.302-2.696 5.341-3.36 7.037-5.243 11.128 1.777-.818 4.386-2.317 6.76-3.655z" fill="#99e1d7"/></g></g></svg>