<svg xmlns="http://www.w3.org/2000/svg" width="398.21" height="385.445"><defs><radialGradient id="c" cx=".637" cy=".308" r=".547" gradientUnits="objectBoundingBox"><stop offset="0" stop-color="#d4ed42"/><stop offset="0" stop-color="#baf744"/><stop offset="1" stop-color="#7bbb0a"/></radialGradient><linearGradient id="b" x1=".5" y1=".262" x2=".5" y2="1.22" gradientUnits="objectBoundingBox"><stop offset="0" stop-color="#ffbc00"/><stop offset="1" stop-color="#fd8e00"/></linearGradient><filter id="a" x="43.376" y="0" width="203.849" height="385.445" filterUnits="userSpaceOnUse"><feOffset dy="15"/><feGaussianBlur stdDeviation="7.5" result="blur"/><feFlood flood-opacity=".161"/><feComposite operator="in" in2="blur"/><feComposite in="SourceGraphic"/></filter></defs><g data-name="Group 1864"><g data-name="Group 721"><path data-name="Path 2772" d="M363.504 64.46a1.31 1.31 0 00-.79-.02 2.056 2.056 0 00-1.798-.038 408.557 408.557 0 00-62.64 32.975l-1.563 1.001a263.056 263.056 0 00-5.575 3.695c-.39.24-.762.497-1.133.753a393.936 393.936 0 00-69.7 60.086c-.38.42-.778.84-1.158 1.276q-4.898 5.372-9.596 10.98c-.137.146-.273.31-.408.475-.39.474-.798.952-1.19 1.442-21.685 26.221-38.401 55.775-57.905 83.566-19.722 28.096-41.677 49.235-70.767 65.092q-5.686.9-11.486 1.533a2.049 2.049 0 00-1.624 2.98 2.128 2.128 0 001.505 1.357c-.117.054-.231.127-.348.18-.4.188-.24.862.226.752 1.759-.404 3.511-.896 5.242-1.386 2.914-.371 5.815-.813 8.693-1.305 62.844-10.418 115.818-44.161 158.796-91.305 22.09-24.224 41.413-50.788 60.125-77.684.365-.522.715-1.024 1.08-1.55.088-.116.159-.24.246-.362.934-1.33 1.867-2.678 2.782-4.023.468-.665.918-1.328 1.386-1.993q14.119-20.4 28.049-40.985c9.619-14.225 20.77-28.262 28.695-43.58.018-.003.032-.021.049-.024a1.9 1.9 0 001.17-1.315 2.33 2.33 0 00.002-1.004c.056-.099.11-.215.165-.312a.851.851 0 00-.53-1.258z" fill="#00b59c"/><g transform="translate(0 -.002)" filter="url(#a)"><path data-name="Path 2776" d="M224.34 25.875a1.9 1.9 0 00-.653-1.196c-.752-.675-2.168-.774-4.559.407-23.167 11.518-43.397 31.05-59.609 53.597-.38.477-.729.977-1.075 1.478q-1.898 2.655-3.7 5.38a12.5 12.5 0 00-.611.923 252.855 252.855 0 00-28.532 58.16 316.161 316.161 0 00-10.008 38.9l-.46 2.22c-.365 1.967-.747 3.931-1.113 5.898l-.31 1.618c-7.435 39.916-12.259 80.675-33.069 115.41a142.893 142.893 0 01-6.924 10.475q-2.781 3.83-5.906 7.555a.471.471 0 00-.04.584c-.238.16-.479.32-.737.476-2.161 1.323.165 4.504 2.309 3.178 48.599-29.634 80.843-86.257 99.278-138.654 4.748-13.473 8.191-27.526 11.27-41.746.108-.465.216-.914.309-1.384.872-4.035 1.71-8.077 2.546-12.117l.232-1.129c7.908-38.28 15.521-76.735 40.745-107.458a3.368 3.368 0 00.616-2.575z" fill="#00b59c"/></g></g><path data-name="Path 2773" d="M364.045 65.716c-.056.099-.11.214-.165.312a2.329 2.329 0 01-.002 1.004 386.134 386.134 0 00-61.626 59.847c-6.546 7.844-12.93 15.806-19.293 23.8 7.713-.936 15.368.704 22.956 2.257-.469.666-.919 1.328-1.387 1.993a57.924 57.924 0 00-6.384-1.657c-5.405-.883-11.061-.076-16.424-1.036-1.39 1.74-2.796 3.488-4.185 5.23 8.095.348 16.15.9 24.211 1.486-.088.121-.159.241-.246.361-.366.525-.716 1.025-1.08 1.551-8.195-.423-16.395-.752-24.6-1.226-26.044 32.947-51.736 65.983-83.179 94.358a512.055 512.055 0 01-70.611 53.53c-12.149 7.64-25.978 16.421-40.53 22.326-2.878.492-5.78.934-8.693 1.305-1.731.49-3.48.982-5.242 1.386-.466.11-.626-.564-.226-.751.116-.055.23-.127.348-.181a2.127 2.127 0 01-1.505-1.356 75.901 75.901 0 006.95-1.799 141.54 141.54 0 0023.845-10.208 436.449 436.449 0 0043.794-26.928c40.787-28.17 74.979-62.701 106.258-100.486-9.364-8.817-18.588-17.763-27.874-26.647.378-.437.775-.857 1.158-1.276a236.811 236.811 0 0127.557 26.912q7.884-9.579 15.551-19.392c12.7-16.252 25.463-33.124 39.118-49.226-3.912-6.384-8.16-12.41-12.53-18.382a25.62 25.62 0 011.134-.753c4.208 5.997 8.176 12.17 12.119 18.287a415.607 415.607 0 015.91-6.793q-6.37-7.484-12.452-15.19l1.563-1c.263.298.504.583.748.885q5.695 6.972 11.155 14.14c16.035-18.035 33.392-34.721 53.323-47.944a.851.851 0 01.536 1.26z" fill="#fff" opacity=".6"/><path data-name="Path 2777" d="M151.84 138.806c10.255-.865 20.876-3.376 31.137-2.897l-.233 1.129c-10.326.532-20.892 3.373-31.132 2.449a248.871 248.871 0 00-3.227 10.54c7.366.755 15.122-.865 22.522-.876 3.096.008 6.196-.003 9.292.003-.092.47-.199.92-.309 1.385-4.289-.052-8.596-.107-12.886-.035-6.338.11-12.634 1.528-18.901.518-3.978 14.04-10.2 46.195-10.4 47.239-5.229 28.603-11.194 58.005-27.751 82.52-9.918 14.676-22.89 26.72-36.23 38.365a143.408 143.408 0 006.924-10.476c10.657-9.753 20.704-20.044 28.579-32.34 14.494-22.658 20.202-49.088 25.05-75.3l-.122-.019c-6.863-2.448-13.665-5.065-20.439-7.75l.31-1.618q10.343 3.734 20.526 7.874c.317-1.777.652-3.55.972-5.346-6.885-2.434-13.656-5.351-20.385-8.424.153-.745.305-1.47.459-2.22a193.435 193.435 0 0120.193 9.18c.617-3.323 1.212-6.631 1.825-9.936 5.697-30.214 14.25-57.414 29.659-83.814-3.833-3.724-7.883-7.214-11.644-11.05-.46-.486-.961-.963-1.494-1.437.193-.31.385-.62.613-.924 1.33 1.089 2.653 2.122 3.743 3.155 3.214 2.998 6.188 6.264 9.341 9.307.71-1.213 1.422-2.425 2.172-3.65.285-.44.553-.9.841-1.355-4.257-4.095-8.219-8.591-12.398-12.836.346-.501.695-1.004 1.075-1.478 4.358 4.022 8.383 8.565 12.24 12.811 14.51-23.658 29.696-49.682 51.928-66.815a1.9 1.9 0 01.652 1.196c-23.238 22.473-40.923 50.358-57.032 78.241a189.425 189.425 0 00-15.47 34.684z" fill="#fff" opacity=".6"/><g data-name="Group 720" opacity=".6" fill="#fff"><path data-name="Path 2774" d="M270.606 126.396a4.418 4.418 0 00-3.562-.752 4.77 4.77 0 00-4.17.576c-1.591 1.032-2.883 3.341-2.14 5.243.83 2.124 3.392 2.037 5.211 1.46a8.854 8.854 0 005.04-4.113 1.775 1.775 0 00-.38-2.414z"/><path data-name="Path 2775" d="M276.877 118.683a2.679 2.679 0 00-2.28.613 1.313 1.313 0 00-.162.208 1.619 1.619 0 00-.8 1.16 1.6 1.6 0 001.37 1.72 2.676 2.676 0 003.125-1.626 1.559 1.559 0 00-1.253-2.075z"/><path data-name="Path 2778" d="M174.86 159.14a1.7 1.7 0 00-2.128-1.349 1.283 1.283 0 00-1.366.312c-2.715-1.07-6.244 5.776-3.576 8.15 1.508 1.34 3.923.695 5.253-.566a7.084 7.084 0 001.817-6.546z"/><path data-name="Path 2779" d="M170.659 172.995a2.757 2.757 0 00-4.095-1.202l-.564.322a2.571 2.571 0 00-.88 2.999 2.609 2.609 0 002.667 1.612l.66-.073a2.728 2.728 0 002.212-3.658z"/></g><path data-name="Path 2820" d="M307.122 181.873c7.357-5.318 22.377-14.299 33.215-8.966 3.682 1.812 3.366 4.85 2.743 8.008a59.234 59.234 0 01-9.222 21.107c-17.789 26.62-50.138 45.087-79.323 60.742-17.64 9.462-35.91 18.022-54.263 26.423-14.447 6.619-30.358 15.983-48.075 12.014-.736.322-1.474.654-2.215.97-.364.15-.67-.347-.322-.514.51-.242 1.003-.497 1.514-.74a1.305 1.305 0 011.022-2.402 35.95 35.95 0 002.753.553c.675-.337 1.336-.686 2.006-1.03a525.869 525.869 0 0180.446-119.359c3.596-4.005 10.695-15.369 18.227-13.511 6.931 1.708 3.359 10.19 2.231 13.757-3.481 11.037-10.285 20.816-17.047 30.26-6.932 9.686-14.367 19.057-22.115 28.204-16.548 19.542-34.554 37.94-52.979 56.023 24.665-13.57 46.861-30.05 67.822-47.868 24.615-20.93 47.121-44.549 73.582-63.671zm-63.093 18.148a113.082 113.082 0 007.755-13.282c1.183-2.448 6.842-15.504 3.847-18.5-3.318-1.92-8.59 4.37-9.2 5.035q-2.791 3.033-5.531 6.103-5.196 5.826-10.208 11.789a536.041 536.041 0 00-36.424 48.685 510.359 510.359 0 00-31.883 55.353l1.414-.76c28.201-30.357 57.548-60.249 80.229-94.423zm-82.473 96.868c-.427.871-.861 1.738-1.284 2.612 13.934.176 26.882-7.393 38.501-12.71 14.326-6.554 28.59-13.206 42.555-20.304 28.282-14.384 57.244-30.619 78.844-52.465a90.42 90.42 0 0013.611-17.132c2.819-4.736 13.544-22.878-.35-23.261-15.59-.431-27.615 11.237-37.72 19.747-22.095 18.605-42.928 38.366-65.155 56.853-21.093 17.551-43.531 34.207-69.002 46.66z" fill="#f0f0f0"/><g data-name="Group 718"><path data-name="Path 2875" d="M199.548 316.648l2.782 16.17h-2.782l-5.99-16.17z" fill="#76665b"/><path data-name="Path 2876" d="M207.338 308.301l-1.457 8.347H161.79l1.391-7.725c14.845.114 29.264-.049 44.157-.622z" fill="#76665b"/><path data-name="Path 2877" d="M73.394 316.648l-5.99 16.17h-2.782l2.782-16.17z" fill="#76665b"/><path data-name="Path 2878" d="M158.009 316.648l2.8 16.17h-2.8l-5.99-16.17z" fill="#fabb80"/><path data-name="Path 2879" d="M31.872 316.648l-5.99 16.17h-2.779l2.782-16.17z" fill="#fabb80"/><path data-name="Path 2880" d="M163.182 308.923l-1.391 7.725H21.12l-1.506-9.476a18.826 18.826 0 002.128.426 45.276 45.276 0 009.984-.1c.147.213.295.426.458.638 80.376 1 29.133 1.211 107.07.475 1.162-.016 2.34-.016 3.552-.033 5.434.131 10.753.229 16.023.295z" fill="#fabb80"/><path data-name="Path 2881" d="M20.166 310.643l142.376 1.831.64-3.552-143.568-1.751z" fill="#76665b"/><path data-name="Path 2882" d="M228.401 236.157c4.55 16.2 5.09 34.223.491 50.393-1.375 4.861-3.192 9.673-6.219 13.7-3.044 4.01-7.66 7.741-12.7 7.954l-2.635.1c-14.894.573-29.312.736-44.157.622l-4.353-.049c8.167-2.39 11.538-12.881 13.764-20.917 4.288-15.581 7.421-33.787 6.209-50.939 15.123-1.017 32.253-1.158 49.6-.864z" fill="#b97900"/><path data-name="Path 2883" d="M173.181 191.215c8.642-.147 18.2 1.015 24.092 8.069 2.8 3.339 3.192 7.463 3.29 11.669a113.018 113.018 0 01-1.637 22.046 191 191 0 00-23.715.835 214.245 214.245 0 003.093-24.157c.213-4.19.147-8.576-1.686-12.34a10.926 10.926 0 00-9.967-6.056c2.177-.017 4.354-.034 6.53-.066z" fill="#b97900"/><path data-name="Path 2884" d="M139.249 308.612a147.35 147.35 0 01-3.29-38.494h12.89c-1.7 13.371-3.846 26.579-6.039 38.461-1.216.02-2.394.02-3.561.033z" fill="#b97900"/><path data-name="Path 2885" d="M27.486 238.612a206.841 206.841 0 0143.437-3.977c-2.341 12.406-4.059 24.7-5.417 37.038-10.72.556-22.095 1.326-34.3 2.357a238.048 238.048 0 01-3.72-35.418z" fill="#b97900"/><path data-name="Path 2886" d="M198.926 232.999a179.346 179.346 0 0129.476 3.159c-17.349-.295-33.965.118-49.088 1.133-9.116-.638-18.293-1.231-27.295.307a174.384 174.384 0 0123.191-3.765 191 191 0 0123.716-.834z" fill="#efb523"/><path data-name="Path 2887" d="M.844 238.089c23.977-5.581 46.006-7.692 70.425-5.3a37.702 37.702 0 00-.344 1.849 206.842 206.842 0 00-43.437 3.977 88.237 88.237 0 00-26.645-.426z" fill="#efb523"/><path data-name="Path 2888" d="M427.676 128.086c1.408-10.949 2.52-22.013 3.175-32.52 9-1.538 18.331-1.146 27.447-.507 1.211 17.152-2.586 35.286-6.874 50.867-2.226 8.036-5.6 18.527-13.764 20.917-5.27-.065-10.589-.164-16.023-.295 2.193-11.883 4.337-25.091 6.039-38.462z" transform="translate(-278.832 142.032)" fill="url(#b)"/><path data-name="Path 2889" d="M365.257 131.666a397.4 397.4 0 00-3.862.327 36.087 36.087 0 004.386 33.142 45.274 45.274 0 01-9.984.1 18.821 18.821 0 01-2.128-.426 14.207 14.207 0 01-6.858-3.781c-2.128-2.242-3.241-5.221-4.223-8.151-6.285-18.478-6.743-37.561-7.692-57.054a88.237 88.237 0 0126.645.426 238.048 238.048 0 003.716 35.417z" transform="translate(-334.056 142.364)" fill="url(#b)"/><path data-name="Path 2890" d="M390.108 116.574c26.252-1.375 48.707-1.538 70.458-1.555a147.352 147.352 0 003.29 38.494c-77.938.736-26.694.524-107.07-.475-.164-.213-.311-.426-.458-.638a36.087 36.087 0 01-4.386-33.142c1.293-.115 2.586-.229 3.862-.327a1058.86 1058.86 0 0134.304-2.357z" transform="translate(-324.602 155.099)" fill="url(#b)"/><path data-name="Path 2891" d="M379.824 110.2c.1-.622.213-1.228.344-1.849q.982-5.155 2.128-10.36c1.588-7.169 3.257-14.877 8.756-19.738 5.712-5.041 13.682-5.761 21.211-6.874q10.36-1.5 20.769-2.488 16.5-1.571 33.077-1.964c3.061-.065 6.121-.065 9.182-.082h.262a10.926 10.926 0 019.967 6.055c1.833 3.764 1.9 8.151 1.686 12.34a214.245 214.245 0 01-3.093 24.157 174.384 174.384 0 00-23.191 3.764c-.655 10.507-1.768 21.571-3.175 32.52h-12.88c-21.751.016-44.206.18-70.458 1.555 1.356-12.336 3.075-24.626 5.415-37.036z" transform="translate(-308.901 124.431)" fill="url(#b)"/><g data-name="Group 663"><path data-name="Path 2892" d="M93.923 229.105a4.088 4.088 0 014 .151c1.684 1.051 1.1 3.637.288 5.052a5.943 5.943 0 01-2.861 2.519c-1.861.787-3.956.241-4.229-1.979-.233-1.829 1.09-4.894 2.802-5.743z" fill="#efb523"/><path data-name="Path 2893" d="M85.517 243.01a35.8 35.8 0 015.45-5.342 3.945 3.945 0 001.5 1.039 5.469 5.469 0 005.279-1.029c1.512 1.416 2.892 2.72 4.406 4.152a14.333 14.333 0 00-3.051-5.466 6.017 6.017 0 001.178-2.375 5.211 5.211 0 00-.353-3.3c1.856-2.18 3.805-4.478 5.678-6.642a24.887 24.887 0 00-6.784 5.1 1.015 1.015 0 00-.134-.128 4.586 4.586 0 00-5.123-.512 4.345 4.345 0 00-.563.393 31.677 31.677 0 00-4.755-6.139c1.087 2.573 2.111 5.295 3.2 7.884a7.663 7.663 0 00-1.352 4.982 24.019 24.019 0 00-4.576 7.383zm8.406-13.905a4.088 4.088 0 014 .151c1.684 1.051 1.1 3.637.288 5.052a5.943 5.943 0 01-2.861 2.519c-1.861.787-3.956.241-4.229-1.979-.233-1.828 1.09-4.894 2.802-5.743z" fill="#a66513"/></g><g data-name="Group 664"><path data-name="Path 2894" d="M141.168 226.962a4.088 4.088 0 014 .151c1.683 1.051 1.1 3.638.288 5.052a5.943 5.943 0 01-2.861 2.519c-1.861.787-3.956.241-4.231-1.979-.234-1.829 1.092-4.894 2.804-5.743z" fill="#efb523"/><path data-name="Path 2895" d="M132.761 240.866a35.732 35.732 0 015.452-5.342 3.9 3.9 0 001.5 1.039 5.467 5.467 0 005.277-1.031c1.512 1.416 2.89 2.72 4.4 4.152a14.32 14.32 0 00-3.049-5.466 6.018 6.018 0 001.184-2.374 5.223 5.223 0 00-.354-3.3c1.854-2.18 3.805-4.478 5.678-6.642a24.9 24.9 0 00-6.786 5.1.914.914 0 00-.134-.128 4.586 4.586 0 00-5.123-.512 4.22 4.22 0 00-.561.393 31.678 31.678 0 00-4.754-6.139c1.087 2.573 2.111 5.295 3.2 7.884a7.682 7.682 0 00-1.352 4.982 24.085 24.085 0 00-4.578 7.384zm8.408-13.905a4.088 4.088 0 014 .151c1.683 1.051 1.1 3.638.288 5.052a5.943 5.943 0 01-2.861 2.519c-1.861.787-3.956.241-4.231-1.979-.233-1.828 1.096-4.894 2.803-5.743z" fill="#a66513"/></g><path data-name="Path 2896" d="M25.671 317.875l2.985 1.091-3.514 13.852h.739l5.99-16.17h-5.99z" fill="#76665b"/><path data-name="Path 2897" d="M152.552 318.079l3.864.573 3.384 14.166h1.01l-2.8-16.17h-5.99z" fill="#76665b"/><path data-name="Path 2898" d="M31.725 307.499a34.389 34.389 0 01-5.152-33.43l.183-.484.511-.043c9.044-.746 18.093-1.278 27.139-1.926 4.525-.29 9.044-.669 13.574-.885s9.059-.422 13.591-.589q13.593-.5 27.2-.674c9.065-.295 18.136.234 27.2.651-9.062.434-18.118 1.026-27.175.985q-13.583.184-27.157.673-6.788.25-13.571.588c-4.522.218-9.036.6-13.553.885-9.031.648-18.079 1.18-27.1 1.923l.694-.527a33.478 33.478 0 00-1.944 8.237 37.657 37.657 0 00.1 8.478 35.993 35.993 0 005.46 16.138z" fill="#fcd66a"/><g data-name="Group 665"><path data-name="Path 2899" d="M12.756 303.391a19.37 19.37 0 01-4.139-7.267q-1.441-3.953-2.615-8a135.007 135.007 0 01-3.385-16.485c-.836-5.555-1.288-11.154-1.661-16.743-.368-5.61-.633-11.146-.921-16.807l-.033-.633.658-.155c5.772-1.354 11.6-2.48 17.455-3.421 5.859-.92 11.751-1.679 17.673-2.067s11.853-.532 17.777-.4c5.923.2 11.836.606 17.7 1.37-5.9-.385-11.808-.63-17.712-.55q-8.853.029-17.666.856c-5.867.565-11.722 1.277-17.532 2.268-5.815.971-11.586 2.191-17.332 3.516l.625-.787c.237 5.514.457 11.157.776 16.715.319 5.574.763 11.137 1.408 16.674A138.8 138.8 0 006.75 287.93a120.7 120.7 0 002.26 8.057 20.233 20.233 0 003.746 7.404z" fill="#fcd66a"/></g><path data-name="Path 2900" d="M65.506 271.673c.537-6.553 1.28-13.09 2.1-19.617q1.306-9.786 3.067-19.507c1.3-6.462 2.336-12.93 4.3-19.321a27.389 27.389 0 014.592-8.977 20.626 20.626 0 018.231-5.935 44.91 44.91 0 019.722-2.435c3.272-.5 6.511-.933 9.792-1.291l9.81-1.137c3.272-.368 6.537-.8 9.822-1.016a372.378 372.378 0 0139.44-1.155l-9.854.316q-4.922.218-9.84.535-9.835.582-19.635 1.558c-6.525.72-13.028 1.592-19.543 2.376-3.25.378-6.524.843-9.745 1.358a43.839 43.839 0 00-9.352 2.406 19.01 19.01 0 00-7.641 5.411 25.885 25.885 0 00-4.385 8.45c-1.98 6.164-3.011 12.727-4.489 19.1-2.599 12.859-4.623 25.853-6.392 38.881z" fill="#fcd66a"/><g data-name="Group 666"><path data-name="Path 2901" d="M198.926 232.998a226.01 226.01 0 00-23.548 1.357 196.556 196.556 0 00-23.186 3.979l.583-.689c-.353 5.969-.787 11.933-1.448 17.876a586.34 586.34 0 01-2.19 17.792c-1.71 11.826-3.777 23.6-6.331 35.267 1.772-11.81 3.509-23.614 4.941-35.452a583.183 583.183 0 002.006-17.768c.545-5.935 1.12-11.866 1.511-17.81l.038-.565.547-.124a157.338 157.338 0 0123.427-3.571 165.135 165.135 0 0123.65-.292z" fill="#fcd66a"/></g></g><g data-name="Group 786" fill-rule="evenodd"><path data-name="Path 3485" d="M24.21 270.757s27.446 3.327 36.278 1.891c6.462-1.055 22.785-2.8 31.1-3.667l.592-.053a749.78 749.78 0 014.372-.453.544.544 0 01.079-.009 33.5 33.5 0 00-4.138-5.462s-.1-2.142-.566-5.5a84.845 84.845 0 00-4.363-17.821 53.033 53.033 0 00-3.885-8.24 56.147 56.147 0 00-.914-5.574 55.4 55.4 0 00-6.1 1.246s-21.818-3.371-41.512-1.194a27.671 27.671 0 00-8.353-1.385 19.972 19.972 0 00.871 7.7s-.592 4.538-.811 11.1a126.416 126.416 0 00.288 14.494c.2 2.631.514 5.3.958 7.936z" fill="#57b1ce"/><path data-name="Path 3486" d="M27.677 232.233s-.592 4.538-.811 11.1c6.056-7.562 19.792-15.02 35.052-15.368 8.1-.184 19.365 4.687 25.65 11.711a53.033 53.033 0 00-3.885-8.24 56.147 56.147 0 00-.914-5.574 55.4 55.4 0 00-6.1 1.246s-21.818-3.371-41.512-1.194a27.671 27.671 0 00-8.353-1.385 19.971 19.971 0 00.873 7.704z" fill="#006d8f"/><path data-name="Path 3487" d="M24.043 273.439s27.613.645 36.445-.792 36.147-4.181 36.147-4.181a33.5 33.5 0 00-4.138-5.462s-.1-2.142-.566-5.5c-8.074 11.024-37.978 15.872-64.777.331.2 2.631.514 5.3.958 7.936z" fill="#006d8f"/><path data-name="Path 3488" d="M24.1 273.557s27.556.527 36.388-.909c6.462-1.055 22.785-2.8 31.1-3.667-3.885.3-9.913.61-17.725.488a102.3 102.3 0 01-24.6-3.189c-14.038-13.734-16.344-38.307-16.344-38.307l-3.53 2.153c-1.046-1.246-2.587-5.592-2.587-5.592a19.971 19.971 0 00.871 7.7s-.592 4.538-.811 11.1a126.4 126.4 0 00.288 14.494c.2 2.631.514 5.3.958 7.936z" fill="#006d8f" opacity=".306" style="mix-blend-mode:multiply;isolation:isolate"/></g><g data-name="Group 752"><g data-name="Group 356"><path data-name="Path 2241" d="M620.466 402.871a10.019 10.019 0 11-10.019-10.019 10.019 10.019 0 0110.019 10.019z" transform="translate(-517.816 -140.409)" fill-rule="evenodd" fill="url(#c)"/><path data-name="Path 2242" d="M85.254 257.397a10.663 10.663 0 00-1.315.084 9.966 9.966 0 00-.775 1.7 9.134 9.134 0 0110.108 13.276 10.058 10.058 0 001.846-.288 10.678 10.678 0 00-9.863-14.773z" fill="#e6ed91"/></g></g></g></svg>