<svg xmlns="http://www.w3.org/2000/svg" width="45.674" height="45.673"><path data-name="Path 7775" d="M42.965 21.727a1.675 1.675 0 01-.4-2.81 4.484 4.484 0 001.2-5.369 4.439 4.439 0 00-4.804-2.555 1.591 1.591 0 01-1.49-.539 1.647 1.647 0 01-.333-1.606 4.478 4.478 0 00-1.878-5.179 4.425 4.425 0 00-5.419.469 1.586 1.586 0 01-1.544.36 1.616 1.616 0 01-1.125-1.16 4.483 4.483 0 00-8.669 0 1.617 1.617 0 01-1.126 1.16 1.586 1.586 0 01-1.544-.36 4.425 4.425 0 00-5.419-.469 4.479 4.479 0 00-1.878 5.176 1.647 1.647 0 01-.336 1.606 1.591 1.591 0 01-1.487.542A4.439 4.439 0 001.9 13.548a4.485 4.485 0 001.2 5.369 1.675 1.675 0 01-.4 2.81 4.523 4.523 0 001.236 8.628 1.607 1.607 0 011.285.948 1.65 1.65 0 01-.121 1.635 4.486 4.486 0 00.355 5.5 4.427 4.427 0 005.328 1.084 1.583 1.583 0 011.577.093 1.635 1.635 0 01.764 1.442 4.464 4.464 0 003.24 4.434 4.56 4.56 0 001.277.184 4.433 4.433 0 003.8-2.166 1.621 1.621 0 012.782 0 4.486 4.486 0 008.319-2.452 1.634 1.634 0 01.764-1.442 1.584 1.584 0 011.577-.093 4.427 4.427 0 005.328-1.084 4.486 4.486 0 00.355-5.5 1.65 1.65 0 01-.129-1.635 1.607 1.607 0 011.285-.948 4.523 4.523 0 001.236-8.628z" fill="#fff"/></svg>