<svg xmlns="http://www.w3.org/2000/svg" width="33.088" height="31.021"><path data-name="Path 7840" d="M32.054 26.885H17.578a1.033 1.033 0 01-1.034-1.034V5.171a1.034 1.034 0 011.034-1.038h14.476a1.034 1.034 0 011.034 1.034v20.68a1.033 1.033 0 01-1.034 1.038z" fill="#fff"/><g data-name="Group 1496" fill="#1976d2"><path data-name="Path 7841" d="M27.918 10.341h-10.34a1.034 1.034 0 110-2.068h10.34a1.034 1.034 0 010 2.068z"/><path data-name="Path 7842" d="M27.918 14.477h-10.34a1.034 1.034 0 110-2.068h10.34a1.034 1.034 0 010 2.068z"/><path data-name="Path 7843" d="M27.918 18.613h-10.34a1.034 1.034 0 110-2.068h10.34a1.034 1.034 0 110 2.068z"/><path data-name="Path 7844" d="M27.918 22.749h-10.34a1.034 1.034 0 110-2.068h10.34a1.034 1.034 0 110 2.068z"/></g><path data-name="Path 7845" d="M18.238.241a1.017 1.017 0 00-.85-.221L.844 3.122A1.035 1.035 0 000 4.137v22.748a1.033 1.033 0 00.844 1.02l16.544 3.1a.989.989 0 00.19.019 1.034 1.034 0 001.034-1.034V1.035a1.027 1.027 0 00-.374-.794z" fill="#1565c0"/><path data-name="Path 7846" d="M13.438 20.796a1.035 1.035 0 01-.9.91.887.887 0 01-.128.008 1.037 1.037 0 01-.968-.67l-2.134-5.691-2.134 5.691a1.034 1.034 0 01-1.991-.219l-1.034-7.238a1.034 1.034 0 012.047-.292l.461 3.234 1.681-4.485a1.078 1.078 0 011.938 0l1.584 4.223.556-5.009a1.034 1.034 0 112.056.23z" fill="#fafafa"/></svg>