<svg xmlns="http://www.w3.org/2000/svg" width="28.175" height="35.607" viewBox="0 0 28.175 35.607">
  <path id="bell_1_" data-name="bell (1)" d="M81.027,28.336a5.532,5.532,0,0,1-1.681-2.289c-1.449-3.066-1.753-7.384-1.753-10.467,0-.013,0-.027,0-.04a10.1,10.1,0,0,0-5.947-9.163V3.967A3.968,3.968,0,0,0,67.686,0h-.328A3.968,3.968,0,0,0,63.4,3.967v2.41a10.1,10.1,0,0,0-5.948,9.2c0,3.083-.3,7.4-1.753,10.467a5.532,5.532,0,0,1-1.681,2.289,1.014,1.014,0,0,0-.557,1.153,1.061,1.061,0,0,0,1.046.815h7.646a5.371,5.371,0,0,0,10.741,0h7.646a1.061,1.061,0,0,0,1.046-.815A1.014,1.014,0,0,0,81.027,28.336ZM65.484,3.967A1.877,1.877,0,0,1,67.358,2.09h.328a1.877,1.877,0,0,1,1.874,1.877V5.7a10.1,10.1,0,0,0-4.075,0V3.967Zm2.038,29.551a3.292,3.292,0,0,1-3.284-3.212h6.568A3.292,3.292,0,0,1,67.522,33.517Zm4.2-5.3H56.882a10.935,10.935,0,0,0,.547-.96c1.4-2.757,2.107-6.685,2.107-11.676a7.985,7.985,0,1,1,15.97,0c0,.013,0,.026,0,.038,0,4.971.713,8.885,2.107,11.634a10.947,10.947,0,0,0,.547.96Z" transform="translate(-53.434 0)" fill="#0f1422"/>
</svg>
