<svg xmlns="http://www.w3.org/2000/svg" width="94.794" height="40.324" viewBox="0 0 94.794 40.324">
  <path id="Path_7353" data-name="Path 7353" d="M397.306,362.9c-1.1-1.935-2.325-3.827-3.6-5.648a.676.676,0,0,0-.684-.3.9.9,0,0,0-1.475-.215c-6.623,6.856-13.169,13.957-19.243,21.314a.99.99,0,0,0-.134-.208,90.05,90.05,0,0,1-15.736-22.017,1,1,0,0,0-1.554-.2,124.392,124.392,0,0,0-20.607,23.548c-4.336-7.842-8.783-15.624-13.173-23.436a.977.977,0,0,0-1.52-.2,110.384,110.384,0,0,0-16.858,23.2.712.712,0,0,0,.016.734.634.634,0,0,0,.563.9c2.589.064,5.222.249,7.808.109a.744.744,0,0,0,.164-.04.447.447,0,0,0,.247-.066,26.725,26.725,0,0,0,8.379-8.664c3.3,7.977,7.378,15.671,11.156,23.418a.936.936,0,0,0,1.458.188c7.438-7.286,14.842-14.629,21.981-22.211,5.15,6.738,10.586,13.2,15.358,20.231a.987.987,0,0,0,1.532.2q12.921-14.6,25.794-29.251a.942.942,0,0,0,.227-.816A.809.809,0,0,0,397.306,362.9Zm-26.523,28.368c-4.674-6.788-9.676-13.527-15.679-19.19a.907.907,0,0,0-1.538-.64c-7.121,7.249-14.2,14.528-21.448,21.656-3.71-7.6-7.24-15.38-11.49-22.7.024-.045.052-.088.075-.133a.786.786,0,0,0-.952-1.108c-.358-.1-.821.187-.654.612.008.019.017.038.024.057a46.751,46.751,0,0,1-7.68,9.248.8.8,0,0,0-.336-.092c-2.251-.122-4.534,0-6.8.077a139.785,139.785,0,0,1,15.759-21.187c4.275,7.694,8.5,15.415,12.844,23.072a1.02,1.02,0,0,0,1.869-.336.786.786,0,0,0,.629-.332A143.643,143.643,0,0,1,355.3,357.922a86.537,86.537,0,0,0,15.428,21.365.911.911,0,0,0,1.036.223.66.66,0,0,0,1.068.132c6.931-6.767,13.545-14.023,19.909-21.328.852,1.677,1.771,3.335,2.757,4.939Q383.08,377.212,370.783,391.272Z" transform="translate(-302.624 -355.263)" fill="#f0f0f0"/>
</svg>
