<svg xmlns="http://www.w3.org/2000/svg" width="101" height="95" viewBox="0 0 101 95">
  <g id="Group_1295" data-name="Group 1295" transform="translate(-1213 -423)">
    <circle id="Ellipse_69" data-name="Ellipse 69" cx="2.5" cy="2.5" r="2.5" transform="translate(1261 453)" fill="#f0f0f0"/>
    <circle id="Ellipse_84" data-name="Ellipse 84" cx="2.5" cy="2.5" r="2.5" transform="translate(1273 453)" fill="#f0f0f0"/>
    <circle id="Ellipse_106" data-name="Ellipse 106" cx="2.5" cy="2.5" r="2.5" transform="translate(1285 453)" fill="#f0f0f0"/>
    <circle id="Ellipse_121" data-name="Ellipse 121" cx="2.5" cy="2.5" r="2.5" transform="translate(1297 453)" fill="#f0f0f0"/>
    <circle id="Ellipse_127" data-name="Ellipse 127" cx="2.5" cy="2.5" r="2.5" transform="translate(1225 453)" fill="#f0f0f0"/>
    <circle id="Ellipse_94" data-name="Ellipse 94" cx="2.5" cy="2.5" r="2.5" transform="translate(1249 453)" fill="#f0f0f0"/>
    <circle id="Ellipse_75" data-name="Ellipse 75" cx="2.5" cy="2.5" r="2.5" transform="translate(1261 483)" fill="#f0f0f0"/>
    <circle id="Ellipse_87" data-name="Ellipse 87" cx="2.5" cy="2.5" r="2.5" transform="translate(1273 483)" fill="#f0f0f0"/>
    <circle id="Ellipse_103" data-name="Ellipse 103" cx="2.5" cy="2.5" r="2.5" transform="translate(1285 483)" fill="#f0f0f0"/>
    <circle id="Ellipse_118" data-name="Ellipse 118" cx="2.5" cy="2.5" r="2.5" transform="translate(1297 483)" fill="#f0f0f0"/>
    <circle id="Ellipse_129" data-name="Ellipse 129" cx="2.5" cy="2.5" r="2.5" transform="translate(1309 476)" fill="#f0f0f0"/>
    <circle id="Ellipse_133" data-name="Ellipse 133" cx="2.5" cy="2.5" r="2.5" transform="translate(1213 476)" fill="#f0f0f0"/>
    <circle id="Ellipse_124" data-name="Ellipse 124" cx="2.5" cy="2.5" r="2.5" transform="translate(1225 483)" fill="#f0f0f0"/>
    <circle id="Ellipse_97" data-name="Ellipse 97" cx="2.5" cy="2.5" r="2.5" transform="translate(1249 483)" fill="#f0f0f0"/>
    <circle id="Ellipse_79" data-name="Ellipse 79" cx="2.5" cy="2.5" r="2.5" transform="translate(1261 513)" fill="#f0f0f0"/>
    <circle id="Ellipse_90" data-name="Ellipse 90" cx="2.5" cy="2.5" r="2.5" transform="translate(1273 513)" fill="#f0f0f0"/>
    <circle id="Ellipse_100" data-name="Ellipse 100" cx="2.5" cy="2.5" r="2.5" transform="translate(1249 513)" fill="#f0f0f0"/>
    <circle id="Ellipse_73" data-name="Ellipse 73" cx="2.5" cy="2.5" r="2.5" transform="translate(1261 423)" fill="#f0f0f0"/>
    <circle id="Ellipse_81" data-name="Ellipse 81" cx="2.5" cy="2.5" r="2.5" transform="translate(1273 423)" fill="#f0f0f0"/>
    <circle id="Ellipse_91" data-name="Ellipse 91" cx="2.5" cy="2.5" r="2.5" transform="translate(1249 423)" fill="#f0f0f0"/>
    <circle id="Ellipse_70" data-name="Ellipse 70" cx="2.5" cy="2.5" r="2.5" transform="translate(1261 443)" fill="#f0f0f0"/>
    <circle id="Ellipse_82" data-name="Ellipse 82" cx="2.5" cy="2.5" r="2.5" transform="translate(1273 443)" fill="#f0f0f0"/>
    <circle id="Ellipse_107" data-name="Ellipse 107" cx="2.5" cy="2.5" r="2.5" transform="translate(1285 443)" fill="#f0f0f0"/>
    <circle id="Ellipse_122" data-name="Ellipse 122" cx="2.5" cy="2.5" r="2.5" transform="translate(1297 443)" fill="#f0f0f0"/>
    <circle id="Ellipse_128" data-name="Ellipse 128" cx="2.5" cy="2.5" r="2.5" transform="translate(1225 443)" fill="#f0f0f0"/>
    <circle id="Ellipse_92" data-name="Ellipse 92" cx="2.5" cy="2.5" r="2.5" transform="translate(1249 443)" fill="#f0f0f0"/>
    <circle id="Ellipse_76" data-name="Ellipse 76" cx="2.5" cy="2.5" r="2.5" transform="translate(1261 473)" fill="#f0f0f0"/>
    <circle id="Ellipse_86" data-name="Ellipse 86" cx="2.5" cy="2.5" r="2.5" transform="translate(1273 473)" fill="#f0f0f0"/>
    <circle id="Ellipse_104" data-name="Ellipse 104" cx="2.5" cy="2.5" r="2.5" transform="translate(1285 473)" fill="#f0f0f0"/>
    <circle id="Ellipse_119" data-name="Ellipse 119" cx="2.5" cy="2.5" r="2.5" transform="translate(1297 473)" fill="#f0f0f0"/>
    <circle id="Ellipse_130" data-name="Ellipse 130" cx="2.5" cy="2.5" r="2.5" transform="translate(1309 466)" fill="#f0f0f0"/>
    <circle id="Ellipse_134" data-name="Ellipse 134" cx="2.5" cy="2.5" r="2.5" transform="translate(1213 466)" fill="#f0f0f0"/>
    <circle id="Ellipse_125" data-name="Ellipse 125" cx="2.5" cy="2.5" r="2.5" transform="translate(1225 473)" fill="#f0f0f0"/>
    <circle id="Ellipse_96" data-name="Ellipse 96" cx="2.5" cy="2.5" r="2.5" transform="translate(1249 473)" fill="#f0f0f0"/>
    <circle id="Ellipse_78" data-name="Ellipse 78" cx="2.5" cy="2.5" r="2.5" transform="translate(1261 503)" fill="#f0f0f0"/>
    <circle id="Ellipse_89" data-name="Ellipse 89" cx="2.5" cy="2.5" r="2.5" transform="translate(1273 503)" fill="#f0f0f0"/>
    <circle id="Ellipse_101" data-name="Ellipse 101" cx="2.5" cy="2.5" r="2.5" transform="translate(1285 503)" fill="#f0f0f0"/>
    <circle id="Ellipse_99" data-name="Ellipse 99" cx="2.5" cy="2.5" r="2.5" transform="translate(1249 503)" fill="#f0f0f0"/>
    <circle id="Ellipse_71" data-name="Ellipse 71" cx="2.5" cy="2.5" r="2.5" transform="translate(1261 463)" fill="#f0f0f0"/>
    <circle id="Ellipse_85" data-name="Ellipse 85" cx="2.5" cy="2.5" r="2.5" transform="translate(1273 463)" fill="#f0f0f0"/>
    <circle id="Ellipse_105" data-name="Ellipse 105" cx="2.5" cy="2.5" r="2.5" transform="translate(1285 463)" fill="#f0f0f0"/>
    <circle id="Ellipse_120" data-name="Ellipse 120" cx="2.5" cy="2.5" r="2.5" transform="translate(1297 463)" fill="#f0f0f0"/>
    <circle id="Ellipse_131" data-name="Ellipse 131" cx="2.5" cy="2.5" r="2.5" transform="translate(1309 456)" fill="#f0f0f0"/>
    <circle id="Ellipse_135" data-name="Ellipse 135" cx="2.5" cy="2.5" r="2.5" transform="translate(1213 456)" fill="#f0f0f0"/>
    <circle id="Ellipse_126" data-name="Ellipse 126" cx="2.5" cy="2.5" r="2.5" transform="translate(1225 463)" fill="#f0f0f0"/>
    <circle id="Ellipse_95" data-name="Ellipse 95" cx="2.5" cy="2.5" r="2.5" transform="translate(1249 463)" fill="#f0f0f0"/>
    <circle id="Ellipse_77" data-name="Ellipse 77" cx="2.5" cy="2.5" r="2.5" transform="translate(1261 493)" fill="#f0f0f0"/>
    <circle id="Ellipse_88" data-name="Ellipse 88" cx="2.5" cy="2.5" r="2.5" transform="translate(1273 493)" fill="#f0f0f0"/>
    <circle id="Ellipse_102" data-name="Ellipse 102" cx="2.5" cy="2.5" r="2.5" transform="translate(1285 493)" fill="#f0f0f0"/>
    <circle id="Ellipse_117" data-name="Ellipse 117" cx="2.5" cy="2.5" r="2.5" transform="translate(1297 493)" fill="#f0f0f0"/>
    <circle id="Ellipse_123" data-name="Ellipse 123" cx="2.5" cy="2.5" r="2.5" transform="translate(1225 493)" fill="#f0f0f0"/>
    <circle id="Ellipse_98" data-name="Ellipse 98" cx="2.5" cy="2.5" r="2.5" transform="translate(1249 493)" fill="#f0f0f0"/>
    <circle id="Ellipse_74" data-name="Ellipse 74" cx="2.5" cy="2.5" r="2.5" transform="translate(1261 433)" fill="#f0f0f0"/>
    <circle id="Ellipse_83" data-name="Ellipse 83" cx="2.5" cy="2.5" r="2.5" transform="translate(1273 433)" fill="#f0f0f0"/>
    <circle id="Ellipse_108" data-name="Ellipse 108" cx="2.5" cy="2.5" r="2.5" transform="translate(1285 433)" fill="#f0f0f0"/>
    <circle id="Ellipse_93" data-name="Ellipse 93" cx="2.5" cy="2.5" r="2.5" transform="translate(1249 433)" fill="#f0f0f0"/>
  </g>
</svg>
