<svg xmlns="http://www.w3.org/2000/svg" width="136.507" height="76.808" viewBox="0 0 136.507 76.808">
  <g id="Group_755" data-name="Group 755" transform="translate(-1191.098 -247.235)">
    <g id="Group_746" data-name="Group 746" transform="translate(2.44 152)">
      <g id="Group_737" data-name="Group 737" transform="translate(1170.029 239.235)">
        <path id="Path_3148" data-name="Path 3148" d="M118.335,145.888c-4.932,0-7.444-2.3-9.66-4.327-2-1.832-3.582-3.279-6.96-3.279s-4.959,1.447-6.96,3.279c-2.216,2.028-4.728,4.327-9.66,4.327s-7.444-2.3-9.66-4.327c-2-1.832-3.582-3.279-6.96-3.279s-4.958,1.447-6.959,3.279c-2.216,2.028-4.728,4.327-9.66,4.327s-7.443-2.3-9.659-4.327c-2-1.832-3.581-3.279-6.959-3.279s-4.958,1.447-6.959,3.279c-2.216,2.028-4.728,4.327-9.66,4.327s-7.471-2.539-9.687-4.568c-2-1.832-3.582-3.279-6.96-3.279-1.1,0-1.351-.4-1.344-.888S.9,136.08,2,136.08c4.932,0,7.444,2.3,9.66,4.327,2,1.832,3.582,3.279,6.96,3.279s4.958-1.447,6.959-3.278c2.216-2.029,4.728-4.328,9.66-4.328s7.443,2.3,9.659,4.328c2,1.832,3.581,3.278,6.958,3.278s4.959-1.447,6.96-3.278c2.216-2.029,4.728-4.328,9.66-4.328s7.444,2.3,9.66,4.328c2,1.831,3.582,3.278,6.96,3.278s4.959-1.447,6.96-3.278c2.216-2.029,4.728-4.328,9.66-4.328s7.444,2.3,9.66,4.328c2,1.831,3.582,3.278,6.96,3.278s4.96-1.447,6.961-3.279c2.216-2.028,4.729-4.327,9.661-4.327,1.1,0,2.178.014,2.178,1.118s-1.074,1.084-2.178,1.084c-3.379,0-4.96,1.447-6.961,3.279C125.779,143.589,123.268,145.888,118.335,145.888Z" transform="translate(18 -280.08)" fill="#f0f0f0"/>
        <path id="Path_3149" data-name="Path 3149" d="M118.335,145.888c-4.932,0-7.444-2.3-9.66-4.327-2-1.832-3.582-3.279-6.96-3.279s-4.959,1.447-6.96,3.279c-2.216,2.028-4.728,4.327-9.66,4.327s-7.444-2.3-9.66-4.327c-2-1.832-3.582-3.279-6.96-3.279s-4.958,1.447-6.959,3.279c-2.216,2.028-4.728,4.327-9.66,4.327s-7.443-2.3-9.659-4.327c-2-1.832-3.581-3.279-6.959-3.279s-4.958,1.447-6.959,3.279c-2.216,2.028-4.728,4.327-9.66,4.327s-7.471-2.539-9.687-4.568c-2-1.832-3.582-3.279-6.96-3.279-1.1,0-1.351-.4-1.344-.888S.9,136.08,2,136.08c4.932,0,7.444,2.3,9.66,4.327,2,1.832,3.582,3.279,6.96,3.279s4.958-1.447,6.959-3.278c2.216-2.029,4.728-4.328,9.66-4.328s7.443,2.3,9.659,4.328c2,1.832,3.581,3.278,6.958,3.278s4.959-1.447,6.96-3.278c2.216-2.029,4.728-4.328,9.66-4.328s7.444,2.3,9.66,4.328c2,1.831,3.582,3.278,6.96,3.278s4.959-1.447,6.96-3.278c2.216-2.029,4.728-4.328,9.66-4.328s7.444,2.3,9.66,4.328c2,1.831,3.582,3.278,6.96,3.278s4.96-1.447,6.961-3.279c2.216-2.028,4.729-4.327,9.661-4.327,1.1,0,2.178.014,2.178,1.118s-1.074,1.084-2.178,1.084c-3.379,0-4.96,1.447-6.961,3.279C125.779,143.589,123.268,145.888,118.335,145.888Z" transform="translate(18 -267.08)" fill="#f0f0f0"/>
      </g>
      <g id="Group_744" data-name="Group 744" transform="translate(1170.029 266.235)">
        <path id="Path_3148-2" data-name="Path 3148" d="M118.335,145.888c-4.932,0-7.444-2.3-9.66-4.327-2-1.832-3.582-3.279-6.96-3.279s-4.959,1.447-6.96,3.279c-2.216,2.028-4.728,4.327-9.66,4.327s-7.444-2.3-9.66-4.327c-2-1.832-3.582-3.279-6.96-3.279s-4.958,1.447-6.959,3.279c-2.216,2.028-4.728,4.327-9.66,4.327s-7.443-2.3-9.659-4.327c-2-1.832-3.581-3.279-6.959-3.279s-4.958,1.447-6.959,3.279c-2.216,2.028-4.728,4.327-9.66,4.327s-7.471-2.539-9.687-4.568c-2-1.832-3.582-3.279-6.96-3.279-1.1,0-1.351-.4-1.344-.888S.9,136.08,2,136.08c4.932,0,7.444,2.3,9.66,4.327,2,1.832,3.582,3.279,6.96,3.279s4.958-1.447,6.959-3.278c2.216-2.029,4.728-4.328,9.66-4.328s7.443,2.3,9.659,4.328c2,1.832,3.581,3.278,6.958,3.278s4.959-1.447,6.96-3.278c2.216-2.029,4.728-4.328,9.66-4.328s7.444,2.3,9.66,4.328c2,1.831,3.582,3.278,6.96,3.278s4.959-1.447,6.96-3.278c2.216-2.029,4.728-4.328,9.66-4.328s7.444,2.3,9.66,4.328c2,1.831,3.582,3.278,6.96,3.278s4.96-1.447,6.961-3.279c2.216-2.028,4.729-4.327,9.661-4.327,1.1,0,2.178.014,2.178,1.118s-1.074,1.084-2.178,1.084c-3.379,0-4.96,1.447-6.961,3.279C125.779,143.589,123.268,145.888,118.335,145.888Z" transform="translate(18 -280.08)" fill="#f0f0f0"/>
        <path id="Path_3149-2" data-name="Path 3149" d="M118.335,145.888c-4.932,0-7.444-2.3-9.66-4.327-2-1.832-3.582-3.279-6.96-3.279s-4.959,1.447-6.96,3.279c-2.216,2.028-4.728,4.327-9.66,4.327s-7.444-2.3-9.66-4.327c-2-1.832-3.582-3.279-6.96-3.279s-4.958,1.447-6.959,3.279c-2.216,2.028-4.728,4.327-9.66,4.327s-7.443-2.3-9.659-4.327c-2-1.832-3.581-3.279-6.959-3.279s-4.958,1.447-6.959,3.279c-2.216,2.028-4.728,4.327-9.66,4.327s-7.471-2.539-9.687-4.568c-2-1.832-3.582-3.279-6.96-3.279-1.1,0-1.351-.4-1.344-.888S.9,136.08,2,136.08c4.932,0,7.444,2.3,9.66,4.327,2,1.832,3.582,3.279,6.96,3.279s4.958-1.447,6.959-3.278c2.216-2.029,4.728-4.328,9.66-4.328s7.443,2.3,9.659,4.328c2,1.832,3.581,3.278,6.958,3.278s4.959-1.447,6.96-3.278c2.216-2.029,4.728-4.328,9.66-4.328s7.444,2.3,9.66,4.328c2,1.831,3.582,3.278,6.96,3.278s4.959-1.447,6.96-3.278c2.216-2.029,4.728-4.328,9.66-4.328s7.444,2.3,9.66,4.328c2,1.831,3.582,3.278,6.96,3.278s4.96-1.447,6.961-3.279c2.216-2.028,4.729-4.327,9.661-4.327,1.1,0,2.178.014,2.178,1.118s-1.074,1.084-2.178,1.084c-3.379,0-4.96,1.447-6.961,3.279C125.779,143.589,123.268,145.888,118.335,145.888Z" transform="translate(18 -267.08)" fill="#f0f0f0"/>
      </g>
      <g id="Group_745" data-name="Group 745" transform="translate(1170.029 293.235)">
        <path id="Path_3148-3" data-name="Path 3148" d="M118.335,145.888c-4.932,0-7.444-2.3-9.66-4.327-2-1.832-3.582-3.279-6.96-3.279s-4.959,1.447-6.96,3.279c-2.216,2.028-4.728,4.327-9.66,4.327s-7.444-2.3-9.66-4.327c-2-1.832-3.582-3.279-6.96-3.279s-4.958,1.447-6.959,3.279c-2.216,2.028-4.728,4.327-9.66,4.327s-7.443-2.3-9.659-4.327c-2-1.832-3.581-3.279-6.959-3.279s-4.958,1.447-6.959,3.279c-2.216,2.028-4.728,4.327-9.66,4.327s-7.471-2.539-9.687-4.568c-2-1.832-3.582-3.279-6.96-3.279-1.1,0-1.351-.4-1.344-.888S.9,136.08,2,136.08c4.932,0,7.444,2.3,9.66,4.327,2,1.832,3.582,3.279,6.96,3.279s4.958-1.447,6.959-3.278c2.216-2.029,4.728-4.328,9.66-4.328s7.443,2.3,9.659,4.328c2,1.832,3.581,3.278,6.958,3.278s4.959-1.447,6.96-3.278c2.216-2.029,4.728-4.328,9.66-4.328s7.444,2.3,9.66,4.328c2,1.831,3.582,3.278,6.96,3.278s4.959-1.447,6.96-3.278c2.216-2.029,4.728-4.328,9.66-4.328s7.444,2.3,9.66,4.328c2,1.831,3.582,3.278,6.96,3.278s4.96-1.447,6.961-3.279c2.216-2.028,4.729-4.327,9.661-4.327,1.1,0,2.178.014,2.178,1.118s-1.074,1.084-2.178,1.084c-3.379,0-4.96,1.447-6.961,3.279C125.779,143.589,123.268,145.888,118.335,145.888Z" transform="translate(18 -280.08)" fill="#f0f0f0"/>
        <path id="Path_3149-3" data-name="Path 3149" d="M118.335,145.888c-4.932,0-7.444-2.3-9.66-4.327-2-1.832-3.582-3.279-6.96-3.279s-4.959,1.447-6.96,3.279c-2.216,2.028-4.728,4.327-9.66,4.327s-7.444-2.3-9.66-4.327c-2-1.832-3.582-3.279-6.96-3.279s-4.958,1.447-6.959,3.279c-2.216,2.028-4.728,4.327-9.66,4.327s-7.443-2.3-9.659-4.327c-2-1.832-3.581-3.279-6.959-3.279s-4.958,1.447-6.959,3.279c-2.216,2.028-4.728,4.327-9.66,4.327s-7.471-2.539-9.687-4.568c-2-1.832-3.582-3.279-6.96-3.279-1.1,0-1.351-.4-1.344-.888S.9,136.08,2,136.08c4.932,0,7.444,2.3,9.66,4.327,2,1.832,3.582,3.279,6.96,3.279s4.958-1.447,6.959-3.278c2.216-2.029,4.728-4.328,9.66-4.328s7.443,2.3,9.659,4.328c2,1.832,3.581,3.278,6.958,3.278s4.959-1.447,6.96-3.278c2.216-2.029,4.728-4.328,9.66-4.328s7.444,2.3,9.66,4.328c2,1.831,3.582,3.278,6.96,3.278s4.959-1.447,6.96-3.278c2.216-2.029,4.728-4.328,9.66-4.328s7.444,2.3,9.66,4.328c2,1.831,3.582,3.278,6.96,3.278s4.96-1.447,6.961-3.279c2.216-2.028,4.729-4.327,9.661-4.327,1.1,0,2.178.014,2.178,1.118s-1.074,1.084-2.178,1.084c-3.379,0-4.96,1.447-6.961,3.279C125.779,143.589,123.268,145.888,118.335,145.888Z" transform="translate(18 -267.08)" fill="#f0f0f0"/>
      </g>
    </g>
  </g>
</svg>
