<svg xmlns="http://www.w3.org/2000/svg" width="45" height="77" viewBox="0 0 45 77">
  <g id="Group_1127" data-name="Group 1127" transform="translate(1483 -843) rotate(90)">
    <circle id="Ellipse_69" data-name="Ellipse 69" cx="2.5" cy="2.5" r="2.5" transform="translate(879 1458)" fill="#f0f0f0"/>
    <circle id="Ellipse_84" data-name="Ellipse 84" cx="2.5" cy="2.5" r="2.5" transform="translate(891 1458)" fill="#f0f0f0"/>
    <circle id="Ellipse_106" data-name="Ellipse 106" cx="2.5" cy="2.5" r="2.5" transform="translate(903 1458)" fill="#f0f0f0"/>
    <circle id="Ellipse_121" data-name="Ellipse 121" cx="2.5" cy="2.5" r="2.5" transform="translate(915 1458)" fill="#f0f0f0"/>
    <circle id="Ellipse_127" data-name="Ellipse 127" cx="2.5" cy="2.5" r="2.5" transform="translate(843 1458)" fill="#f0f0f0"/>
    <circle id="Ellipse_114" data-name="Ellipse 114" cx="2.5" cy="2.5" r="2.5" transform="translate(855 1458)" fill="#f0f0f0"/>
    <circle id="Ellipse_94" data-name="Ellipse 94" cx="2.5" cy="2.5" r="2.5" transform="translate(867 1458)" fill="#f0f0f0"/>
    <circle id="Ellipse_70" data-name="Ellipse 70" cx="2.5" cy="2.5" r="2.5" transform="translate(879 1468)" fill="#f0f0f0"/>
    <circle id="Ellipse_82" data-name="Ellipse 82" cx="2.5" cy="2.5" r="2.5" transform="translate(891 1468)" fill="#f0f0f0"/>
    <circle id="Ellipse_107" data-name="Ellipse 107" cx="2.5" cy="2.5" r="2.5" transform="translate(903 1468)" fill="#f0f0f0"/>
    <circle id="Ellipse_122" data-name="Ellipse 122" cx="2.5" cy="2.5" r="2.5" transform="translate(915 1468)" fill="#f0f0f0"/>
    <circle id="Ellipse_147" data-name="Ellipse 147" cx="2.5" cy="2.5" r="2.5" transform="translate(915 1478)" fill="#f0f0f0"/>
    <circle id="Ellipse_128" data-name="Ellipse 128" cx="2.5" cy="2.5" r="2.5" transform="translate(843 1468)" fill="#f0f0f0"/>
    <circle id="Ellipse_148" data-name="Ellipse 148" cx="2.5" cy="2.5" r="2.5" transform="translate(843 1478)" fill="#f0f0f0"/>
    <circle id="Ellipse_115" data-name="Ellipse 115" cx="2.5" cy="2.5" r="2.5" transform="translate(855 1468)" fill="#f0f0f0"/>
    <circle id="Ellipse_92" data-name="Ellipse 92" cx="2.5" cy="2.5" r="2.5" transform="translate(867 1468)" fill="#f0f0f0"/>
    <circle id="Ellipse_76" data-name="Ellipse 76" cx="2.5" cy="2.5" r="2.5" transform="translate(879 1438)" fill="#f0f0f0"/>
    <circle id="Ellipse_86" data-name="Ellipse 86" cx="2.5" cy="2.5" r="2.5" transform="translate(891 1438)" fill="#f0f0f0"/>
    <circle id="Ellipse_104" data-name="Ellipse 104" cx="2.5" cy="2.5" r="2.5" transform="translate(903 1438)" fill="#f0f0f0"/>
    <circle id="Ellipse_119" data-name="Ellipse 119" cx="2.5" cy="2.5" r="2.5" transform="translate(915 1438)" fill="#f0f0f0"/>
    <circle id="Ellipse_125" data-name="Ellipse 125" cx="2.5" cy="2.5" r="2.5" transform="translate(843 1438)" fill="#f0f0f0"/>
    <circle id="Ellipse_112" data-name="Ellipse 112" cx="2.5" cy="2.5" r="2.5" transform="translate(855 1438)" fill="#f0f0f0"/>
    <circle id="Ellipse_96" data-name="Ellipse 96" cx="2.5" cy="2.5" r="2.5" transform="translate(867 1438)" fill="#f0f0f0"/>
    <circle id="Ellipse_71" data-name="Ellipse 71" cx="2.5" cy="2.5" r="2.5" transform="translate(879 1448)" fill="#f0f0f0"/>
    <circle id="Ellipse_85" data-name="Ellipse 85" cx="2.5" cy="2.5" r="2.5" transform="translate(891 1448)" fill="#f0f0f0"/>
    <circle id="Ellipse_105" data-name="Ellipse 105" cx="2.5" cy="2.5" r="2.5" transform="translate(903 1448)" fill="#f0f0f0"/>
    <circle id="Ellipse_120" data-name="Ellipse 120" cx="2.5" cy="2.5" r="2.5" transform="translate(915 1448)" fill="#f0f0f0"/>
    <circle id="Ellipse_126" data-name="Ellipse 126" cx="2.5" cy="2.5" r="2.5" transform="translate(843 1448)" fill="#f0f0f0"/>
    <circle id="Ellipse_113" data-name="Ellipse 113" cx="2.5" cy="2.5" r="2.5" transform="translate(855 1448)" fill="#f0f0f0"/>
    <circle id="Ellipse_95" data-name="Ellipse 95" cx="2.5" cy="2.5" r="2.5" transform="translate(867 1448)" fill="#f0f0f0"/>
    <circle id="Ellipse_74" data-name="Ellipse 74" cx="2.5" cy="2.5" r="2.5" transform="translate(879 1478)" fill="#f0f0f0"/>
    <circle id="Ellipse_83" data-name="Ellipse 83" cx="2.5" cy="2.5" r="2.5" transform="translate(891 1478)" fill="#f0f0f0"/>
    <circle id="Ellipse_108" data-name="Ellipse 108" cx="2.5" cy="2.5" r="2.5" transform="translate(903 1478)" fill="#f0f0f0"/>
    <circle id="Ellipse_116" data-name="Ellipse 116" cx="2.5" cy="2.5" r="2.5" transform="translate(855 1478)" fill="#f0f0f0"/>
    <circle id="Ellipse_93" data-name="Ellipse 93" cx="2.5" cy="2.5" r="2.5" transform="translate(867 1478)" fill="#f0f0f0"/>
  </g>
</svg>
