<svg xmlns="http://www.w3.org/2000/svg" width="93.521" height="85.034" viewBox="0 0 93.521 85.034">
  <g id="Group_1126" data-name="Group 1126" transform="translate(-307.15 -124.759)">
    <path id="Path_4635" data-name="Path 4635" d="M398.614,127.023c.071-.105.14-.211.211-.316a.82.82,0,0,0-.6-1.27.627.627,0,0,0-.73-.662,17.492,17.492,0,0,0-2.328.782.807.807,0,0,0-.423.051c-28.652,11.318-57.823,21.513-86.264,33.335-.015.006-.023.018-.038.025a.839.839,0,0,0-1.04,1.3c.126.131.255.258.381.389a20.732,20.732,0,0,0,.853,9.439.511.511,0,0,0-.156.848c13.467,14.086,28.873,26.805,44.308,38.667.734.564,1.446-.271,1.3-1.014a.549.549,0,0,0,.752-.155c8.29-11.432,15.3-23.937,22.787-35.91l21.748-34.8a.9.9,0,0,0,1.283-.958A56.652,56.652,0,0,0,398.614,127.023Zm-88.462,43.889a.63.63,0,0,0,.238-.623c-.33-2.718-.789-5.348-1.057-8.048,13.051,13.388,27.173,25.881,41.307,38.087a.966.966,0,0,0,.721.244.409.409,0,0,0,.473.418c.219,1.922.32,3.856.353,5.791C337.635,195.422,324.51,182.456,310.152,170.912Zm42.267,27.117a.9.9,0,0,0-.792.555c-14.41-12.54-28.151-25.729-42.155-38.705,28.987-9.513,57.38-21.336,85.748-32.53a.924.924,0,0,0,.59-.787q.639-.181,1.262-.4Q384.72,144.574,373,163.4q-5.779,9.3-11.4,18.7C358.526,187.252,354.892,192.486,352.419,198.029Zm23.767-26.343c-7.475,11.969-15.639,23.752-22.271,36.212a.591.591,0,0,0-.07.237.907.907,0,0,0-.12-.137c-.139-.107-.273-.219-.412-.326a29.112,29.112,0,0,0-.086-8.331c3.794-5.036,6.659-10.99,9.876-16.364q5.627-9.4,11.415-18.692,11.209-18.006,23.012-35.631a56.786,56.786,0,0,0,1.174,6.981Z"/>
    <path id="Path_4636" data-name="Path 4636" d="M385.748,134.731a.663.663,0,0,0-.73-.075c-10.3,5.076-20.55,10.191-31.111,14.722q-8.468,3.633-17.073,6.932c-4.823,1.849-10.424,3.1-14.785,5.88-.146.093-.1.374.1.354.122-.012.245-.04.368-.054a.66.66,0,0,0,.057.82c7.744,9.393,17.585,17.987,26.79,25.934a.924.924,0,0,0,1.4-.225.659.659,0,0,0,.525-.3c12-17.521,23.735-35.226,35.542-52.877C387.325,135.1,386.4,134.419,385.748,134.731ZM350.34,187.694c-6.826-6.527-13.575-13.449-20.609-19.868a.43.43,0,0,0,.171-.03c16.845-6.834,33.92-14.614,49.6-23.957C369.725,158.422,359.941,173,350.34,187.694Zm31.293-47.043a.77.77,0,0,0-.144.05c-16.722,9.985-34.789,17.108-51.971,26.185a.465.465,0,0,0-.207.562c-1.91-1.736-3.837-3.441-5.8-5.081-.011-.009-.023-.011-.034-.02,4.968-.808,9.952-3.274,14.589-5.047q7.47-2.856,14.835-5.982c10.665-4.513,21.294-9.321,31.5-14.807Z"/>
  </g>
</svg>
