<svg xmlns="http://www.w3.org/2000/svg" width="54.968" height="82.228" viewBox="0 0 54.968 82.228">
  <path id="Path_7418" data-name="Path 7418" d="M620.685,158.528c-1.8-.2-3.262-.491-4.726-.509-2.676-.036-5.353.071-8.029.157a3.628,3.628,0,0,0-1.291.348,2.423,2.423,0,0,0-1.488,3.286,12.255,12.255,0,0,0,1.951,3.272c2.923,3.494,5.931,6.918,8.922,10.354,4.759,5.464,9.477,10.964,14.31,16.361,5.437,6.072,10.969,12.062,16.5,18.054a47.108,47.108,0,0,0,3.519,3.283,7.272,7.272,0,0,0,1.593,1.065,1.848,1.848,0,0,0,2.306-.33,1.7,1.7,0,0,0,.172-2.133c-1.09-2.108-2.076-4.273-3.252-6.331-3.562-6.23-7.206-12.413-10.8-18.627-2.724-4.716-5.4-9.46-8.122-14.177-.831-1.439-1.745-2.829-2.593-4.258a5.683,5.683,0,0,1-.321-1.182c1.512.146,2.813.311,4.12.391,3.778.23,7.556.427,11.335.635a3.592,3.592,0,0,0,.385,0c1.443-.075,2.9-.231,3.616-1.711.7-1.448-.141-2.653-1.016-3.672q-5.209-6.056-10.527-12.017c-4.774-5.363-9.586-10.692-14.381-16.034-.916-2.267-2.674-2.635-4.922-2.509-5.249.295-10.51.381-15.767.544-1.021.031-1.975.24-2.332,1.326-.338,1.03.2,1.759.917,2.527q9.682,10.413,19.278,20.9A10.109,10.109,0,0,1,620.685,158.528Zm25.683,6.771a13.307,13.307,0,0,1-1.645.173c-3.392-.2-6.784-.389-10.172-.635-1.854-.134-3.7-.487-5.553-.531-2.49-.06-3.5,1.528-2.477,3.823a44.769,44.769,0,0,0,2.129,4.057q5.922,10.337,11.885,20.651c2.119,3.668,4.277,7.314,6.4,10.978.5.863.938,1.763,1.405,2.645a3.334,3.334,0,0,1-1.641-1.044c-4.894-5.353-9.81-10.688-14.653-16.086-4.755-5.3-9.448-10.653-14.139-16.009-2.991-3.416-5.937-6.874-8.883-10.33-.473-.555-.837-1.2-1.369-1.979a28.5,28.5,0,0,1,8.9-.4c1.977.227,3.956.486,5.94.6,1.794.1,2.551-1.237,1.65-2.809a9.243,9.243,0,0,0-1.172-1.522c-1.8-2.007-3.579-4.034-5.434-5.988-4.508-4.75-9.054-9.462-13.577-14.2-.365-.383-.67-.822-1.232-1.518,1.276-.093,2.153-.188,3.031-.216q5.1-.156,10.2-.27c1.086-.023,2.174.073,3.261.053a2.17,2.17,0,0,1,1.893,1.019c2.024,2.571,4.083,5.12,6.238,7.582,5.368,6.132,10.806,12.2,16.191,18.321C644.466,162.706,645.257,163.857,646.368,165.3Z" transform="translate(-599.742 -132.227)" fill="#f0f0f0"/>
</svg>
