<svg xmlns="http://www.w3.org/2000/svg" width="42" height="36.148" viewBox="0 0 42 36.148">
  <path id="Path_4490" data-name="Path 4490" d="M630.513,105.66c3.078-2.833,5.957-5.673,9.048-8.261a82.194,82.194,0,0,1,7.627-5.495,14.071,14.071,0,0,1,3.979-1.778c2.271-.622,3.556.573,3.231,2.9a7.458,7.458,0,0,1-.924,2.741c-2.191,3.644-4.339,7.325-6.757,10.818-3.254,4.7-6.7,9.263-10.154,13.817a41.267,41.267,0,0,1-3.924,4.279,3.953,3.953,0,0,1-5.836.269,51.235,51.235,0,0,1-5.215-5.121c-3.173-3.547-6.1-7.282-7.636-11.891a22.576,22.576,0,0,1-1.452-9.024,6.359,6.359,0,0,1,4.93-6,5.25,5.25,0,0,1,4.358.905,16.284,16.284,0,0,1,4.565,5.113C627.8,101.142,629.133,103.418,630.513,105.66Zm21.914-12.946-.485-.5a12.512,12.512,0,0,0-2.248.855c-2.015,1.238-4.029,2.49-5.936,3.884a70.737,70.737,0,0,0-11.1,10.12,1.962,1.962,0,0,0-.532,2.231c.453,1.255.222,1.4-1.228,1.641a1.349,1.349,0,0,0-.788.4c-.389.493-.89.906-1.373.432a2.792,2.792,0,0,1-.589-1.625,2.058,2.058,0,0,1,.427-1.156,1.478,1.478,0,0,0-.048-1.739c-1.772-2.912-3.472-5.87-5.3-8.746a10.613,10.613,0,0,0-2.268-2.433c-2.294-1.867-4.759-1.239-5.876,1.5a6.688,6.688,0,0,0-.431,2.649,20.994,20.994,0,0,0,1.78,7.9c2.553,5.793,6.651,10.4,11.337,14.546.053.046.108.09.162.131,1.551,1.157,2.069,1.159,3.436-.121a20.389,20.389,0,0,0,2.008-2.125,230.707,230.707,0,0,0,17.039-24.021C651.158,95.3,651.759,93.989,652.427,92.715Z" transform="translate(-612.449 -89.964)" fill="#f0f0f0"/>
</svg>
