<svg xmlns="http://www.w3.org/2000/svg" width="28.529" height="153.886" viewBox="0 0 28.529 153.886">
  <g id="Group_1188" data-name="Group 1188" transform="translate(-441.243 -62.831)">
    <path id="Path_4567" data-name="Path 4567" d="M469.379,109.556a167.415,167.415,0,0,0-10.226-46,1.033,1.033,0,0,0-1.974,0C452.667,78.547,447.446,93.277,442.14,108a.713.713,0,0,0-.039.341.954.954,0,0,0,.063,1.9c8.482.132,16.884.421,25.336,1.064.38.9,1.839.857,1.973-.135A1.126,1.126,0,0,0,469.379,109.556Zm-25.751-1.289c5.626-13.446,10.331-27.254,14.61-41.182a166.141,166.141,0,0,1,9,42.026A163.872,163.872,0,0,0,443.627,108.267Z" transform="translate(0 0)" fill="#f0f0f0"/>
    <path id="Path_4568" data-name="Path 4568" d="M469.379,140.515a167.415,167.415,0,0,0-10.226-46,1.033,1.033,0,0,0-1.974,0c-4.512,14.987-9.733,29.718-15.039,44.439a.713.713,0,0,0-.039.341.954.954,0,0,0,.063,1.9c8.482.133,16.884.421,25.336,1.064.38.9,1.839.859,1.973-.135A1.126,1.126,0,0,0,469.379,140.515Zm-25.751-1.289c5.626-13.445,10.331-27.253,14.61-41.182a166.152,166.152,0,0,1,9,42.027A164.032,164.032,0,0,0,443.627,139.226Z" transform="translate(0 3.47)" fill="#f0f0f0"/>
    <path id="Path_4569" data-name="Path 4569" d="M469.379,172.8a167.415,167.415,0,0,0-10.226-46,1.033,1.033,0,0,0-1.974,0c-4.512,14.987-9.733,29.718-15.039,44.439a.713.713,0,0,0-.039.341.954.954,0,0,0,.063,1.9c8.482.133,16.884.421,25.336,1.064.38.9,1.839.857,1.973-.135A1.126,1.126,0,0,0,469.379,172.8Zm-25.751-1.289c5.626-13.446,10.331-27.254,14.61-41.182a166.141,166.141,0,0,1,9,42.027A163.868,163.868,0,0,0,443.627,171.516Z" transform="translate(0 7.089)" fill="#f0f0f0"/>
    <path id="Path_4570" data-name="Path 4570" d="M469.379,203.764a167.415,167.415,0,0,0-10.226-46,1.033,1.033,0,0,0-1.974,0c-4.512,14.987-9.733,29.718-15.039,44.439a.716.716,0,0,0-.039.343.953.953,0,0,0,.063,1.9c8.482.133,16.884.421,25.336,1.064.38.9,1.839.859,1.973-.135A1.126,1.126,0,0,0,469.379,203.764Zm-25.751-1.289c5.626-13.445,10.331-27.253,14.61-41.182a166.152,166.152,0,0,1,9,42.027A164.039,164.039,0,0,0,443.627,202.475Z" transform="translate(0 10.559)" fill="#f0f0f0"/>
  </g>
</svg>
