<svg xmlns="http://www.w3.org/2000/svg" width="101" height="95" viewBox="0 0 101 95">
  <g id="Group_952" data-name="Group 952" transform="translate(-358 -456)">
    <circle id="Ellipse_69" data-name="Ellipse 69" cx="2.5" cy="2.5" r="2.5" transform="translate(406 486)" fill="#f0f0f0"/>
    <circle id="Ellipse_84" data-name="Ellipse 84" cx="2.5" cy="2.5" r="2.5" transform="translate(418 486)" fill="#f0f0f0"/>
    <circle id="Ellipse_106" data-name="Ellipse 106" cx="2.5" cy="2.5" r="2.5" transform="translate(430 486)" fill="#f0f0f0"/>
    <circle id="Ellipse_121" data-name="Ellipse 121" cx="2.5" cy="2.5" r="2.5" transform="translate(442 486)" fill="#f0f0f0"/>
    <circle id="Ellipse_127" data-name="Ellipse 127" cx="2.5" cy="2.5" r="2.5" transform="translate(370 486)" fill="#f0f0f0"/>
    <circle id="Ellipse_114" data-name="Ellipse 114" cx="2.5" cy="2.5" r="2.5" transform="translate(382 486)" fill="#f0f0f0"/>
    <circle id="Ellipse_94" data-name="Ellipse 94" cx="2.5" cy="2.5" r="2.5" transform="translate(394 486)" fill="#f0f0f0"/>
    <circle id="Ellipse_75" data-name="Ellipse 75" cx="2.5" cy="2.5" r="2.5" transform="translate(406 516)" fill="#f0f0f0"/>
    <circle id="Ellipse_87" data-name="Ellipse 87" cx="2.5" cy="2.5" r="2.5" transform="translate(418 516)" fill="#f0f0f0"/>
    <circle id="Ellipse_103" data-name="Ellipse 103" cx="2.5" cy="2.5" r="2.5" transform="translate(430 516)" fill="#f0f0f0"/>
    <circle id="Ellipse_118" data-name="Ellipse 118" cx="2.5" cy="2.5" r="2.5" transform="translate(442 516)" fill="#f0f0f0"/>
    <circle id="Ellipse_129" data-name="Ellipse 129" cx="2.5" cy="2.5" r="2.5" transform="translate(454 509)" fill="#f0f0f0"/>
    <circle id="Ellipse_133" data-name="Ellipse 133" cx="2.5" cy="2.5" r="2.5" transform="translate(358 509)" fill="#f0f0f0"/>
    <circle id="Ellipse_124" data-name="Ellipse 124" cx="2.5" cy="2.5" r="2.5" transform="translate(370 516)" fill="#f0f0f0"/>
    <circle id="Ellipse_111" data-name="Ellipse 111" cx="2.5" cy="2.5" r="2.5" transform="translate(382 516)" fill="#f0f0f0"/>
    <circle id="Ellipse_97" data-name="Ellipse 97" cx="2.5" cy="2.5" r="2.5" transform="translate(394 516)" fill="#f0f0f0"/>
    <circle id="Ellipse_79" data-name="Ellipse 79" cx="2.5" cy="2.5" r="2.5" transform="translate(406 546)" fill="#f0f0f0"/>
    <circle id="Ellipse_90" data-name="Ellipse 90" cx="2.5" cy="2.5" r="2.5" transform="translate(418 546)" fill="#f0f0f0"/>
    <circle id="Ellipse_100" data-name="Ellipse 100" cx="2.5" cy="2.5" r="2.5" transform="translate(394 546)" fill="#f0f0f0"/>
    <circle id="Ellipse_73" data-name="Ellipse 73" cx="2.5" cy="2.5" r="2.5" transform="translate(406 456)" fill="#f0f0f0"/>
    <circle id="Ellipse_81" data-name="Ellipse 81" cx="2.5" cy="2.5" r="2.5" transform="translate(418 456)" fill="#f0f0f0"/>
    <circle id="Ellipse_91" data-name="Ellipse 91" cx="2.5" cy="2.5" r="2.5" transform="translate(394 456)" fill="#f0f0f0"/>
    <circle id="Ellipse_70" data-name="Ellipse 70" cx="2.5" cy="2.5" r="2.5" transform="translate(406 476)" fill="#f0f0f0"/>
    <circle id="Ellipse_82" data-name="Ellipse 82" cx="2.5" cy="2.5" r="2.5" transform="translate(418 476)" fill="#f0f0f0"/>
    <circle id="Ellipse_107" data-name="Ellipse 107" cx="2.5" cy="2.5" r="2.5" transform="translate(430 476)" fill="#f0f0f0"/>
    <circle id="Ellipse_122" data-name="Ellipse 122" cx="2.5" cy="2.5" r="2.5" transform="translate(442 476)" fill="#f0f0f0"/>
    <circle id="Ellipse_128" data-name="Ellipse 128" cx="2.5" cy="2.5" r="2.5" transform="translate(370 476)" fill="#f0f0f0"/>
    <circle id="Ellipse_115" data-name="Ellipse 115" cx="2.5" cy="2.5" r="2.5" transform="translate(382 476)" fill="#f0f0f0"/>
    <circle id="Ellipse_92" data-name="Ellipse 92" cx="2.5" cy="2.5" r="2.5" transform="translate(394 476)" fill="#f0f0f0"/>
    <circle id="Ellipse_76" data-name="Ellipse 76" cx="2.5" cy="2.5" r="2.5" transform="translate(406 506)" fill="#f0f0f0"/>
    <circle id="Ellipse_86" data-name="Ellipse 86" cx="2.5" cy="2.5" r="2.5" transform="translate(418 506)" fill="#f0f0f0"/>
    <circle id="Ellipse_104" data-name="Ellipse 104" cx="2.5" cy="2.5" r="2.5" transform="translate(430 506)" fill="#f0f0f0"/>
    <circle id="Ellipse_119" data-name="Ellipse 119" cx="2.5" cy="2.5" r="2.5" transform="translate(442 506)" fill="#f0f0f0"/>
    <circle id="Ellipse_130" data-name="Ellipse 130" cx="2.5" cy="2.5" r="2.5" transform="translate(454 499)" fill="#f0f0f0"/>
    <circle id="Ellipse_134" data-name="Ellipse 134" cx="2.5" cy="2.5" r="2.5" transform="translate(358 499)" fill="#f0f0f0"/>
    <circle id="Ellipse_125" data-name="Ellipse 125" cx="2.5" cy="2.5" r="2.5" transform="translate(370 506)" fill="#f0f0f0"/>
    <circle id="Ellipse_112" data-name="Ellipse 112" cx="2.5" cy="2.5" r="2.5" transform="translate(382 506)" fill="#f0f0f0"/>
    <circle id="Ellipse_96" data-name="Ellipse 96" cx="2.5" cy="2.5" r="2.5" transform="translate(394 506)" fill="#f0f0f0"/>
    <circle id="Ellipse_78" data-name="Ellipse 78" cx="2.5" cy="2.5" r="2.5" transform="translate(406 536)" fill="#f0f0f0"/>
    <circle id="Ellipse_89" data-name="Ellipse 89" cx="2.5" cy="2.5" r="2.5" transform="translate(418 536)" fill="#f0f0f0"/>
    <circle id="Ellipse_101" data-name="Ellipse 101" cx="2.5" cy="2.5" r="2.5" transform="translate(430 536)" fill="#f0f0f0"/>
    <circle id="Ellipse_109" data-name="Ellipse 109" cx="2.5" cy="2.5" r="2.5" transform="translate(382 536)" fill="#f0f0f0"/>
    <circle id="Ellipse_99" data-name="Ellipse 99" cx="2.5" cy="2.5" r="2.5" transform="translate(394 536)" fill="#f0f0f0"/>
    <circle id="Ellipse_71" data-name="Ellipse 71" cx="2.5" cy="2.5" r="2.5" transform="translate(406 496)" fill="#f0f0f0"/>
    <circle id="Ellipse_85" data-name="Ellipse 85" cx="2.5" cy="2.5" r="2.5" transform="translate(418 496)" fill="#f0f0f0"/>
    <circle id="Ellipse_105" data-name="Ellipse 105" cx="2.5" cy="2.5" r="2.5" transform="translate(430 496)" fill="#f0f0f0"/>
    <circle id="Ellipse_120" data-name="Ellipse 120" cx="2.5" cy="2.5" r="2.5" transform="translate(442 496)" fill="#f0f0f0"/>
    <circle id="Ellipse_131" data-name="Ellipse 131" cx="2.5" cy="2.5" r="2.5" transform="translate(454 489)" fill="#f0f0f0"/>
    <circle id="Ellipse_135" data-name="Ellipse 135" cx="2.5" cy="2.5" r="2.5" transform="translate(358 489)" fill="#f0f0f0"/>
    <circle id="Ellipse_126" data-name="Ellipse 126" cx="2.5" cy="2.5" r="2.5" transform="translate(370 496)" fill="#f0f0f0"/>
    <circle id="Ellipse_113" data-name="Ellipse 113" cx="2.5" cy="2.5" r="2.5" transform="translate(382 496)" fill="#f0f0f0"/>
    <circle id="Ellipse_95" data-name="Ellipse 95" cx="2.5" cy="2.5" r="2.5" transform="translate(394 496)" fill="#f0f0f0"/>
    <circle id="Ellipse_77" data-name="Ellipse 77" cx="2.5" cy="2.5" r="2.5" transform="translate(406 526)" fill="#f0f0f0"/>
    <circle id="Ellipse_88" data-name="Ellipse 88" cx="2.5" cy="2.5" r="2.5" transform="translate(418 526)" fill="#f0f0f0"/>
    <circle id="Ellipse_102" data-name="Ellipse 102" cx="2.5" cy="2.5" r="2.5" transform="translate(430 526)" fill="#f0f0f0"/>
    <circle id="Ellipse_117" data-name="Ellipse 117" cx="2.5" cy="2.5" r="2.5" transform="translate(442 526)" fill="#f0f0f0"/>
    <circle id="Ellipse_123" data-name="Ellipse 123" cx="2.5" cy="2.5" r="2.5" transform="translate(370 526)" fill="#f0f0f0"/>
    <circle id="Ellipse_110" data-name="Ellipse 110" cx="2.5" cy="2.5" r="2.5" transform="translate(382 526)" fill="#f0f0f0"/>
    <circle id="Ellipse_98" data-name="Ellipse 98" cx="2.5" cy="2.5" r="2.5" transform="translate(394 526)" fill="#f0f0f0"/>
    <circle id="Ellipse_74" data-name="Ellipse 74" cx="2.5" cy="2.5" r="2.5" transform="translate(406 466)" fill="#f0f0f0"/>
    <circle id="Ellipse_83" data-name="Ellipse 83" cx="2.5" cy="2.5" r="2.5" transform="translate(418 466)" fill="#f0f0f0"/>
    <circle id="Ellipse_108" data-name="Ellipse 108" cx="2.5" cy="2.5" r="2.5" transform="translate(430 466)" fill="#f0f0f0"/>
    <circle id="Ellipse_116" data-name="Ellipse 116" cx="2.5" cy="2.5" r="2.5" transform="translate(382 466)" fill="#f0f0f0"/>
    <circle id="Ellipse_93" data-name="Ellipse 93" cx="2.5" cy="2.5" r="2.5" transform="translate(394 466)" fill="#f0f0f0"/>
  </g>
</svg>
