<svg xmlns="http://www.w3.org/2000/svg" width="150.125" height="127.868" viewBox="0 0 150.125 127.868">
  <g id="Group_1073" data-name="Group 1073" transform="translate(4358.793 4188.406)">
    <g id="Group_1072" data-name="Group 1072" transform="translate(-4363.294 -4192.506)">
      <g id="Group_1029" data-name="Group 1029" transform="matrix(0.105, 0.995, -0.995, 0.105, 144.004, 0)">
        <path id="Path_7445" data-name="Path 7445" d="M111.207,67.319a.8.8,0,0,0-.364-.273v-.02a5.543,5.543,0,0,0-.141-.544l-.219-.434a5.111,5.111,0,0,0-1.049-1.24,19.786,19.786,0,0,0-4.571-2.743c-1.552-.726-3.13-1.337-4.719-1.9-.628-.221-1.261-.413-1.89-.624.182-.225.362-.451.523-.69a6.664,6.664,0,0,0,.984-2.1c.412-1.537,1.554-2.651,2.422-3.951a21.471,21.471,0,0,0,1.163-2.051c.177-.377.361-.706.526-1.139a4.924,4.924,0,0,0,.428-1.563,4.7,4.7,0,0,0-.548-2.725,5.125,5.125,0,0,0-1.7-1.934.8.8,0,0,0-.457-.135,2.159,2.159,0,0,0-.266-.262,2.116,2.116,0,0,0-.484-.307,2.588,2.588,0,0,0-.385-.164,23.435,23.435,0,0,0-4.905-.882c-1.186-.12-2.364-.2-3.544-.277a44.506,44.506,0,0,0,3.132-8.635c.846-3.62,2.486-6.956,3.847-10.4,1.34-3.458,2.493-6.943,3.739-10.5a10.211,10.211,0,0,0,.718-3.045,8.735,8.735,0,0,0-.467-3.154A12.722,12.722,0,0,0,99.861.593a.723.723,0,0,0-.254-.14.834.834,0,0,0-.442-.424.8.8,0,0,0-.452.008l-.156.071c-.093.05-.135.086-.2.129-.113.081-.218.159-.311.239L97.5.957l-1.017.98-1.952,2L90.721,8.017l-7.5,8.234-13.91,15.5c-.541-1.476-1.106-2.938-1.742-4.388-.422-.945-.855-1.886-1.386-2.818a11.151,11.151,0,0,0-.945-1.4,2.732,2.732,0,0,0-.936-.733,1.341,1.341,0,0,0-.391-.131,1.506,1.506,0,0,0-.5.017,2.214,2.214,0,0,0-.636.248,10.242,10.242,0,0,0-2.392,2.407c-.648.828-1.226,1.685-1.8,2.541-.926,1.408-1.793,2.834-2.64,4.283-2.18-1.946-4.389-3.844-6.68-5.67-1.3-1.028-2.612-2.032-4-2.975a24.525,24.525,0,0,0-2.173-1.336,9.432,9.432,0,0,0-1.241-.561,3.95,3.95,0,0,0-.772-.189,1.8,1.8,0,0,0-1.135.177,2.9,2.9,0,0,0-1.061,1.36,11.37,11.37,0,0,0-.484,1.235c-.272.816-.487,1.624-.687,2.436-.4,1.62-.712,3.242-1.007,4.866-.529,2.963-.957,5.93-1.34,8.913-2.211-.512-4.418-1.011-6.638-1.474-2.51-.509-5.006-1.04-7.59-1.384a8.725,8.725,0,0,0-2.16-.072,4.019,4.019,0,0,0-.41.111,1.093,1.093,0,0,0-.49.485,1.313,1.313,0,0,0-.144.451,1.788,1.788,0,0,0-.03.347,5.449,5.449,0,0,0,.11,1.1,28.561,28.561,0,0,0,1.082,3.787c.742,2.134,1.576,4.214,2.448,6.288-2.616.478-5.225.972-7.829,1.522A69.1,69.1,0,0,0,4.915,53.46l-.592.266a4.543,4.543,0,0,0-.768.588,1.829,1.829,0,0,0-.329,1.279,3.943,3.943,0,0,0,.143.766,13.5,13.5,0,0,0,.957,2.247c.714,1.374,1.5,2.655,2.31,3.925,1.337,2.1,2.759,4.113,4.227,6.107-1.181.714-2.349,1.438-3.507,2.2a32.438,32.438,0,0,0-4.633,3.586,7.364,7.364,0,0,0-.583.661,3.143,3.143,0,0,0-.6,1.2,2.537,2.537,0,0,0-.027.663,3.559,3.559,0,0,0,.126.452,3.6,3.6,0,0,0,.182.433l.171.24a4.241,4.241,0,0,0,.688.759,14.665,14.665,0,0,0,2.558,1.752c1.213.681,2.431,1.267,3.664,1.83-1.423,2.265-2.8,4.546-4.1,6.89a46.317,46.317,0,0,0-4.071,9A8.828,8.828,0,0,0,.47,99.684a7.269,7.269,0,0,0-.02.739.749.749,0,0,0-.25.365A5.4,5.4,0,0,0,.18,103.63a5.218,5.218,0,0,0,1.479,2.579,5.87,5.87,0,0,0,2.834,1.665,7.33,7.33,0,0,0,2.9-.038c1.769-.355,3.287-1.2,5.037-1.244a7.413,7.413,0,0,0,2.5-.532l.056-.024c-.176.891-.373,1.778-.544,2.672-.335,1.775-.66,3.553-.951,5.345a43.649,43.649,0,0,0-.649,5.542,3.691,3.691,0,0,0,.122,1.017c.02.053.051.107.077.162a.759.759,0,0,0-.227.521A5.828,5.828,0,0,0,14,124.867a5.529,5.529,0,0,0,3.411,2.165,9.369,9.369,0,0,0,3.854-.06,22.662,22.662,0,0,0,3.3-.956c2.107-.808,4-2.006,6.2-2.449a12.928,12.928,0,0,0,3.138-1.093,16.792,16.792,0,0,0,2.242-1.318c.926,1.647,1.868,3.284,2.843,4.908,1.037,1.7,2.084,3.405,3.223,5.066.574.829,1.165,1.65,1.832,2.442a10.8,10.8,0,0,0,1.111,1.159,4.108,4.108,0,0,0,.622.454.755.755,0,0,0,.206.221,11.548,11.548,0,0,0,2.8,1.437,7.189,7.189,0,0,0,1.627.409,4,4,0,0,0,1.988-.186,2.926,2.926,0,0,0,.538-.277l.341-.249a6.143,6.143,0,0,0,.643-.523,9.842,9.842,0,0,0,1.083-1.133c.667-.786,1.252-1.606,1.848-2.413,1.2-1.6,2.52-3.079,3.813-4.594,1.1-1.246,2.119-2.553,3.1-3.894,1.084.479,2.164.95,3.26,1.4,1.387.564,2.752,1.187,4.175,1.743a16.249,16.249,0,0,0,2.235.708,8.088,8.088,0,0,0,1.344.194,3.962,3.962,0,0,0,1.661-.334,10.829,10.829,0,0,0,3.77-3.039.723.723,0,0,0,.134-.627l.029-.035.242-.439a6.466,6.466,0,0,0,.266-.714,12.469,12.469,0,0,0,.326-1.289c.171-.836.3-1.653.41-2.469.221-1.629.385-3.247.528-4.864.083-.962.146-1.921.216-2.881a8.538,8.538,0,0,0,4.495.926c1.7-.054,3.363.2,5.063.152.849-.015,1.7-.123,2.558-.177.428-.024.851-.027,1.291-.021l.675.032a2.685,2.685,0,0,0,.867-.015,3.521,3.521,0,0,0,2.434-2.086,5.591,5.591,0,0,0,.533-2.776.749.749,0,0,0-.2-.43c.006-.033.017-.072.021-.1a4.174,4.174,0,0,0-.194-1.491c-.113-.407-.242-.787-.382-1.157-.278-.739-.583-1.447-.9-2.144-.637-1.393-1.325-2.746-2.023-4.089-.448-.861-.914-1.707-1.375-2.556a6.183,6.183,0,0,0,2.974-.182c1.387-.413,2.819-.534,4.232-1.031a8.232,8.232,0,0,0,2.125-1.114,2.781,2.781,0,0,0,.591-.6,2.462,2.462,0,0,0,.3-.754c.119-.47.131-.885.2-1.309a4.209,4.209,0,0,0-.3-2.334,5.614,5.614,0,0,0-.938-1.51,1.783,1.783,0,0,0,0-.473,4.119,4.119,0,0,0-.3-1.008,8.1,8.1,0,0,0-.92-1.552,19.635,19.635,0,0,0-1.94-2.215c.255-.132.511-.263.753-.413a7.193,7.193,0,0,0,1.844-1.576c1.06-1.28,2.607-1.884,3.978-2.794a19.29,19.29,0,0,0,1.955-1.542,12.178,12.178,0,0,0,.956-.942,4.359,4.359,0,0,0,.512-.624,4.145,4.145,0,0,0,.439-.809,5.145,5.145,0,0,0,.419-2.774A5.417,5.417,0,0,0,111.207,67.319Zm-4.695,6.229a3.4,3.4,0,0,0-.418-.466c.18-.117.356-.242.535-.364a2.943,2.943,0,0,0,.464.95c.074.093.155.18.236.269l-.419.4A3.629,3.629,0,0,0,106.512,73.548Zm2.646-2.849c-.029.28-.051.547-.071.808a2.431,2.431,0,0,0-.451-.346c.173-.153.349-.3.518-.461ZM92.5,57.767c.553-.673,1.111-1.343,1.656-2.021a5.367,5.367,0,0,0,2.633,1.985,10.471,10.471,0,0,0-.5,1.157C95.036,58.491,93.771,58.123,92.5,57.767Zm8.582-11.383c.143.646.314,1.217.454,1.685,0,.009,0,.026,0,.035-.081-.084-.161-.173-.246-.254a5.963,5.963,0,0,0-.762-.571C100.721,46.991,100.9,46.69,101.084,46.384Zm-2.2,3.211c.143.155.295.3.451.443a5.927,5.927,0,0,0,1.261.825l-.392.888c-.062.152-.117.308-.174.461a5.248,5.248,0,0,0-1.775-1.764C98.465,50.166,98.676,49.881,98.884,49.6Zm-.735,6.224c-.029.029-.05.062-.078.092a5.5,5.5,0,0,0-1.1-1.4,5.216,5.216,0,0,0-1.2-.814c.264-.337.532-.67.795-1.01a6.394,6.394,0,0,0,.544.561,5.016,5.016,0,0,0,2.039,1.1A5.371,5.371,0,0,1,98.15,55.819ZM82.919,40.947c.624-1.319,1.237-2.64,1.854-3.961.009.011.012.024.021.035a8.176,8.176,0,0,0,3.081,1.942A10.081,10.081,0,0,0,90.6,39.6c-.152.544-.293,1.092-.433,1.641Q86.542,41.035,82.919,40.947ZM86.7,32.862a7.5,7.5,0,0,0,2.382,2.32,8.849,8.849,0,0,0,2.561,1.133c-.137.389-.281.775-.409,1.168a10.4,10.4,0,0,0-2.3-1.261,8.225,8.225,0,0,0-3.506-.649C85.855,34.668,86.285,33.768,86.7,32.862Zm5.736,1.357a9.585,9.585,0,0,0-1.749-1.5,7.389,7.389,0,0,0-3.216-1.271.828.828,0,0,0-.122.006c.556-1.207,1.1-2.421,1.646-3.631A9.895,9.895,0,0,0,93.589,31.6c-.077.165-.134.337-.213.5C93.036,32.8,92.734,33.5,92.439,34.219Zm1.969-4.534a10.263,10.263,0,0,0-1.743-2.066,8.527,8.527,0,0,0-2.777-1.76c.43-.953.867-1.9,1.294-2.857a9.768,9.768,0,0,0,1.572,1.7,9.54,9.54,0,0,0,2.759,1.667C95.179,27.483,94.821,28.594,94.408,29.685ZM96.863,9.866a5.185,5.185,0,0,0,1.091,1.4,5.5,5.5,0,0,0,1.788,1.109c-.155.565-.307,1.132-.476,1.7a9.338,9.338,0,0,0-.989-.87,6.456,6.456,0,0,0-2.314-1.114c.1-.23.2-.455.293-.685C96.466,10.9,96.656,10.377,96.863,9.866Zm-1.788,4.3a6.991,6.991,0,0,0,1.479,1.413,7.717,7.717,0,0,0,1.932,1q-.376,1.17-.757,2.343A8.831,8.831,0,0,0,96.8,18a5.687,5.687,0,0,0-2.719-1.312.857.857,0,0,0-.087.009C94.36,15.86,94.714,15.013,95.075,14.17Zm-1.787,4.113a5.962,5.962,0,0,0,1.659,2,6.951,6.951,0,0,0,2,1.124c-.02.065-.042.129-.06.194-.248.828-.482,1.662-.718,2.495a11.255,11.255,0,0,0-1.5-1.623,8.836,8.836,0,0,0-2.538-1.594Q92.715,19.584,93.288,18.283Zm6.914-11.9a12.107,12.107,0,0,1,.258,2.316,5.829,5.829,0,0,1-.075.878c-.135-.158-.278-.31-.425-.457a4.667,4.667,0,0,0-2.307-1.261c.225-.58.47-1.151.685-1.737.326-.891.639-1.788.914-2.711.018-.057.03-.12.047-.177A28.516,28.516,0,0,1,100.2,6.388ZM63.6,24.123l0,0C63.581,24.1,63.586,24.108,63.6,24.123ZM3.787,104.449c-.224-.437-.46-.915-.715-1.41.266.042.523.066.774.083.053,0,.1,0,.152,0a5.357,5.357,0,0,0,.532,2.108A2.061,2.061,0,0,1,3.787,104.449ZM7.259,102.8a5.958,5.958,0,0,0,.481,1.567,6.987,6.987,0,0,0,.747,1.217c-.277.011-.546.015-.818.018a6.675,6.675,0,0,0-.467-1.6,6.506,6.506,0,0,0-.627-1.082C6.807,102.891,7.033,102.845,7.259,102.8Zm3.676,2.412a6.03,6.03,0,0,0-.524-2.069,6.851,6.851,0,0,0-.535-.947c.311-.081.622-.162.93-.248a5.675,5.675,0,0,0,.512,1.8,7.534,7.534,0,0,0,.622,1.044l0,0A5.292,5.292,0,0,1,10.935,105.214Zm3.483-1.365a7.105,7.105,0,0,0-.43-1.321,5.98,5.98,0,0,0-.795-1.3q1.5-.485,2.984-1.028c-.24,1.138-.464,2.277-.694,3.414C15.123,103.679,14.769,103.761,14.419,103.849Zm.576,17.925a9.453,9.453,0,0,0,1.02-.018c.479-.048.938-.122,1.387-.207a.855.855,0,0,0-.054.162A4.707,4.707,0,0,0,17.7,124.1,10.9,10.9,0,0,1,14.994,121.774Zm5.951,2.747a7.367,7.367,0,0,0-.416-1.264,5.112,5.112,0,0,0-1.587-2.048c.789-.192,1.566-.4,2.337-.625a5.252,5.252,0,0,0,.527,2.295,6.873,6.873,0,0,0,.828,1.309C22.065,124.318,21.5,124.434,20.945,124.521Zm5.3-2.876a6.571,6.571,0,0,0,.948,1.446c-.726.212-1.462.385-2.2.549a6.144,6.144,0,0,0-.521-1.985,5.491,5.491,0,0,0-1.148-1.692c.249-.078.5-.15.75-.23.553-.177,1.1-.376,1.647-.561A5.139,5.139,0,0,0,26.248,121.645Zm3.828.2c-.213.137-.443.23-.664.346a6.466,6.466,0,0,0-.493-1.769,5.25,5.25,0,0,0-1.363-1.871c.624-.216,1.252-.422,1.872-.645a5.568,5.568,0,0,0,.523,1.889,6.448,6.448,0,0,0,1.029,1.537C30.677,121.5,30.372,121.659,30.076,121.843Zm3.039-1.5a6.39,6.39,0,0,0-.493-1.775,5.734,5.734,0,0,0-.968-1.492c.63-.234,1.262-.463,1.89-.7.583,1.1,1.178,2.182,1.776,3.267A21.4,21.4,0,0,0,33.115,120.344Zm22.513,11.071c-.69.687-1.41,1.349-2.137,1.957l-1.064.9c-.17.164-.347.264-.512.4l-.248.2a.623.623,0,0,1-.116.066,4.532,4.532,0,0,1-2.2-.06c-.255-.054-.518-.129-.78-.2l.174-.14c.4-.355.768-.723,1.118-1.1.709-.741,1.361-1.51,2-2.289,1.274-1.555,2.449-3.169,3.644-4.767.174-.236.34-.476.512-.712a6.7,6.7,0,0,0,.337.912,5.649,5.649,0,0,0,1.554,2.018A24.129,24.129,0,0,1,55.627,131.415Zm9.189-9.618-.448-.176a6.271,6.271,0,0,0-.2-1.967,6.357,6.357,0,0,0-.484-1.252c.816.4,1.64.8,2.46,1.2a5.284,5.284,0,0,0-.685.808A5.383,5.383,0,0,0,64.817,121.8ZM61.125,118.4a5.467,5.467,0,0,0,.212,2.033,6.274,6.274,0,0,0,.828,1.773c-.2.305-.4.619-.609.926a8.183,8.183,0,0,0-.307-.864,5.223,5.223,0,0,0-1.443-1.936C60.248,119.7,60.687,119.05,61.125,118.4Zm-2.884,4.173a6.916,6.916,0,0,0,.338.92,5.761,5.761,0,0,0,1.462,1.942c-.216.332-.437.655-.651.987a7.657,7.657,0,0,0-.362-1.07,5.235,5.235,0,0,0-1.413-1.91C57.823,123.155,58.035,122.867,58.241,122.577Zm9.048.188a6.518,6.518,0,0,0,.6-.7,4.774,4.774,0,0,0,.648-1.343c.359.167.712.344,1.074.508.095.042.191.081.286.125-.134.128-.261.261-.383.4a5.1,5.1,0,0,0-.876,1.5c-.222-.08-.448-.147-.667-.23Zm4.008,1.351c.152-.138.3-.284.434-.434A4.812,4.812,0,0,0,72.5,122.5c.308.134.613.274.923.406-.027.03-.057.057-.083.087a5.09,5.09,0,0,0-.863,1.467l-.338-.095C71.857,124.285,71.576,124.2,71.3,124.116Zm4.218.975c-.066.015-.107.018-.162.027.068-.068.14-.132.2-.2a5.3,5.3,0,0,0,.618-.882l.183.074c.316.107.616.216.935.322A14.239,14.239,0,0,1,75.515,125.091Zm7.2-19.2q.721.176,1.446.344a4.521,4.521,0,0,0-.664,1.611,5.413,5.413,0,0,0-.077,1.492,9.094,9.094,0,0,0-.915.222C82.585,108.34,82.652,107.115,82.716,105.892Zm3.369,3.432a6.177,6.177,0,0,0,.284-.854,4.525,4.525,0,0,0,.068-1.712c.46.1.923.192,1.383.29a2.708,2.708,0,0,0-.836,1.461,3.545,3.545,0,0,0-.053.972C86.65,109.416,86.369,109.364,86.085,109.324Zm7.687.174a3.488,3.488,0,0,0-.051.981c-.177-.033-.356-.06-.534-.095.044-.119.086-.239.119-.361a2.64,2.64,0,0,0-.257-1.987c.448.069.9.135,1.349.192A2.76,2.76,0,0,0,93.772,109.5Zm-3.332-.123a4.25,4.25,0,0,0-.06.591l-.81-.087a3.69,3.69,0,0,0,.28-.718,2.689,2.689,0,0,0-.138-1.716c.173.035.344.075.517.108.4.077.809.146,1.213.218A2.661,2.661,0,0,0,90.44,109.375Zm6.279,1.1c.026.026-.092.071-.224.108.056-.143.1-.289.143-.434a2.694,2.694,0,0,0-.141-1.721c.207.011.409.027.621.03a9.968,9.968,0,0,0,1.01-.056l-.385.673A11.369,11.369,0,0,1,96.719,110.475Zm-3.789-19.2c.642-.081,1.286-.158,1.924-.258a.839.839,0,0,0-.027.087,2.572,2.572,0,0,0,.428,1.748,6.864,6.864,0,0,0-1.13.525C93.733,92.678,93.332,91.977,92.93,91.279Zm7.963-1.661a3.183,3.183,0,0,0,.628,2.026c.092.122.191.237.293.352l-.443.071a3.054,3.054,0,0,0-.535-1.368,2.935,2.935,0,0,0-.852-.792C100.288,89.817,100.59,89.725,100.894,89.618Zm-2.438,2.8.015.018c-.077,0-.155.006-.233.008a3.239,3.239,0,0,0-.487-1.132,2.974,2.974,0,0,0-.7-.7c.281-.057.562-.1.843-.158l.032-.008c0,.015-.01.027-.012.042A2.646,2.646,0,0,0,98.456,92.422Zm4.674-3.861c.066.257.143.5.227.748a2.9,2.9,0,0,0-.678-.466l0,0C102.832,88.741,102.981,88.658,103.13,88.562ZM102.42,85.8a2.431,2.431,0,0,1,.161.512c.02.078-.023.1-.012.144a.091.091,0,0,1-.036.12c-.036.035-.026.072-.071.126l-.2.17a2.6,2.6,0,0,1-.511.344,8.214,8.214,0,0,1-1.313.574,22.434,22.434,0,0,1-2.953.811,56.812,56.812,0,0,1-6.19.945,1,1,0,0,0-.386.125.965.965,0,0,0-.355,1.318c1.488,2.586,2.936,5.216,4.3,7.868.682,1.325,1.333,2.666,1.934,4.012.3.673.579,1.351.822,2.021.123.335.231.669.316.986.039.143.074.3.1.439a5.9,5.9,0,0,1-.879.041,20.431,20.431,0,0,1-2.131-.186c-1.449-.191-2.911-.461-4.367-.759-2.914-.6-5.832-1.3-8.708-2.057a1.223,1.223,0,0,0-.224-.036,1.14,1.14,0,0,0-1.207,1.071v.012c-.189,3.193-.436,6.4-.759,9.585-.164,1.59-.347,3.177-.583,4.738-.119.778-.251,1.554-.415,2.295-.081.365-.171.736-.273,1.05-.008.027-.015.041-.024.066l-.147-.042c-.334-.1-.712-.246-1.067-.367-.729-.281-1.462-.571-2.2-.882q-2.2-.929-4.391-1.931l-8.764-4-.048-.021a1.135,1.135,0,0,0-1.447.451c-2.024,3.38-4.13,6.741-6.33,10.014-1.1,1.643-2.265,3.231-3.464,4.779-.6.771-1.22,1.528-1.869,2.233-.328.35-.666.679-1.007.984a3.238,3.238,0,0,1-.9.6c.051.062-.308-.1-.625-.4a9.337,9.337,0,0,1-.941-.992c-.609-.727-1.177-1.521-1.728-2.325-1.1-1.612-2.128-3.3-3.112-5.007-1.969-3.417-3.831-6.917-5.605-10.438a.934.934,0,0,0-1.15-.455l-.017.006c-3.36,1.222-6.765,2.379-10.183,3.408-1.709.509-3.428.99-5.14,1.369a21.334,21.334,0,0,1-2.516.422,5.6,5.6,0,0,1-.717.015,43.6,43.6,0,0,1,.646-5.129c.3-1.76.628-3.522.971-5.282.69-3.518,1.429-7.039,2.2-10.54a1.18,1.18,0,0,0-1.575-1.355l-.017.006a71.136,71.136,0,0,1-8.955,2.854,17.527,17.527,0,0,1-4.4.582,3.281,3.281,0,0,1-.837-.138c-.209-.08-.233-.137-.21-.11a1.532,1.532,0,0,1,0-.512,6.1,6.1,0,0,1,.2-.972,44.468,44.468,0,0,1,4-8.337C8.7,87.891,10.4,85.2,12.152,82.579a1.584,1.584,0,0,0,.114-.2,1.422,1.422,0,0,0-.711-1.88l-.027-.012a51.906,51.906,0,0,1-4.819-2.447,14.213,14.213,0,0,1-2.027-1.375c.051-.057.087-.105.144-.164A34.487,34.487,0,0,1,9,73.256c1.5-1.043,3.046-2.057,4.591-3.018l.029-.018a1.115,1.115,0,0,0,.122-.086,1.382,1.382,0,0,0,.234-1.942c-1.8-2.3-3.595-4.657-5.291-7.034-.839-1.195-1.661-2.406-2.37-3.632a11.682,11.682,0,0,1-.876-1.8c-.02-.066-.041-.138-.057-.2l.376-.186a56.364,56.364,0,0,1,8.331-2.463c2.873-.67,5.768-1.3,8.665-1.869a.823.823,0,0,0,.161-.05.772.772,0,0,0,.4-1.013c-1-2.322-1.955-4.684-2.788-7.06a27.62,27.62,0,0,1-1.031-3.56,4.243,4.243,0,0,1-.086-.759,10.909,10.909,0,0,1,1.539.1c2.474.329,4.979.83,7.458,1.37s4.967,1.117,7.434,1.719l.083.015a.791.791,0,0,0,.887-.678v-.009c.431-3.229.933-6.466,1.527-9.667.3-1.6.622-3.195,1.013-4.758.2-.78.41-1.554.663-2.293a9.187,9.187,0,0,1,.416-1.049,3.009,3.009,0,0,1,.332-.57,1.727,1.727,0,0,1,.513.12,7.627,7.627,0,0,1,.993.46,21.858,21.858,0,0,1,2,1.252c1.319.909,2.606,1.9,3.871,2.92,2.529,2.041,5,4.191,7.4,6.384a1.111,1.111,0,0,0,.165.12.925.925,0,0,0,1.262-.344c1-1.733,2.068-3.458,3.178-5.123.557-.831,1.135-1.649,1.728-2.428a9.615,9.615,0,0,1,1.79-1.924c.054.053.125.12.17.159a9.534,9.534,0,0,1,.762,1.118c.485.83.914,1.733,1.33,2.636.82,1.818,1.566,3.7,2.25,5.584l.008.021a.86.86,0,0,0,1.462.26Q76.86,25.493,84.168,17.1c2.436-2.8,4.891-5.577,7.4-8.309l3.776-4.076,1.925-1.988.983-.954.316-.281c-.015.1-.023.185-.044.284-.09.431-.219.873-.356,1.312-.275.879-.594,1.757-.927,2.63-.667,1.746-1.392,3.479-2.134,5.2-1.489,3.449-3.054,6.871-4.646,10.279q-4.846,10.193-9.966,20.259a.986.986,0,0,0,.833,1.431h.027c3.033.143,6.077.335,9.1.589a.585.585,0,0,0,.072,0l.144.012c1.548.132,3.091.286,4.618.479a28.7,28.7,0,0,1,3.945.718c-.038.068-.077.137-.117.2-.358.612-.79,1.241-1.231,1.86-.887,1.243-1.835,2.471-2.8,3.686-1.927,2.43-3.922,4.833-5.939,7.191a1.338,1.338,0,0,0,.676,2.165l.015,0c3.159.833,6.34,1.766,9.43,2.84,1.542.546,3.073,1.115,4.555,1.745a17.865,17.865,0,0,1,4.033,2.232,2.913,2.913,0,0,1,.585.624.683.683,0,0,0,.074.116.077.077,0,0,0,.015.06.4.4,0,0,1,0,.2,3.522,3.522,0,0,1-.978,1.515,21.237,21.237,0,0,1-3.715,2.9,66.839,66.839,0,0,1-8.665,4.6l-.017.006a.953.953,0,0,0-.182,1.618c1.378,1.062,2.732,2.2,4,3.405a.779.779,0,0,0,.194.177c.176.168.37.325.541.5a19.708,19.708,0,0,1,2.008,2.286A6.5,6.5,0,0,1,102.42,85.8Zm-1.712-6.767a11.743,11.743,0,0,0-.956.843q-1.188-1.1-2.437-2.14c1.124-.508,2.236-1.032,3.335-1.588a2.819,2.819,0,0,0,.52,1.217,3.312,3.312,0,0,0,.9.8A7.6,7.6,0,0,0,100.709,79.037Zm3.378-1.993a3.041,3.041,0,0,0-1.193-2.075c.276-.152.552-.314.827-.47a3.141,3.141,0,0,0,.412.772,3.19,3.19,0,0,0,.995.858A10.347,10.347,0,0,1,104.087,77.045Z" transform="translate(3.886 2.255)" fill="#f0f0f0"/>
        <path id="Path_7446" data-name="Path 7446" d="M4.366,8.443C3.774,7.5,2.958,6.5,2.338,5.483c-.026-.059-.056-.113-.08-.173A.356.356,0,0,0,2.18,5.2a7.339,7.339,0,0,1-.44-.866c-.5-1.244.254-1.3,1.258-1.763C3.785,2.2,4.563,1.82,5.343,1.437c.81-.4.509-1.823-.437-1.337A33.313,33.313,0,0,0,1.1,2.131,2.311,2.311,0,0,0,.041,3.437c-.189.805.31,1.39.726,2.038.379.588.78,1.162,1.171,1.74a9.676,9.676,0,0,0,1.337,1.97C3.658,9.623,4.7,8.969,4.366,8.443Z" transform="translate(0 73.103)" fill="#f0f0f0"/>
        <path id="Path_7447" data-name="Path 7447" d="M1.537,6.347c-.03-1.312-.053-2.622-.119-3.933V2.408a8.251,8.251,0,0,1,2.2-.3A19.826,19.826,0,0,0,6.165,1.68C6.991,1.444,7.274-.088,6.177,0A26.351,26.351,0,0,0,3.26.525a7.088,7.088,0,0,0-2.505.663A1.708,1.708,0,0,0,.009,2.7C-.04,4,.123,5.357.2,6.652.25,7.509,1.554,7.059,1.537,6.347Z" transform="translate(18.925 33.677)" fill="#f0f0f0"/>
        <path id="Path_7448" data-name="Path 7448" d="M1.029,9.765A67.743,67.743,0,0,1,6.92,4.646C8.872,3.291,11.015,2.2,12.9.757c.443-.338.032-.885-.452-.73A27.345,27.345,0,0,0,5.164,4.181a17.439,17.439,0,0,0-5.1,5.233C-.269,9.995.744,10.016,1.029,9.765Z" transform="translate(88.528)" fill="#f0f0f0"/>
        <path id="Path_7449" data-name="Path 7449" d="M10.5,4.344C9.854,3.121,8.1,2.5,6.942,1.907A17.521,17.521,0,0,0,.883,0C.259-.071-.455.87.378,1.073a27.413,27.413,0,0,1,7.4,3.462c1.127.678.921.858.071,1.94-.431.55-.978,1.034-1.459,1.545a9.913,9.913,0,0,0-2.26,3.231.488.488,0,0,0,.583.64c1.976-.511,3.3-2.546,4.612-4.026C10.2,6.875,11.214,5.718,10.5,4.344Z" transform="translate(113.8 65.681)" fill="#f0f0f0"/>
        <path id="Path_7450" data-name="Path 7450" d="M12.743.566c-.652,2.606-1.211,5.925-3.32,7.654-1.246,1.022-1.265.986-2.64.992-.6,0-1.2,0-1.794-.018-1.319-.038-2.633-.164-3.949-.249C-.178,8.863-.4,10.871.772,11.024c2.564.337,7.9,1.286,9.975-.723.992-.959,1.337-2.728,1.734-3.964A56.911,56.911,0,0,0,14,.486C14.166-.286,12.9-.047,12.743.566Z" transform="translate(75.117 126.668)" fill="#f0f0f0"/>
        <path id="Path_7451" data-name="Path 7451" d="M3.952,4.02A21.251,21.251,0,0,1,1.13.192C.873-.254-.194.151.031.655A17.778,17.778,0,0,0,2.919,5.21C3.84,6.257,5.191,7.82,6.613,8.1c.449.087,1.183-.389.787-.879C6.433,6.018,5.014,5.16,3.952,4.02Z" transform="translate(43.066 136.69)" fill="#f0f0f0"/>
        <path id="Path_7452" data-name="Path 7452" d="M.014.5c.992,3.153,2.042,7.114,4.358,9.564.129.137.651.29.574-.072C4.237,6.653,2.207,3.465,1.073.236.919-.206-.133.026.014.5Z" transform="translate(41.062 116.126)" fill="#f0f0f0"/>
        <path id="Path_7453" data-name="Path 7453" d="M3.369.022C1.685.485,1.6,2.3,1.312,3.789A48.641,48.641,0,0,0,0,12.629c0,.532.978.373,1.089-.042.46-1.727.669-3.506.957-5.267.18-1.1.531-6.082,1.632-6.5C4.271.6,3.948-.136,3.369.022Z" transform="translate(42.401 30.14)" fill="#f0f0f0"/>
        <path id="Path_7454" data-name="Path 7454" d="M3.848,4.337A32.333,32.333,0,0,1,7.738.735C8.335.263,7.475-.243,7,.128A33.342,33.342,0,0,0,2.955,3.792,13.669,13.669,0,0,0,.019,7.761c-.135.35.5.541.712.326C1.852,6.918,2.755,5.54,3.848,4.337Z" transform="translate(92.189 48.597)" fill="#f0f0f0"/>
      </g>
    </g>
    <g id="Group_1030" data-name="Group 1030" transform="matrix(0.966, 0.259, -0.259, 0.966, -4316.437, -4163.94)">
      <path id="Path_7455" data-name="Path 7455" d="M10.039,31.135C7.722,24.8,6.994,18.08,5.558,11.522,4.871,8.377,4.276,2.459,1.661.234a1,1,0,0,0-1.656.8C.391,4.916,1.589,8.9,2.331,12.738,3.607,19.322,4.2,25.993,6.45,32.357,7.263,34.657,10.879,33.434,10.039,31.135Z" transform="translate(4.532 17.661)" fill="#f0f0f0"/>
      <path id="Path_7456" data-name="Path 7456" d="M7.409,18.171C5.9,12.139,4.4,5.831,1.395.343,1.024-.338-.052.089,0,.811.444,6.671,2.2,12.459,3.574,18.155c1.5,6.253,2.3,12.883,4.2,19.008a1.789,1.789,0,0,0,3.465-.681C10.856,30.386,8.892,24.079,7.409,18.171Z" transform="translate(13.579 10.825)" fill="#f0f0f0"/>
      <path id="Path_7457" data-name="Path 7457" d="M18.519.027c-2.706-.242-5.188,1.216-7.7,2.14C7.326,3.453,3.8,4.667.435,6.257-.218,6.565-.141,7.734.7,7.611A67.628,67.628,0,0,0,10.526,5.2c2.831-.857,6.4-1.375,8.543-3.5A1.026,1.026,0,0,0,18.519.027Z" transform="translate(0 30.749)" fill="#f0f0f0"/>
      <path id="Path_7458" data-name="Path 7458" d="M16.675,19.277a1.045,1.045,0,0,0-1.906-.135c-1.08,2.026-1.655,4.03-4.268,4.247-2.083.171-3.955-1.465-4.75-3.246a28.922,28.922,0,0,1-2.11-7.912C6.5,11.674,8.223,5.953,8,3.446A3.469,3.469,0,0,0,4.149.023C1.549.3.556,3.235.236,5.417c-.759,5.156.284,13.5,3.535,17.8A8.47,8.47,0,0,0,12.389,26.4,5.78,5.78,0,0,0,16.675,19.277ZM3.9,3.929c.965-2.245,1.058,1.013.941,1.773-.137.879-.579,2.848-1.492,3.62-.01-.141-.024-.287-.033-.428A10.993,10.993,0,0,1,3.9,3.929Z" transform="translate(21.888 16.212)" fill="#f0f0f0"/>
      <path id="Path_7459" data-name="Path 7459" d="M24.647,19.163a13.3,13.3,0,0,0-7.013,2.774q-.318-.848-.618-1.682c-1.632-4.57-2.831-9.284-4.121-13.967A36.288,36.288,0,0,0,11.4,1.125,1.73,1.73,0,0,0,8.13,2.24q.536,1.747,1.052,3.5c.443,1.866.742,3.778,1.013,5.641.446,3.09,1.388,8.229-.6,10.982-2.254,3.129-5.027-5.673-5.351-6.789A80.1,80.1,0,0,1,1.925,4.916.964.964,0,0,0,0,5.031c-.059,4.882,1.417,24.935,10.51,20.822,1.89-.854,2.81-2.673,3.237-4.72q.509,1.6,1.044,3.2A44.875,44.875,0,0,0,9.721,30.3C6.2,35.179,3.2,42.481,8.533,47.224c2.492,2.217,6.161.948,8.443-.823,3.375-2.621,4.366-7.036,4.232-11.087a33.273,33.273,0,0,0-2.335-10.04,16.921,16.921,0,0,1,6.3-3.464C26.688,21.415,26.141,19.092,24.647,19.163ZM17.641,38.149c-.3,2.843-4.442,9.642-7.693,5.563-3.1-3.886,1.352-10.04,3.746-13.061.7-.884,1.483-1.8,2.334-2.7A24.264,24.264,0,0,1,17.641,38.149Z" transform="translate(35.796 11.171)" fill="#f0f0f0"/>
      <path id="Path_7460" data-name="Path 7460" d="M5.51,9.74C4.655,6.867,3.932,3.946,3.022,1.089A1.543,1.543,0,0,0,0,1.5C-.074,4.317.967,7.276,1.653,9.975c.753,2.962,1.253,6.351,2.567,9.12.806,1.7,3.64.879,3.53-.957C7.58,15.34,6.307,12.414,5.51,9.74Z" transform="translate(50.477 0)" fill="#f0f0f0"/>
      <path id="Path_7461" data-name="Path 7461" d="M2.2,0A2.268,2.268,0,0,0,.048,1.731,2.073,2.073,0,0,0,.559,3.662a1.955,1.955,0,0,0,1.931.511,3.281,3.281,0,0,0,1.064-.646A2.061,2.061,0,0,0,4.18,1.985,2.008,2.008,0,0,0,2.2,0Z" transform="translate(56.401 22.227)" fill="#f0f0f0"/>
    </g>
  </g>
</svg>
