<svg id="Group_850" data-name="Group 850" xmlns="http://www.w3.org/2000/svg" width="77" height="83" viewBox="0 0 77 83">
  <circle id="Ellipse_69" data-name="Ellipse 69" cx="2.5" cy="2.5" r="2.5" transform="translate(36 58)" fill="#f0f0f0"/>
  <circle id="Ellipse_84" data-name="Ellipse 84" cx="2.5" cy="2.5" r="2.5" transform="translate(48 58)" fill="#f0f0f0"/>
  <circle id="Ellipse_106" data-name="Ellipse 106" cx="2.5" cy="2.5" r="2.5" transform="translate(60 58)" fill="#f0f0f0"/>
  <circle id="Ellipse_121" data-name="Ellipse 121" cx="2.5" cy="2.5" r="2.5" transform="translate(72 58)" fill="#f0f0f0"/>
  <circle id="Ellipse_127" data-name="Ellipse 127" cx="2.5" cy="2.5" r="2.5" transform="translate(0 58)" fill="#f0f0f0"/>
  <circle id="Ellipse_114" data-name="Ellipse 114" cx="2.5" cy="2.5" r="2.5" transform="translate(12 58)" fill="#f0f0f0"/>
  <circle id="Ellipse_94" data-name="Ellipse 94" cx="2.5" cy="2.5" r="2.5" transform="translate(24 58)" fill="#f0f0f0"/>
  <circle id="Ellipse_75" data-name="Ellipse 75" cx="2.5" cy="2.5" r="2.5" transform="translate(36 20)" fill="#f0f0f0"/>
  <circle id="Ellipse_87" data-name="Ellipse 87" cx="2.5" cy="2.5" r="2.5" transform="translate(48 20)" fill="#f0f0f0"/>
  <circle id="Ellipse_103" data-name="Ellipse 103" cx="2.5" cy="2.5" r="2.5" transform="translate(60 20)" fill="#f0f0f0"/>
  <circle id="Ellipse_118" data-name="Ellipse 118" cx="2.5" cy="2.5" r="2.5" transform="translate(72 20)" fill="#f0f0f0"/>
  <circle id="Ellipse_124" data-name="Ellipse 124" cx="2.5" cy="2.5" r="2.5" transform="translate(0 20)" fill="#f0f0f0"/>
  <circle id="Ellipse_111" data-name="Ellipse 111" cx="2.5" cy="2.5" r="2.5" transform="translate(12 20)" fill="#f0f0f0"/>
  <circle id="Ellipse_97" data-name="Ellipse 97" cx="2.5" cy="2.5" r="2.5" transform="translate(24 20)" fill="#f0f0f0"/>
  <circle id="Ellipse_70" data-name="Ellipse 70" cx="2.5" cy="2.5" r="2.5" transform="translate(36 68)" fill="#f0f0f0"/>
  <circle id="Ellipse_82" data-name="Ellipse 82" cx="2.5" cy="2.5" r="2.5" transform="translate(48 68)" fill="#f0f0f0"/>
  <circle id="Ellipse_107" data-name="Ellipse 107" cx="2.5" cy="2.5" r="2.5" transform="translate(60 68)" fill="#f0f0f0"/>
  <circle id="Ellipse_122" data-name="Ellipse 122" cx="2.5" cy="2.5" r="2.5" transform="translate(72 68)" fill="#f0f0f0"/>
  <circle id="Ellipse_147" data-name="Ellipse 147" cx="2.5" cy="2.5" r="2.5" transform="translate(72 78)" fill="#f0f0f0"/>
  <circle id="Ellipse_128" data-name="Ellipse 128" cx="2.5" cy="2.5" r="2.5" transform="translate(0 68)" fill="#f0f0f0"/>
  <circle id="Ellipse_148" data-name="Ellipse 148" cx="2.5" cy="2.5" r="2.5" transform="translate(0 78)" fill="#f0f0f0"/>
  <circle id="Ellipse_115" data-name="Ellipse 115" cx="2.5" cy="2.5" r="2.5" transform="translate(12 68)" fill="#f0f0f0"/>
  <circle id="Ellipse_92" data-name="Ellipse 92" cx="2.5" cy="2.5" r="2.5" transform="translate(24 68)" fill="#f0f0f0"/>
  <circle id="Ellipse_76" data-name="Ellipse 76" cx="2.5" cy="2.5" r="2.5" transform="translate(36 38)" fill="#f0f0f0"/>
  <circle id="Ellipse_86" data-name="Ellipse 86" cx="2.5" cy="2.5" r="2.5" transform="translate(48 38)" fill="#f0f0f0"/>
  <circle id="Ellipse_104" data-name="Ellipse 104" cx="2.5" cy="2.5" r="2.5" transform="translate(60 38)" fill="#f0f0f0"/>
  <circle id="Ellipse_119" data-name="Ellipse 119" cx="2.5" cy="2.5" r="2.5" transform="translate(72 38)" fill="#f0f0f0"/>
  <circle id="Ellipse_125" data-name="Ellipse 125" cx="2.5" cy="2.5" r="2.5" transform="translate(0 38)" fill="#f0f0f0"/>
  <circle id="Ellipse_112" data-name="Ellipse 112" cx="2.5" cy="2.5" r="2.5" transform="translate(12 38)" fill="#f0f0f0"/>
  <circle id="Ellipse_96" data-name="Ellipse 96" cx="2.5" cy="2.5" r="2.5" transform="translate(24 38)" fill="#f0f0f0"/>
  <circle id="Ellipse_78" data-name="Ellipse 78" cx="2.5" cy="2.5" r="2.5" transform="translate(36)" fill="#f0f0f0"/>
  <circle id="Ellipse_89" data-name="Ellipse 89" cx="2.5" cy="2.5" r="2.5" transform="translate(48)" fill="#f0f0f0"/>
  <circle id="Ellipse_101" data-name="Ellipse 101" cx="2.5" cy="2.5" r="2.5" transform="translate(60)" fill="#f0f0f0"/>
  <circle id="Ellipse_109" data-name="Ellipse 109" cx="2.5" cy="2.5" r="2.5" transform="translate(12)" fill="#f0f0f0"/>
  <circle id="Ellipse_99" data-name="Ellipse 99" cx="2.5" cy="2.5" r="2.5" transform="translate(24)" fill="#f0f0f0"/>
  <circle id="Ellipse_71" data-name="Ellipse 71" cx="2.5" cy="2.5" r="2.5" transform="translate(36 48)" fill="#f0f0f0"/>
  <circle id="Ellipse_85" data-name="Ellipse 85" cx="2.5" cy="2.5" r="2.5" transform="translate(48 48)" fill="#f0f0f0"/>
  <circle id="Ellipse_105" data-name="Ellipse 105" cx="2.5" cy="2.5" r="2.5" transform="translate(60 48)" fill="#f0f0f0"/>
  <circle id="Ellipse_120" data-name="Ellipse 120" cx="2.5" cy="2.5" r="2.5" transform="translate(72 48)" fill="#f0f0f0"/>
  <circle id="Ellipse_126" data-name="Ellipse 126" cx="2.5" cy="2.5" r="2.5" transform="translate(0 48)" fill="#f0f0f0"/>
  <circle id="Ellipse_113" data-name="Ellipse 113" cx="2.5" cy="2.5" r="2.5" transform="translate(12 48)" fill="#f0f0f0"/>
  <circle id="Ellipse_95" data-name="Ellipse 95" cx="2.5" cy="2.5" r="2.5" transform="translate(24 48)" fill="#f0f0f0"/>
  <circle id="Ellipse_77" data-name="Ellipse 77" cx="2.5" cy="2.5" r="2.5" transform="translate(36 10)" fill="#f0f0f0"/>
  <circle id="Ellipse_88" data-name="Ellipse 88" cx="2.5" cy="2.5" r="2.5" transform="translate(48 10)" fill="#f0f0f0"/>
  <circle id="Ellipse_102" data-name="Ellipse 102" cx="2.5" cy="2.5" r="2.5" transform="translate(60 10)" fill="#f0f0f0"/>
  <circle id="Ellipse_117" data-name="Ellipse 117" cx="2.5" cy="2.5" r="2.5" transform="translate(72 10)" fill="#f0f0f0"/>
  <circle id="Ellipse_150" data-name="Ellipse 150" cx="2.5" cy="2.5" r="2.5" transform="translate(72)" fill="#f0f0f0"/>
  <circle id="Ellipse_123" data-name="Ellipse 123" cx="2.5" cy="2.5" r="2.5" transform="translate(0 10)" fill="#f0f0f0"/>
  <circle id="Ellipse_149" data-name="Ellipse 149" cx="2.5" cy="2.5" r="2.5" fill="#f0f0f0"/>
  <circle id="Ellipse_110" data-name="Ellipse 110" cx="2.5" cy="2.5" r="2.5" transform="translate(12 10)" fill="#f0f0f0"/>
  <circle id="Ellipse_98" data-name="Ellipse 98" cx="2.5" cy="2.5" r="2.5" transform="translate(24 10)" fill="#f0f0f0"/>
  <circle id="Ellipse_74" data-name="Ellipse 74" cx="2.5" cy="2.5" r="2.5" transform="translate(36 78)" fill="#f0f0f0"/>
  <circle id="Ellipse_83" data-name="Ellipse 83" cx="2.5" cy="2.5" r="2.5" transform="translate(48 78)" fill="#f0f0f0"/>
  <circle id="Ellipse_108" data-name="Ellipse 108" cx="2.5" cy="2.5" r="2.5" transform="translate(60 78)" fill="#f0f0f0"/>
  <circle id="Ellipse_116" data-name="Ellipse 116" cx="2.5" cy="2.5" r="2.5" transform="translate(12 78)" fill="#f0f0f0"/>
  <circle id="Ellipse_93" data-name="Ellipse 93" cx="2.5" cy="2.5" r="2.5" transform="translate(24 78)" fill="#f0f0f0"/>
</svg>
