<svg xmlns="http://www.w3.org/2000/svg" width="94.904" height="97.75" viewBox="0 0 94.904 97.75">
  <g id="Group_1113" data-name="Group 1113" transform="translate(-858.629 -2086.91)">
    <path id="Path_7587" data-name="Path 7587" d="M74.226,413.557l1.643,6.326,15.572-7.093s3.953,22.07,22.948,31.311c14.214,6.913,25.707,10.169,30,11.836,1.088.422,2.935.6,2.982-3.271l-.95-8.083-7.286-16.655h5.817s13.749-1.7,21.058-12.874l-.347-6.919s-31.692,5.151-44.724-2.825,0-7.952,0-7.952l9.756-5.511.259-5.235-33-18.492Z" transform="translate(786 1727)" fill="none" stroke="#f0f0f0" stroke-miterlimit="10" stroke-width="3"/>
    <path id="Path_7588" data-name="Path 7588" d="M165.494,407.954s-10.194,16.1-24.681,16.633c6.439,8.048,4.829,22,4.829,22s-42.924-7.512-53.655-42.388l-16.633,8.585s5.9-31.12,20.925-49.9c0,0,10.731,12.878,31.12,23.072L115.058,394S136.521,410.1,165.494,407.954Z" transform="translate(786 1727)" fill="#fff"/>
    <path id="Path_7589" data-name="Path 7589" d="M165.7,407.832l-1.75-.093c-.309-.013-.623-.02-.936-.021s-.567-.016-.855-.023c-1.106-.042-2.208-.065-3.309-.155-2.2-.132-4.389-.4-6.563-.706-2.172-.331-4.325-.761-6.459-1.247-2.13-.511-4.243-1.081-6.322-1.755a85.9,85.9,0,0,1-12.12-4.894c-1.953-.957-3.872-1.981-5.734-3.088q-1.413-.836-2.776-1.731h0l3.607-2.221,3.134-1.938L128.735,388l2.219-1.391a.894.894,0,0,0-.05-1.543l-2.411-1.3-2.1-1.132c-.7-.379-1.411-.73-2.092-1.14-1.37-.8-2.763-1.568-4.1-2.43-2.729-1.627-5.331-3.451-7.921-5.284q-3.849-2.8-7.466-5.891c-1.208-1.026-2.371-2.1-3.514-3.183-.567-.546-1.132-1.1-1.675-1.656l-.809-.841c-.262-.274-.538-.577-.753-.819l-.961-1.081a1.194,1.194,0,0,0-1.84.066l-.807,1.051q-2.157,2.813-4.024,5.788-1.842,2.985-3.459,6.075A109.733,109.733,0,0,0,81.437,386c-1.588,4.325-2.9,8.733-4.074,13.165S75.208,408.061,74.4,412.6l-.359,2.011,1.762-.964c1.369-.748,2.73-1.513,4.107-2.245l4.123-2.216c2.269-1.222,4.557-2.407,6.841-3.6A36.1,36.1,0,0,0,92.02,412.9c.053.155.454.339.46.067a42.712,42.712,0,0,0-1.038-7.685l.134-.07a55.5,55.5,0,0,0,3.106,7.618,54.946,54.946,0,0,0,4.676,7.808,63.321,63.321,0,0,0,12.661,13.143,72.906,72.906,0,0,0,7.581,5.162,82.218,82.218,0,0,0,8.161,4.169q2.1.926,4.245,1.721t4.333,1.481q2.188.678,4.41,1.25l.007,0c-.024,2.217.2,4.452.387,6.652.021.252.531.36.51.082-.168-2.2-.213-4.421-.429-6.617,1.331.332,2.64.634,4.069.89l.531.1a1.521,1.521,0,0,0,1.783-1.359l.045-.5c.1-1.088.137-2.045.135-3.06s-.034-2-.1-3a43.769,43.769,0,0,0-.774-5.96,31.4,31.4,0,0,0-1.83-5.794,24.333,24.333,0,0,0-1.411-2.737c-.145-.23-.306-.45-.46-.674.563-.1,1.125-.2,1.677-.338a25,25,0,0,0,3.818-1.315,31.926,31.926,0,0,0,6.765-4.149,42.6,42.6,0,0,0,5.631-5.437q1.284-1.469,2.432-3.039c.381-.525.758-1.051,1.118-1.59q.271-.4.53-.814l.257-.413.125-.208.063-.106.031-.052A.353.353,0,0,0,165.7,407.832Zm-.684.377-.291.379-.6.749c-.4.5-.815.98-1.234,1.461q-1.266,1.432-2.623,2.772a44.858,44.858,0,0,1-5.815,4.847,29.906,29.906,0,0,1-6.575,3.48,24.05,24.05,0,0,1-3.518,1.006,21.434,21.434,0,0,1-3.6.379l-2.418.067,1.446,2.054a19.652,19.652,0,0,1,2.4,4.747,28.509,28.509,0,0,1,1.246,5.281,40,40,0,0,1,.442,5.479q.018,1.38-.046,2.759c-.008.142-.018.287-.026.432-.667-.165-1.339-.34-2-.521q-2.106-.58-4.186-1.27t-4.131-1.454q-2.049-.771-4.07-1.611c-2.688-1.133-5.349-2.336-7.923-3.708a80.21,80.21,0,0,1-7.535-4.441,57.718,57.718,0,0,1-13.041-11.64,48.482,48.482,0,0,1-4.871-7.327,46.112,46.112,0,0,1-3.384-8.141l-.252-.806-.756.383c-2.784,1.408-5.552,2.847-8.349,4.229l-4.195,2.076c-.77.386-1.548.757-2.324,1.131.381-1.528.787-3.058,1.231-4.571q.948-3.252,2.029-6.459t2.285-6.362q1.217-3.148,2.534-6.247a131.29,131.29,0,0,1,5.866-12.048q1.625-2.912,3.45-5.679c.714-1.062,1.46-2.1,2.223-3.116q.765.814,1.547,1.6c1.184,1.177,2.386,2.332,3.628,3.437,2.473,2.222,5.036,4.339,7.713,6.3.661.5,1.348.967,2.021,1.453s1.355.956,2.053,1.4l2.08,1.366,2.119,1.3c1.407.879,2.873,1.657,4.316,2.472.241.134.489.256.732.386l-2.642,1.814-6.065,4.186-2.514,1.736,2.4,1.7c.531.376.992.672,1.488.986s.98.607,1.472.9q1.48.872,2.987,1.673c2.01,1.071,4.061,2.046,6.142,2.947a85.559,85.559,0,0,0,12.858,4.324c2.194.541,4.412.971,6.635,1.339,2.227.353,4.469.594,6.712.747a67.224,67.224,0,0,0,6.732.118c1.12-.018,2.238-.094,3.353-.181.267-.024.584-.034.809-.069.242-.031.482-.069.728-.112.426-.076.891-.165,1.37-.241Z" transform="translate(786 1727)" fill="#f0f0f0"/>
    <path id="Path_7592" data-name="Path 7592" d="M142.616,450.3c-.045-.123-.287-.2-.274-.011a36.991,36.991,0,0,1,.242,5.333c-.017.216.4.381.433.135A11.772,11.772,0,0,0,142.616,450.3Z" transform="translate(786 1727)" fill="#f0f0f0"/>
    <g id="Group_1112" data-name="Group 1112">
      <path id="Path_7590" data-name="Path 7590" d="M164.254,414.7a7.559,7.559,0,0,0-.3-2.27c-.07-.187-.487-.312-.5-.028a28.862,28.862,0,0,0,.243,3.12,6.158,6.158,0,0,0,.228,1.912c-.042-.1-.149-.049-.111.049l.126.324c.017.043.1.1.127.029A8.26,8.26,0,0,0,164.254,414.7Z" transform="translate(786 1727)" fill="#f0f0f0"/>
      <path id="Path_7591" data-name="Path 7591" d="M162.611,413.876c-.025-.15-.3-.261-.334-.061a14.045,14.045,0,0,0,.4,4.586c.044.225.51.293.457.016C162.847,416.91,162.857,415.381,162.611,413.876Z" transform="translate(786 1727)" fill="#f0f0f0"/>
      <path id="Path_7593" data-name="Path 7593" d="M92.118,400.964a62.353,62.353,0,0,0-11.468,5.369c-.4.222.036.649.372.469,3.722-1.995,7.635-3.528,11.406-5.406C92.753,401.234,92.368,400.888,92.118,400.964Z" transform="translate(786 1727)" fill="#f0f0f0"/>
      <path id="Path_7594" data-name="Path 7594" d="M111.515,382.436a66.807,66.807,0,0,1-14.466-13.67c-.2-.236-.814-.1-.58.207,4.02,5.228,8.438,11.253,14.74,13.849C111.468,382.928,111.821,382.641,111.515,382.436Z" transform="translate(786 1727)" fill="#f0f0f0"/>
      <path id="Path_7595" data-name="Path 7595" d="M158.333,410.6q-4.2-.117-8.383-.392c-.408-.027-.626.514-.152.563,2.4.247,4.8.427,7.2.563a37.652,37.652,0,0,0-4.691,3.049c-.352.286.053.65.4.5a42.732,42.732,0,0,0,5.788-3.549C158.868,411.1,158.791,410.609,158.333,410.6Z" transform="translate(786 1727)" fill="#f0f0f0"/>
      <path id="Path_7596" data-name="Path 7596" d="M140.437,433.914c-.068-.3-.723-.247-.675.072a35.273,35.273,0,0,0,1.33,6.825c.087.238.657.32.64-.012A40.5,40.5,0,0,0,140.437,433.914Z" transform="translate(786 1727)" fill="#f0f0f0"/>
    </g>
  </g>
</svg>
