<svg xmlns="http://www.w3.org/2000/svg" width="177.367" height="180.67" viewBox="0 0 177.367 180.67">
  <g id="Group_951" data-name="Group 951" transform="translate(-1059.042 -3395.249) rotate(-8)">
    <path id="Path_7415" data-name="Path 7415" d="M27.739-51.907a13.516,13.516,0,0,0-.6-3.873,8.762,8.762,0,0,0-1.855-3.409,4.114,4.114,0,0,0-3.2-1.392,5.369,5.369,0,0,0-3.966,1.67,12.022,12.022,0,0,0-2.621,4.221,22.06,22.06,0,0,0-1.3,5.334q-.139,1.392-.139,2.644a20.656,20.656,0,0,0,.139,2.458,18.1,18.1,0,0,1-4.314-.51,7.962,7.962,0,0,1-3.433-1.693A4.128,4.128,0,0,1,5.1-49.727a16.006,16.006,0,0,1,1.786-8,13.839,13.839,0,0,1,4.523-4.894,18.047,18.047,0,0,1,5.775-2.458c2.026-.464,8.213-.078,10.516,1.066a13.589,13.589,0,0,1,5.566,5.1,15.779,15.779,0,0,1,2.111,8.489,17.855,17.855,0,0,1-1.74,7.839,33.292,33.292,0,0,1-4.268,6.7q-2.528,3.085-5.079,5.729c-1.732,1.763-3.651,7.794-3.651,9.093a6.6,6.6,0,0,1-.951,3.873A4.664,4.664,0,0,1,17.3-15.4a8.16,8.16,0,0,1-2.6.417h-.278a5.658,5.658,0,0,1-3.177-.858,2.421,2.421,0,0,1-1-2.018,9.315,9.315,0,0,1,1.021-4.059,29.321,29.321,0,0,1,2.644-4.36q1.624-2.25,3.572-4.662,2.458-3.015,4.8-6.355a38.353,38.353,0,0,0,3.9-6.981A19.243,19.243,0,0,0,27.739-51.907ZM12.432.881A6.163,6.163,0,0,1,8.3-1.67a6.94,6.94,0,0,1-1.16-3.9q0-.51.046-1.021A6.962,6.962,0,0,1,9.648-11.04a5.835,5.835,0,0,1,3.757-1.345,7.988,7.988,0,0,1,.881.046,5.92,5.92,0,0,1,4.082,2.551,6.687,6.687,0,0,1,1.206,3.943q0,.464-.046.974A6.928,6.928,0,0,1,17.07-.464a6.02,6.02,0,0,1-3.9,1.392A5.978,5.978,0,0,1,12.432.881Z" transform="translate(632.697 3653.692) rotate(8)" fill="#f0f0f0"/>
    <g id="Group_950" data-name="Group 950" transform="translate(271 -48)">
      <path id="Path_4270" data-name="Path 4270" d="M458.3,277.736a56.509,56.509,0,0,1,19.017,2.974c2.274.736,4.6,1.178,6.862,1.973,5.338,1.875,10.247,5.132,15.021,8.757a43.494,43.494,0,0,1,10.328,11.118,29.535,29.535,0,0,1,3.856,8.513c.586,2.2,1.233,4.379,1.684,6.629a42.342,42.342,0,0,1-.514,17.391,72.264,72.264,0,0,1-12.011,27.114A81.635,81.635,0,0,1,490.035,375.5a66.5,66.5,0,0,0-6.714,7c-3.971,4.794-5.472,10.985-5.152,18.048.058,1.266.086,2.534.108,3.8a2.394,2.394,0,0,1-1.146,2.147c-.69.5-1.223.157-1.768-.431a29.4,29.4,0,0,0-14.973-8.52c-4.409-1.113-8.824-.954-13.267-.6-7.437.589-14.718,2.649-22.078,3.979-4.391.792-8.774,1.8-13.187,2.242-8.148.822-15.848-1.554-23.053-6.741C383.5,392.6,379.5,387,376.812,379.848a46.2,46.2,0,0,1-1.752-27.44,159.27,159.27,0,0,1,6.362-21.119,74.022,74.022,0,0,1,10.083-17.563,85.136,85.136,0,0,1,19.72-18.641,111.8,111.8,0,0,1,19.264-10.86C439.89,280.11,449.505,277.754,458.3,277.736ZM475.651,397.7c.094-.8.142-1.111.164-1.42a29.646,29.646,0,0,1,4.266-13.85,42.678,42.678,0,0,1,8.369-9.619,76.826,76.826,0,0,0,12.473-13.344,69.114,69.114,0,0,0,11.59-26.285,38.9,38.9,0,0,0-.152-17.149,36.185,36.185,0,0,0-8.836-16.974,57.465,57.465,0,0,0-10.559-8.661,42.385,42.385,0,0,0-16.768-6.8,5.206,5.206,0,0,1-.859-.321,50.215,50.215,0,0,0-11.444-2.58,62.262,62.262,0,0,0-12.991.414,56.865,56.865,0,0,0-13.823,3.181,105.953,105.953,0,0,0-25.206,13.473,84.414,84.414,0,0,0-16.264,14.859,73.348,73.348,0,0,0-14.192,25.947,55.275,55.275,0,0,0-2.657,20.084c.749,10.625,4.332,18.915,11.122,24.527a31.288,31.288,0,0,0,22.16,7.37c3.58-.171,7.149-.806,10.718-1.294a101.88,101.88,0,0,0,15.847-4.011,49.9,49.9,0,0,1,18.088-2.565q11.058.767,17.67,12.7C474.714,396.018,475.068,396.65,475.651,397.7Zm-99.469-38.4a33.038,33.038,0,0,0,.251,10.71c1.676,10.077,5.9,17.8,12.482,22.958a31.5,31.5,0,0,0,25.224,6.716c6.133-.968,12.237-2.29,18.338-3.59a105.914,105.914,0,0,1,19.159-2.726,33.621,33.621,0,0,1,20.651,6.059,12.471,12.471,0,0,0,1.3.66c-4.1-8.678-9.63-13.249-16.939-13.76a46.154,46.154,0,0,0-17.614,2.639,94.159,94.159,0,0,1-19.995,4.721c-3.869.377-7.709,1.18-11.63.722a35.169,35.169,0,0,1-17.38-6.689c-6.7-4.985-11.175-12.315-13-22.374C376.668,363.349,376.46,361.31,376.182,359.294Z" transform="translate(-59.329 3334.601)" fill="#f0f0f0"/>
      <g id="Group_949" data-name="Group 949" transform="matrix(0.995, -0.105, 0.105, 0.995, 294.782, 3570.322)">
        <path id="Path_4271" data-name="Path 4271" d="M15.784,26.808q0,10.646,0,21.292a5.107,5.107,0,0,1-.113,1.845c-.239.574-.768,1.344-1.252,1.408-.446.057-1.19-.609-1.473-1.133C10.593,45.842,9.516,41,8.068,36.3,5.612,28.333,3.272,20.334.948,12.33A28.99,28.99,0,0,1,.027,7.376,4.068,4.068,0,0,1,2.1,3.343C5.076,1.437,8.458.679,11.851.059a2.836,2.836,0,0,1,3.384,2.324,13.032,13.032,0,0,1,.432,3.412c.038,7,.019,14.009.019,21.014ZM11.963,39.085l.69-.005c-.042-11.907.217-23.819-.385-36.188C9.735,3.73,7.608,4.3,5.593,5.137,3.023,6.2,2.787,6.648,3.446,9.44c.772,3.28,1.724,6.52,2.666,9.756C8.038,25.832,10.01,32.456,11.963,39.085Z" transform="translate(31.809 3.016) rotate(-11)" fill="#f0f0f0"/>
        <path id="Path_4273" data-name="Path 4273" d="M9.566,0a2.332,2.332,0,0,1,2.31,1.335A26.137,26.137,0,0,1,13.34,4.588c3.543,10.034,7.05,20.083,10.59,30.119.234.668.566,1.421-.178,1.758A1.992,1.992,0,0,1,22,36.151,27.512,27.512,0,0,1,18.8,32.733Q9.976,21.487,1.224,10.185c-1.651-2.125-1.692-3.469.24-5C3.673,3.431,6.1,1.951,8.454.388A4.172,4.172,0,0,1,9.566,0Zm.309,2.511C6.137,4.53,3.519,6.5,2.561,7.972L18.7,29.086l.4-.237Z" transform="translate(0 35.358) rotate(-11)" fill="#f0f0f0"/>
        <path id="Path_4274" data-name="Path 4274" d="M20.36,23.719a6.256,6.256,0,0,1-1.871-.69C13.447,19.587,8.481,16.033,3.433,12.606c-4.192-2.844-4.489-4.4-1.2-8.247A32.714,32.714,0,0,1,5.777.778C7.073-.334,8.034-.23,9.293.939a12.516,12.516,0,0,1,1.375,1.615C14.9,8.121,19.3,13.581,21.9,20.186a13.3,13.3,0,0,1,.669,1.727C22.9,23.316,22.4,23.863,20.36,23.719Zm-2.014-4.182C15.877,13.094,11.369,8.248,7.481,2.824A14.8,14.8,0,0,0,2.69,8.756C7.956,12.382,13.152,15.959,18.347,19.537Z" transform="translate(98.244 10.012) rotate(48)" fill="#f0f0f0"/>
      </g>
      <path id="Path_4275" data-name="Path 4275" d="M368.747,345.424a68.256,68.256,0,0,1,1.324-13.927,42.561,42.561,0,0,1,5.263-12.915,3.712,3.712,0,0,1,.985-1.242,1.767,1.767,0,0,1,1.411-.287c.611.281.329.869.07,1.375-.847,1.666-1.662,3.347-2.488,5.024a40.381,40.381,0,0,0-3.654,15.086c-.286,3.859-.3,7.738-.452,11.607a11.9,11.9,0,0,1-.244,1.981,1.127,1.127,0,0,1-1.28,1.007c-.763-.078-.934-.647-.934-1.3Q368.746,348.627,368.747,345.424Z" transform="translate(-63.47 3346.574)" fill="#f0f0f0"/>
      <path id="Path_4284" data-name="Path 4284" d="M36.343.915c-.449.872-.821,1.729-1.306,2.517a31.685,31.685,0,0,1-8.479,8.957c-3.773,2.748-7.662,5.337-11.473,8.033C10.145,23.915,5.648,27.859,2.45,33.094a1.753,1.753,0,0,1-.649.74c-.389.16-1.02.333-1.25.141A2.015,2.015,0,0,1,0,32.637c-.018-.345.32-.711.5-1.066a28.914,28.914,0,0,1,8.528-9.953c3.472-2.589,7.018-5.093,10.64-7.467a57.631,57.631,0,0,0,12.06-9.826,32.753,32.753,0,0,0,2.152-3.1A4.023,4.023,0,0,1,34.735.141,1.327,1.327,0,0,1,35.808.086C36.04.176,36.146.588,36.343.915Z" transform="translate(419.776 3695.561) rotate(-9)" fill="#f0f0f0"/>
    </g>
  </g>
</svg>
