<svg xmlns="http://www.w3.org/2000/svg" width="25.518" height="13.807" viewBox="0 0 25.518 13.807">
  <path id="Path_7794" data-name="Path 7794" d="M114.994,136.114c-.644,1.152-1.155,2.133-1.734,3.074a11.752,11.752,0,0,1-1.446,2.013c-1.646,1.709-3.82,1.738-5.189-.155a52.036,52.036,0,0,1-3.711-6.234,1.752,1.752,0,0,1,.777-2.5c.837-.5,1.566-.377,2.339.609,1.066,1.358,2.028,2.8,3.211,4.449.813-1.328,1.623-2.489,2.264-3.735,1.4-2.721,3.719-2.64,5.595-1.518,1.418.847,2.717,1.891,4.287,3,.824-1.5,1.606-2.925,2.4-4.347a6.988,6.988,0,0,1,.871-1.4,1.822,1.822,0,0,1,2.258-.507,1.785,1.785,0,0,1,1.172,2.186c-.975,2.806-1.89,5.693-4.108,7.836a3.368,3.368,0,0,1-4.568.346C117.951,138.322,116.59,137.25,114.994,136.114Z" transform="translate(-102.661 -128.668)" fill="#fff"/>
</svg>
