<svg xmlns="http://www.w3.org/2000/svg" width="207.75" height="156.004" viewBox="0 0 207.75 156.004">
  <g id="Group_1597" data-name="Group 1597" transform="translate(-716.75 -1718.387)">
    <path id="Path_4354" data-name="Path 4354" d="M39.237,88.817c-2.141.668-4,1.288-5.892,1.829-6.673,1.917-13.246,1.14-19.773-.793A21.184,21.184,0,0,1,4.593,84.6a15.124,15.124,0,0,1-4.534-10A26.906,26.906,0,0,1,2.217,62.717C5.012,55.532,9.523,49.524,14.9,44.082c9.555-9.674,20.638-17.216,32.537-23.676A170.234,170.234,0,0,1,105.02,1.619,167.491,167.491,0,0,1,145.307.861,72.313,72.313,0,0,1,172.045,8.4a35.153,35.153,0,0,1,14.694,14.606c3.4,6.164,2.781,12.4.023,18.613-3.78,8.525-9.763,15.246-17.087,20.855A148.333,148.333,0,0,1,125.86,85.407a186.37,186.37,0,0,1-40.275,8.867,53.483,53.483,0,0,1-14.538-.054,2.216,2.216,0,0,0-2.071.869c-3.056,2.913-6.1,5.84-9.16,8.75q-11,10.461-22.026,20.9A20.732,20.732,0,0,1,34.2,127.5c-1.979,1.169-3.631.244-3.453-2.037A44.5,44.5,0,0,1,32,118.427c2.188-8.973,4.456-17.926,6.686-26.888C38.895,90.718,39.027,89.879,39.237,88.817Zm-5.454,35.232c.993-.75,1.517-1.076,1.957-1.49q5.225-4.912,10.42-9.856,10.664-10.12,21.331-20.235A9.456,9.456,0,0,1,69.8,90.8c.478-.229,1.573-.21,1.713.055.9,1.694,2.4,1.264,3.763,1.247a143.5,143.5,0,0,0,30.94-4.294c18.348-4.308,35.8-10.84,51.724-21.087,6.314-4.062,12.381-8.439,17.474-14.026a41.493,41.493,0,0,0,9.507-16.117,14.906,14.906,0,0,0-1.1-11.808A31.7,31.7,0,0,0,173.2,13,53.943,53.943,0,0,0,157.874,6.5c-8.676-2.365-17.572-3-26.51-3.2a165.679,165.679,0,0,0-59.54,9.755,157.156,157.156,0,0,0-42.2,22.532c-6.888,5.185-13.341,10.87-18.505,17.865A41.064,41.064,0,0,0,3.67,69.334c-1.384,6.493.7,11.8,6,15.133a21.748,21.748,0,0,0,4.953,2.323c7.7,2.438,15.354,2.437,22.888-.793a14.668,14.668,0,0,1,2.979-.81c1.456-.282,1.87.111,1.682,1.622a33.116,33.116,0,0,1-.656,3.525C39.27,99.869,37,109.4,34.759,118.931,34.407,120.432,34.177,121.963,33.783,124.049Z" transform="translate(737.763 1718.387) rotate(9)" fill="#f0f0f0"/>
    <path id="Path_4355" data-name="Path 4355" d="M5.037,27.36C10.39,15.752,13.882,11.108,22.968,3.619A30.566,30.566,0,0,1,27.584.664C28.322.254,29.123.1,29.575.643s.032,1.007-4.539,4.4S18.2,11.672,13.866,17.3C9.952,22.383,7.733,25.31,5.313,32.854S3.7,43.242,4.186,47.477a8.678,8.678,0,0,1,.121,2.135c-.146,1.067-2.539,1.37-2.752.436C.92,47.261-.316,38.967,5.037,27.36Z" transform="translate(723.714 1746.547) rotate(9)" fill="#f0f0f0"/>
    <path id="Path_4360" data-name="Path 4360" d="M33.195,51.57c5.445-.73,10.919-1.359,16.291-2.466a167.24,167.24,0,0,0,27.106-7.611c14.2-5.534,27.523-12.6,39.008-22.778A56.59,56.59,0,0,0,126.353,5.962a38.209,38.209,0,0,0,2.035-4.314c.392-.863.674-2.038,1.946-1.52,1.168.476.886,1.6.514,2.493a45.088,45.088,0,0,1-2.46,5.434A59.042,59.042,0,0,1,113.77,24.638C100.691,35.017,85.982,42.277,70.127,47.319c-8.28,2.631-15.987,4-24.546,5.464-5.492.937-11.112,1.7-16.665,2.21-2.278.21-10.146-.364-14.493,3.433-3.215,3.64-4.217,5.96-7.342,9.675C5.7,69.742,4.448,71.5,3.216,73.259a1.79,1.79,0,0,1-2.057.764c-1.006-.2-1.353-.7-1.057-1.678A3.379,3.379,0,0,1,.652,71.3c3.639-4.736,7.237-9.506,10.954-14.18,1.417-1.783,4.376-3.555,8.743-4.449C25.162,51.681,31.532,51.793,33.195,51.57Z" transform="translate(780.585 1757.118) rotate(9)" fill="#f0f0f0"/>
    <g id="Group_930" data-name="Group 930" transform="translate(-7 -2)">
      <path id="Path_7354" data-name="Path 7354" d="M4240.107,1483.933s34.3-27.042,26.11-36.025-18.81,43.223-14.1,37.164,16.939-18.463,18.6-16.024-6.752,20.574-1.37,16.024,15.98-19.509,15.98-19.509-7.686,18.713,0,18.369,40.6-29.982,34.3-36.025-18.152,25.9-14.192,31.141,24.811-7.535,30.46-18.993.339-16.038-5.039-7.072-11.916,30.728-.846,25.237,11.83-14.662,11.83-14.662-8.136,17.267,0,16.146,15.523-20.928,8.326-24.51-12.217,13.261-4.353,12.837,13-8.6,13-8.6" transform="translate(-3472 313)" fill="none" stroke="#f0f0f0" stroke-linecap="round" stroke-width="3"/>
      <path id="Path_7355" data-name="Path 7355" d="M4283.429,1470.913a15.656,15.656,0,0,0,6.036-4.276c2.889-3.375,4.859-8.946.871-9.791-7.07-1.5-10.947,9.044-10.947,9.044" transform="translate(-3466.718 314.322)" fill="none" stroke="#f0f0f0" stroke-linecap="round" stroke-width="3"/>
    </g>
  </g>
</svg>
