<svg xmlns="http://www.w3.org/2000/svg" width="177.367" height="180.67" viewBox="0 0 177.367 180.67">
  <g id="Group_1171" data-name="Group 1171" transform="translate(-1107.346 -822.61)">
    <path id="Path_7415" data-name="Path 7415" d="M27.739-51.907a13.516,13.516,0,0,0-.6-3.873,8.762,8.762,0,0,0-1.855-3.409,4.114,4.114,0,0,0-3.2-1.392,5.369,5.369,0,0,0-3.966,1.67,12.022,12.022,0,0,0-2.621,4.221,22.06,22.06,0,0,0-1.3,5.334q-.139,1.392-.139,2.644a20.656,20.656,0,0,0,.139,2.458,18.1,18.1,0,0,1-4.314-.51,7.962,7.962,0,0,1-3.433-1.693A4.128,4.128,0,0,1,5.1-49.727a16.006,16.006,0,0,1,1.786-8,13.839,13.839,0,0,1,4.523-4.894,18.047,18.047,0,0,1,5.775-2.458c2.026-.464,8.213-.078,10.516,1.066a13.589,13.589,0,0,1,5.566,5.1,15.779,15.779,0,0,1,2.111,8.489,17.855,17.855,0,0,1-1.74,7.839,33.292,33.292,0,0,1-4.268,6.7q-2.528,3.085-5.079,5.729c-1.732,1.763-3.651,7.794-3.651,9.093a6.6,6.6,0,0,1-.951,3.873A4.664,4.664,0,0,1,17.3-15.4a8.16,8.16,0,0,1-2.6.417h-.278a5.658,5.658,0,0,1-3.177-.858,2.421,2.421,0,0,1-1-2.018,9.315,9.315,0,0,1,1.021-4.059,29.321,29.321,0,0,1,2.644-4.36q1.624-2.25,3.572-4.662,2.458-3.015,4.8-6.355a38.353,38.353,0,0,0,3.9-6.981A19.243,19.243,0,0,0,27.739-51.907ZM12.432.881A6.163,6.163,0,0,1,8.3-1.67a6.94,6.94,0,0,1-1.16-3.9q0-.51.046-1.021A6.962,6.962,0,0,1,9.648-11.04a5.835,5.835,0,0,1,3.757-1.345,7.988,7.988,0,0,1,.881.046,5.92,5.92,0,0,1,4.082,2.551,6.687,6.687,0,0,1,1.206,3.943q0,.464-.046.974A6.928,6.928,0,0,1,17.07-.464a6.02,6.02,0,0,1-3.9,1.392A5.978,5.978,0,0,1,12.432.881Z" transform="translate(1170.062 957.441)" fill="#f0f0f0"/>
    <g id="Group_1170" data-name="Group 1170" transform="translate(1104.865 801.79)">
      <g id="Group_950" data-name="Group 950" transform="translate(164.6 204.224) rotate(-172)">
        <path id="Path_4270" data-name="Path 4270" d="M84.55,129a56.509,56.509,0,0,0,19.017-2.974c2.274-.736,4.6-1.178,6.862-1.973,5.338-1.875,10.247-5.132,15.021-8.757a43.494,43.494,0,0,0,10.328-11.118,29.535,29.535,0,0,0,3.856-8.513c.586-2.2,1.233-4.379,1.684-6.629a42.342,42.342,0,0,0-.514-17.391,72.264,72.264,0,0,0-12.011-27.114,81.635,81.635,0,0,0-12.512-13.293,66.5,66.5,0,0,1-6.714-7C105.6,19.444,104.1,13.254,104.415,6.19c.058-1.266.086-2.534.108-3.8A2.394,2.394,0,0,0,103.378.241c-.69-.5-1.223-.157-1.768.431a29.4,29.4,0,0,1-14.973,8.52c-4.409,1.113-8.824.954-13.267.6C65.933,9.2,58.652,7.144,51.292,5.814c-4.391-.792-8.774-1.8-13.187-2.242-8.148-.822-15.848,1.554-23.053,6.741C9.743,14.136,5.747,19.74,3.059,26.889a46.2,46.2,0,0,0-1.752,27.44A159.27,159.27,0,0,0,7.67,75.448,74.022,74.022,0,0,0,17.752,93.011a85.136,85.136,0,0,0,19.72,18.641,111.8,111.8,0,0,0,19.264,10.86C66.136,126.627,75.752,128.982,84.55,129ZM101.9,9.041c.094.8.142,1.111.164,1.42a29.646,29.646,0,0,0,4.266,13.85A42.678,42.678,0,0,0,114.7,33.93a76.826,76.826,0,0,1,12.473,13.344,69.114,69.114,0,0,1,11.59,26.285,38.9,38.9,0,0,1-.152,17.149,36.185,36.185,0,0,1-8.836,16.974,57.465,57.465,0,0,1-10.559,8.661,42.385,42.385,0,0,1-16.768,6.8,5.206,5.206,0,0,0-.859.321,50.215,50.215,0,0,1-11.444,2.58,62.262,62.262,0,0,1-12.991-.414,56.865,56.865,0,0,1-13.823-3.181,105.953,105.953,0,0,1-25.206-13.473A84.414,84.414,0,0,1,21.855,94.115,73.348,73.348,0,0,1,7.663,68.168,55.275,55.275,0,0,1,5.006,48.083c.749-10.625,4.332-18.915,11.122-24.527a31.288,31.288,0,0,1,22.16-7.37c3.58.171,7.149.806,10.718,1.294a101.88,101.88,0,0,1,15.847,4.011A49.9,49.9,0,0,0,82.94,24.057Q94,23.29,100.61,11.354C100.961,10.718,101.315,10.087,101.9,9.041ZM2.429,47.443a33.038,33.038,0,0,1,.251-10.71c1.676-10.077,5.9-17.8,12.482-22.958A31.5,31.5,0,0,1,40.386,7.059c6.133.968,12.237,2.29,18.338,3.59a105.914,105.914,0,0,0,19.159,2.726A33.621,33.621,0,0,0,98.534,7.316a12.471,12.471,0,0,1,1.3-.66C95.737,15.334,90.2,19.9,82.9,20.416a46.154,46.154,0,0,1-17.614-2.639,94.159,94.159,0,0,0-19.995-4.721c-3.869-.377-7.709-1.18-11.63-.722a35.169,35.169,0,0,0-17.38,6.689C9.575,24.009,5.1,31.339,3.276,41.4,2.915,43.387,2.707,45.427,2.429,47.443Z" transform="translate(19.642 0)" fill="#f0f0f0"/>
        <g id="Group_949" data-name="Group 949" transform="matrix(0.995, 0.105, -0.105, 0.995, 7.447, 100.164)">
          <path id="Path_4271" data-name="Path 4271" d="M15.784,24.549q0-10.646,0-21.292a5.107,5.107,0,0,0-.113-1.845C15.431.838,14.9.068,14.418,0c-.446-.057-1.19.609-1.473,1.133C10.593,5.515,9.516,10.36,8.068,15.06c-2.456,7.964-4.8,15.964-7.12,23.968a28.99,28.99,0,0,0-.921,4.954A4.068,4.068,0,0,0,2.1,48.014c2.98,1.906,6.362,2.664,9.754,3.285a2.836,2.836,0,0,0,3.384-2.324,13.032,13.032,0,0,0,.432-3.412c.038-7,.019-14.009.019-21.014ZM11.963,12.273l.69.005c-.042,11.907.217,23.819-.385,36.188-2.534-.839-4.66-1.408-6.676-2.246-2.57-1.067-2.806-1.511-2.147-4.3.772-3.28,1.724-6.52,2.666-9.756C8.038,25.525,10.01,18.9,11.963,12.273Z" transform="translate(41.608 17.812) rotate(11)" fill="#f0f0f0"/>
          <path id="Path_4273" data-name="Path 4273" d="M9.566,36.555a2.332,2.332,0,0,0,2.31-1.335,26.137,26.137,0,0,0,1.465-3.252c3.543-10.034,7.05-20.083,10.59-30.119.234-.668.566-1.421-.178-1.758A1.992,1.992,0,0,0,22,.4,27.512,27.512,0,0,0,18.8,3.823Q9.976,15.068,1.224,26.37c-1.651,2.125-1.692,3.469.24,5C3.673,33.125,6.1,34.6,8.454,36.167A4.172,4.172,0,0,0,9.566,36.555Zm.309-2.511c-3.737-2.018-6.356-3.989-7.314-5.46L18.7,7.469l.4.237Z" transform="translate(6.975 0) rotate(11)" fill="#f0f0f0"/>
          <path id="Path_4274" data-name="Path 4274" d="M20.36.022a6.256,6.256,0,0,0-1.871.69C13.447,4.154,8.481,7.707,3.433,11.135c-4.192,2.844-4.489,4.4-1.2,8.247a32.714,32.714,0,0,0,3.54,3.581c1.3,1.112,2.256,1.008,3.516-.161a12.516,12.516,0,0,0,1.375-1.615C14.9,15.62,19.3,10.16,21.9,3.555a13.3,13.3,0,0,0,.669-1.727C22.9.425,22.4-.122,20.36.022ZM18.347,4.2c-2.47,6.443-6.977,11.289-10.866,16.713a14.8,14.8,0,0,1-4.79-5.932C7.956,11.358,13.152,7.782,18.347,4.2Z" transform="translate(80.601 45.344) rotate(-48)" fill="#f0f0f0"/>
        </g>
        <path id="Path_4275" data-name="Path 4275" d="M0,7.718A68.256,68.256,0,0,0,1.325,21.645,42.561,42.561,0,0,0,6.587,34.56,3.712,3.712,0,0,0,7.572,35.8a1.767,1.767,0,0,0,1.411.287c.611-.281.329-.869.07-1.375-.847-1.666-1.662-3.347-2.488-5.024A40.381,40.381,0,0,1,2.911,14.6C2.625,10.745,2.614,6.865,2.46,3a11.9,11.9,0,0,0-.244-1.981A1.127,1.127,0,0,0,.936.008C.172.086,0,.655,0,1.312Q0,4.514,0,7.718Z" transform="translate(10.495 41.623)" fill="#f0f0f0"/>
        <path id="Path_4284" data-name="Path 4284" d="M36.343,33.145c-.449-.872-.821-1.729-1.306-2.517a31.685,31.685,0,0,0-8.479-8.957c-3.773-2.748-7.662-5.337-11.473-8.033C10.145,10.144,5.649,6.2,2.45.965A1.753,1.753,0,0,0,1.8.226C1.413.065.781-.107.551.085A2.015,2.015,0,0,0,0,1.422c-.018.345.32.711.5,1.066a28.914,28.914,0,0,0,8.528,9.953c3.472,2.589,7.018,5.093,10.64,7.467a57.631,57.631,0,0,1,12.06,9.826,32.753,32.753,0,0,1,2.152,3.1,4.023,4.023,0,0,0,.852,1.083,1.327,1.327,0,0,0,1.073.055C36.04,33.884,36.146,33.471,36.343,33.145Z" transform="translate(130.323 12.137) rotate(9)" fill="#f0f0f0"/>
      </g>
    </g>
  </g>
</svg>
