<svg xmlns="http://www.w3.org/2000/svg" width="44.141" height="47.374" viewBox="0 0 44.141 47.374">
  <g id="visibility" transform="translate(-17.037)">
    <g id="Group_957" data-name="Group 957" transform="translate(16.303 11.011)">
      <g id="Group_956" data-name="Group 956" transform="translate(0)">
        <path id="Path_7419" data-name="Path 7419" d="M60.417,126.055a1.13,1.13,0,0,0-1.783,1.39,1.335,1.335,0,0,1,0,1.644c-2.765,3.545-4.992,7.8-10.889,11.228a12.649,12.649,0,0,0,.029-17.254,24.806,24.806,0,0,1,6.474,3.828c.243.2.485.406.721.614a1.13,1.13,0,0,0,1.5-1.693c-.257-.227-.521-.453-.786-.67A27.194,27.194,0,0,0,38.481,119a21.072,21.072,0,0,0-13.894,4.8c-2.333,1.881-4.761,5.216-6.789,7.816a3.593,3.593,0,0,0,0,4.424c5.187,6.65,12.258,8.312,20.682,8.312A22.979,22.979,0,0,0,50.1,141.338c4.2-2.564,7.346-7.055,10.313-10.859A3.593,3.593,0,0,0,60.417,126.055Zm-40.834,8.6a1.335,1.335,0,0,1,0-1.644c2.764-3.545,5.238-6.788,9.634-9.972a12.65,12.65,0,0,0,0,17.281C25.189,138.705,22.346,138.195,19.582,134.65ZM38.5,142.091h-.027a10.416,10.416,0,0,1,0-20.831h.024a10.416,10.416,0,0,1,0,20.831Z" transform="translate(-16.303 -118.999)" fill="#0f1422"/>
      </g>
    </g>
    <g id="Group_959" data-name="Group 959" transform="translate(33.685 18.89)">
      <g id="Group_958" data-name="Group 958" transform="translate(0)">
        <path id="Path_7420" data-name="Path 7420" d="M208.958,204.16a4.8,4.8,0,1,0,4.8,4.8A4.8,4.8,0,0,0,208.958,204.16Zm0,7.332a2.536,2.536,0,1,1,2.536-2.536A2.539,2.539,0,0,1,208.958,211.492Z" transform="translate(-204.161 -204.16)" fill="#0f1422"/>
      </g>
    </g>
    <g id="Group_961" data-name="Group 961" transform="translate(37.351)">
      <g id="Group_960" data-name="Group 960">
        <path id="Path_7421" data-name="Path 7421" d="M244.914,0a1.13,1.13,0,0,0-1.13,1.13V5.369a1.13,1.13,0,1,0,2.261,0V1.13A1.13,1.13,0,0,0,244.914,0Z" transform="translate(-243.784)" fill="#0f1422"/>
      </g>
    </g>
    <g id="Group_963" data-name="Group 963" transform="translate(37.351 40.874)">
      <g id="Group_962" data-name="Group 962">
        <path id="Path_7422" data-name="Path 7422" d="M244.914,441.753a1.13,1.13,0,0,0-1.13,1.13v4.239a1.13,1.13,0,0,0,2.261,0v-4.239A1.13,1.13,0,0,0,244.914,441.753Z" transform="translate(-243.784 -441.753)" fill="#0f1422"/>
      </g>
    </g>
    <g id="Group_965" data-name="Group 965" transform="translate(51.192 6.607)">
      <g id="Group_964" data-name="Group 964">
        <path id="Path_7423" data-name="Path 7423" d="M397.408,71.734a1.131,1.131,0,0,0-1.6,0L393.7,73.843a1.13,1.13,0,0,0,1.6,1.6l2.109-2.109A1.131,1.131,0,0,0,397.408,71.734Z" transform="translate(-393.369 -71.403)" fill="#0f1422"/>
      </g>
    </g>
    <g id="Group_967" data-name="Group 967" transform="translate(21.401 36.398)">
      <g id="Group_966" data-name="Group 966">
        <path id="Path_7424" data-name="Path 7424" d="M75.442,393.7a1.131,1.131,0,0,0-1.6,0l-2.109,2.109a1.13,1.13,0,0,0,1.6,1.6l2.109-2.109A1.131,1.131,0,0,0,75.442,393.7Z" transform="translate(-71.403 -393.369)" fill="#0f1422"/>
      </g>
    </g>
    <g id="Group_969" data-name="Group 969" transform="translate(21.401 6.607)">
      <g id="Group_968" data-name="Group 968" transform="translate(0)">
        <path id="Path_7425" data-name="Path 7425" d="M75.442,73.843l-2.109-2.109a1.13,1.13,0,0,0-1.6,1.6l2.109,2.109a1.13,1.13,0,1,0,1.6-1.6Z" transform="translate(-71.403 -71.403)" fill="#0f1422"/>
      </g>
    </g>
    <g id="Group_971" data-name="Group 971" transform="translate(51.192 36.397)">
      <g id="Group_970" data-name="Group 970" transform="translate(0)">
        <path id="Path_7426" data-name="Path 7426" d="M397.406,395.809,395.3,393.7a1.131,1.131,0,1,0-1.6,1.6l2.109,2.109a1.13,1.13,0,1,0,1.6-1.6Z" transform="translate(-393.367 -393.369)" fill="#0f1422"/>
      </g>
    </g>
  </g>
</svg>
