<svg id="customer-service" xmlns="http://www.w3.org/2000/svg" width="96.391" height="96.391" viewBox="0 0 96.391 96.391">
  <g id="Group_942" data-name="Group 942" transform="translate(41.595 63.096)">
    <path id="Path_7381" data-name="Path 7381" d="M231.934,466.966h-8.786a2.208,2.208,0,0,1-2.209-2.207v-6.03a2.207,2.207,0,0,1,2.209-2.207h8.786a2.208,2.208,0,0,1,2.207,2.207v6.03a2.208,2.208,0,0,1-2.207,2.207" transform="translate(-220.939 -433.672)" fill="#006d8f"/>
    <path id="Path_7382" data-name="Path 7382" d="M280.234,365.228H265.227v-4.016h15.007a16.055,16.055,0,0,0,16.037-16.035V335.148h4.016v10.029a20.074,20.074,0,0,1-20.053,20.051" transform="translate(-256.889 -335.148)" fill="#006d8f"/>
  </g>
  <path id="Path_7383" data-name="Path 7383" d="M431.12,335.147H427.1v10.027a15.991,15.991,0,0,1-.7,4.687,12.318,12.318,0,0,0,4.4-1.265,20.019,20.019,0,0,0,.313-3.422V335.147Z" transform="translate(-346.125 -272.051)" fill="#334a5e"/>
  <path id="Path_7384" data-name="Path 7384" d="M18.941,62.206V53.762a39.739,39.739,0,0,1,79.478,0v8.444h6.024V53.762a45.764,45.764,0,0,0-91.527,0v8.444h6.024Z" transform="translate(-10.485 -6.494)" fill="#f2f2f2"/>
  <path id="Path_7385" data-name="Path 7385" d="M145.495,22.772a4.694,4.694,0,0,0,.335-.386,45.656,45.656,0,0,0-66.534,0c.111.129.211.267.333.386l4.042,3.771a.034.034,0,0,1,.01.008,39.561,39.561,0,0,1,57.766,0l.012-.01Z" transform="translate(-64.367 -6.494)" fill="#e8eaea"/>
  <path id="Path_7386" data-name="Path 7386" d="M11.4,294.953a9.85,9.85,0,0,1-2.406.329c-4.966,0-8.99-3.617-8.99-8.079s4.024-8.079,8.991-8.079a9.85,9.85,0,0,1,2.406.329v15.5Z" transform="translate(0 -226.576)" fill="#006d8f"/>
  <path id="Path_7387" data-name="Path 7387" d="M36.463,294.954v-15.5a9.217,9.217,0,0,0-5.5.193,11.6,11.6,0,0,0-.082,1.329v11.007a11.294,11.294,0,0,0,.376,2.86,9.053,9.053,0,0,0,5.207.111" transform="translate(-25.066 -226.577)" fill="#334a5e"/>
  <path id="Path_7388" data-name="Path 7388" d="M50.994,268.67h0a9.45,9.45,0,0,1-9.448-9.45V248.213a9.45,9.45,0,0,1,9.448-9.45Z" transform="translate(-33.724 -193.813)" fill="#f2f2f2"/>
  <path id="Path_7389" data-name="Path 7389" d="M78.756,268.67V238.763a9.355,9.355,0,0,0-3.012.536v28.835a9.36,9.36,0,0,0,3.012.536" transform="translate(-61.484 -193.813)" fill="#e8eaea"/>
  <path id="Path_7390" data-name="Path 7390" d="M95.865,255.216h0a4.118,4.118,0,0,1-4.121-4.119V221.3a4.12,4.12,0,1,1,8.239,0V251.1a4.118,4.118,0,0,1-4.119,4.119" transform="translate(-74.472 -176.296)" fill="#ffbc00"/>
  <path id="Path_7391" data-name="Path 7391" d="M451.467,271.764a9.849,9.849,0,0,1,2.406-.329c4.966,0,8.991,3.617,8.991,8.079s-4.024,8.079-8.991,8.079a9.852,9.852,0,0,1-2.406-.329v-15.5Z" transform="translate(-366.472 -220.334)" fill="#006d8f"/>
  <path id="Path_7392" data-name="Path 7392" d="M451.467,271.764v15.5a9.218,9.218,0,0,0,5.5-.193,11.176,11.176,0,0,0,.084-1.329V274.734a11.3,11.3,0,0,0-.377-2.86,9.054,9.054,0,0,0-5.207-.111" transform="translate(-366.472 -220.334)" fill="#334a5e"/>
  <path id="Path_7393" data-name="Path 7393" d="M420.256,238.763h0a9.451,9.451,0,0,1,9.452,9.45V259.22a9.451,9.451,0,0,1-9.452,9.45Z" transform="translate(-341.137 -193.813)" fill="#f2f2f2"/>
  <path id="Path_7394" data-name="Path 7394" d="M420.256,238.763V268.67a9.355,9.355,0,0,0,3.012-.536V239.3a9.355,9.355,0,0,0-3.012-.536" transform="translate(-341.137 -193.813)" fill="#e8eaea"/>
  <g id="Group_943" data-name="Group 943" transform="translate(16.403)">
    <path id="Path_7395" data-name="Path 7395" d="M380.621,217.184h0a4.118,4.118,0,0,1,4.119,4.119V251.1a4.119,4.119,0,1,1-8.237,0V221.3a4.118,4.118,0,0,1,4.119-4.119" transform="translate(-322.023 -176.296)" fill="#ffbc00"/>
    <path id="Path_7396" data-name="Path 7396" d="M118.919,9.037a38,38,0,0,1,24.793,9.2,1.783,1.783,0,0,0,2.386-.026l4.042-3.771a1.783,1.783,0,0,0-.012-2.629,47.129,47.129,0,0,0-62.417,0,1.781,1.781,0,0,0-.01,2.629l4.04,3.771a1.783,1.783,0,0,0,2.386.026,38.007,38.007,0,0,1,24.793-9.2" transform="translate(-87.126 0)" fill="#ffbc00"/>
  </g>
  <g id="Group_944" data-name="Group 944" transform="translate(29.674 47.92)">
    <path id="Path_7397" data-name="Path 7397" d="M167.862,264.209a4.23,4.23,0,0,0,.89-2.43,2.7,2.7,0,0,0-.773-1.962,2.65,2.65,0,0,0-1.976-.785q-2.214,0-4.193,3.151L157.62,259.7a13.019,13.019,0,0,1,3.6-3.856,8.831,8.831,0,0,1,4.992-1.307,8.043,8.043,0,0,1,5.332,1.93,6.489,6.489,0,0,1,2.3,5.245,7.061,7.061,0,0,1-.922,3.47,22.839,22.839,0,0,1-3.4,4.239l-4.225,4.39h9.251V278.5H158.024v-3.886l6.872-7.04a29.6,29.6,0,0,0,2.966-3.368" transform="translate(-157.62 -254.538)" fill="#ff8d76"/>
    <path id="Path_7398" data-name="Path 7398" d="M272.985,270.7v-4.089h5.028V270.7h2.647v4.526h-2.647v5.6h-5.028v-5.6h-9.422v-3.988l8.348-13.844h5.7L269.668,270.7Z" transform="translate(-243.618 -256.859)" fill="#ff8d76"/>
  </g>
</svg>
