<svg id="loupe_1_" data-name="loupe (1)" xmlns="http://www.w3.org/2000/svg" width="96.366" height="96.516" viewBox="0 0 96.366 96.516">
  <rect id="Rectangle_566" data-name="Rectangle 566" width="14.458" height="14.458" transform="translate(76.741 66.434) rotate(135)" fill="#006d8f"/>
  <path id="Path_7399" data-name="Path 7399" d="M359.745,359.344h0a11.393,11.393,0,0,1-16.065,0l-14.659-14.66a2.793,2.793,0,0,1,0-3.816l12.25-12.25a2.793,2.793,0,0,1,3.816,0l14.66,14.659A11.782,11.782,0,0,1,359.745,359.344Z" transform="translate(-266.542 -266.141)" fill="#ffbc00"/>
  <ellipse id="Ellipse_161" data-name="Ellipse 161" cx="33.335" cy="33.335" rx="33.335" ry="33.335" transform="translate(4.443 4.443)" fill="#f3f3f3"/>
  <path id="Path_7400" data-name="Path 7400" d="M170.134,203.867V213.1l5.824,5.221,5.824-5.221v-9.238Z" transform="translate(-138.179 -165.486)" fill="#d59f65"/>
  <path id="Path_7401" data-name="Path 7401" d="M121.676,273.717h0a10.874,10.874,0,0,0-7.229-9.237l-8.635-3.012-7.832,2.008-7.832-2.008-8.836,3.012a10.874,10.874,0,0,0-7.229,9.237h0A5.343,5.343,0,0,0,79.3,279.54h37.151A5.218,5.218,0,0,0,121.676,273.717Z" transform="translate(-60.202 -212.242)" fill="#00b59c"/>
  <path id="Path_7402" data-name="Path 7402" d="M169.909,280.406l5.221-17.872-10.844,2.008-4.82-2.008,5.221,17.872Z" transform="translate(-129.521 -213.109)" fill="#ced6e0"/>
  <path id="Path_7403" data-name="Path 7403" d="M187.289,271.821l1.607-1.606-3.414-3.414-3.615,3.414,1.607,1.606Z" transform="translate(-147.703 -216.572)" fill="#ff8d76"/>
  <path id="Path_7404" data-name="Path 7404" d="M189.561,305.516l-1.406-12.049H184.34l-1.406,12.049Z" transform="translate(-148.57 -238.218)" fill="#ea6c52"/>
  <path id="Path_7405" data-name="Path 7405" d="M153.42,91.867c-6.225,0-11.246,5.824-11.045,12.651h0c.6,8.033,5.422,14.057,11.045,14.057s10.442-6.225,11.045-14.057h0c.2-6.627-4.82-12.651-11.045-12.651Z" transform="translate(-115.642 -74.572)" fill="#7e5131"/>
  <g id="Group_945" data-name="Group 945" transform="translate(25.062 25.328)">
    <ellipse id="Ellipse_162" data-name="Ellipse 162" cx="3.414" cy="2.008" rx="3.414" ry="2.008" transform="translate(19.701 13.192) rotate(-74.055)" fill="#e3c09a"/>
    <ellipse id="Ellipse_163" data-name="Ellipse 163" cx="3.414" cy="2.008" rx="3.414" ry="2.008" transform="translate(3.861 6.735) rotate(74.055)" fill="#e3c09a"/>
    <path id="Path_7406" data-name="Path 7406" d="M170.635,136.341a12.12,12.12,0,0,1-10.041-1.807,8.685,8.685,0,0,1-7.028,2.811v.4c-1.606,8.836,2.008,18.877,8.635,18.877s10.242-10.041,8.635-18.877C170.836,137.145,170.635,136.743,170.635,136.341Z" transform="translate(-149.485 -134.534)" fill="#e3c09a"/>
  </g>
  <path id="Path_7407" data-name="Path 7407" d="M206.891,244.4l-5.824,4.217,3.213,5.02,4.619-5.824Z" transform="translate(-163.289 -198.389)" fill="#f3f3f3"/>
  <path id="Path_7408" data-name="Path 7408" d="M213.818,272.614l6.225-7.832-4.016-3.213,4.217-2.812-5.422-5.824-5.221,19.68Z" transform="translate(-170.216 -205.316)" fill="#99e1d7"/>
  <path id="Path_7409" data-name="Path 7409" d="M161.475,244.4l5.824,4.217-3.213,5.02-4.619-5.824Z" transform="translate(-129.521 -198.389)" fill="#f3f3f3"/>
  <path id="Path_7410" data-name="Path 7410" d="M135.336,264.782l6.225,7.832h4.016l-5.02-19.68-5.623,5.824,4.418,2.008Z" transform="translate(-109.606 -205.316)" fill="#99e1d7"/>
  <path id="Path_7411" data-name="Path 7411" d="M64.887,64.487a37.937,37.937,0,0,1-53.417,0c-14.86-14.66-14.66-38.556,0-53.417s38.556-14.659,53.417,0S79.546,49.627,64.887,64.487ZM17.7,17.3a28.967,28.967,0,1,0,40.966,0A29.089,29.089,0,0,0,17.7,17.3Z" transform="translate(-0.4 0)" fill="#006d8f"/>
</svg>
