<svg id="contract_2_" data-name="contract (2)" xmlns="http://www.w3.org/2000/svg" width="96.447" height="96.528" viewBox="0 0 96.447 96.528">
  <path id="Path_7363" data-name="Path 7363" d="M69.364,93.246,85.028,17.74a4.118,4.118,0,0,0-3.213-4.82L20.968.068a4.118,4.118,0,0,0-4.82,3.213L.284,78.988A4.118,4.118,0,0,0,3.5,83.808L64.545,96.459A4.225,4.225,0,0,0,69.364,93.246Z" transform="translate(-0.216 0)" fill="#dbdbdb"/>
  <path id="Path_7364" data-name="Path 7364" d="M90.789,115.375,109.264,97.3V34.246a4.028,4.028,0,0,0-4.016-4.016H43a4.028,4.028,0,0,0-4.016,4.016v77.113A4.028,4.028,0,0,0,43,115.375Z" transform="translate(-31.681 -24.539)" fill="#f3f3f3"/>
  <rect id="Rectangle_562" data-name="Rectangle 562" width="52.613" height="4.217" transform="translate(16.133 27.379)" fill="#57b1ce"/>
  <g id="Group_939" data-name="Group 939" transform="translate(16.133 40.231)">
    <rect id="Rectangle_563" data-name="Rectangle 563" width="52.613" height="4.217" fill="#ced6e0"/>
    <rect id="Rectangle_564" data-name="Rectangle 564" width="52.613" height="4.217" transform="translate(0 12.852)" fill="#ced6e0"/>
    <rect id="Rectangle_565" data-name="Rectangle 565" width="24.901" height="4.217" transform="translate(0 25.905)" fill="#ced6e0"/>
    <path id="Path_7365" data-name="Path 7365" d="M314.179,404.57,332.654,386.5H314.179Z" transform="translate(-271.205 -353.965)" fill="#ced6e0"/>
  </g>
  <g id="Group_940" data-name="Group 940" transform="translate(16.334 14.326)">
    <path id="Path_7366" data-name="Path 7366" d="M90.191,81.519a2.18,2.18,0,0,0,1.807-.8l1,1a3.535,3.535,0,0,1-2.611,1.2,3.414,3.414,0,0,1,0-6.828A3.238,3.238,0,0,1,93,77.3l-.8,1a1.977,1.977,0,0,0-3.012-.2,1.516,1.516,0,0,0-.8,1.406,1.824,1.824,0,0,0,.6,1.406A1.737,1.737,0,0,0,90.191,81.519Z" transform="translate(-86.978 -76.097)" fill="#ff8d76"/>
    <path id="Path_7367" data-name="Path 7367" d="M126.936,81.921a3.394,3.394,0,1,1,1-2.41A2.7,2.7,0,0,1,126.936,81.921Zm-.4-2.41a2.059,2.059,0,1,0-.6,1.406A1.564,1.564,0,0,0,126.534,79.511Z" transform="translate(-114.686 -76.097)" fill="#ff8d76"/>
    <path id="Path_7368" data-name="Path 7368" d="M169.263,78.23h1.406v6.426h-1.406l-3.012-4.016v4.016h-1.406V78.23h1.2l3.213,4.217Z" transform="translate(-150.185 -77.828)" fill="#ff8d76"/>
    <path id="Path_7369" data-name="Path 7369" d="M204.325,79.435v5.221h-1.406V79.435h-1.807v-1.2h5.02v1.2Z" transform="translate(-179.625 -77.828)" fill="#ff8d76"/>
    <path id="Path_7370" data-name="Path 7370" d="M238.332,80.238a2.016,2.016,0,0,1-1.2,2.008l1.606,2.209h-1.807l-1.406-2.008h-1v2.008h-1.406V78.23h2.41a3.23,3.23,0,0,1,2.209.6C238.132,79.033,238.332,79.435,238.332,80.238Zm-1.606.8c.2-.2.2-.4.2-.8s0-.6-.2-.8-.4-.2-1-.2h-1v1.807h1A.9.9,0,0,0,236.726,81.041Z" transform="translate(-205.599 -77.828)" fill="#ff8d76"/>
    <path id="Path_7371" data-name="Path 7371" d="M269.467,84.656l-.6-1.406h-2.611l-.6,1.406h-1.606l2.811-6.426h1.406l2.811,6.426h-1.606Zm-1.807-4.619-.8,1.807h1.606Z" transform="translate(-230.71 -77.828)" fill="#ff8d76"/>
    <path id="Path_7372" data-name="Path 7372" d="M306.725,81.519a2.18,2.18,0,0,0,1.807-.8l1,1a3.535,3.535,0,0,1-2.611,1.2,3.414,3.414,0,0,1,0-6.828,3.238,3.238,0,0,1,2.611,1.2l-.8,1a2,2,0,1,0-3.012,2.611C305.721,81.318,306.323,81.519,306.725,81.519Z" transform="translate(-262.747 -76.097)" fill="#ff8d76"/>
    <path id="Path_7373" data-name="Path 7373" d="M341.925,79.435v5.221h-1.406V79.435h-1.807v-1.2h5.02v1.2Z" transform="translate(-291.32 -77.828)" fill="#ff8d76"/>
  </g>
  <path id="Path_7374" data-name="Path 7374" d="M81.453,407.665a.432.432,0,0,1-.4-.4c0-.2,0-.6.2-.6a5.455,5.455,0,0,0,2.811-2.811l-1.606-1.2a6.814,6.814,0,0,1-1.2-1.2,2.464,2.464,0,0,1,.6-3.213,2.507,2.507,0,0,1,3.414.4c.8.8,1,2.008.4,3.816-.2.4-.2.8-.4,1.2a4.159,4.159,0,0,0,1.2.4c.2-.2.6-.4.8-.8.4-.4.8-1,1.406-1,.2,0,.4,0,.4.2a.622.622,0,0,1,.2.4v.4l.4.4a1.476,1.476,0,0,0,1.2-.4c.2-.2.4-.2.4,0,.2,0,.2.2.4.4a1.225,1.225,0,0,0,1.406.6,3.26,3.26,0,0,0,1.807-1,.376.376,0,0,1,.6,0,3.326,3.326,0,0,0,2.41,1c.2,0,.6.2.6.4s-.2.6-.4.6a3.759,3.759,0,0,1-2.811-1,3.569,3.569,0,0,1-2.008.8,2.389,2.389,0,0,1-2.209-.8,2.266,2.266,0,0,1-1.606.2c-.4,0-.8-.4-1.2-.8v-.2l-.4.4c-.4.4-.6.8-1.2,1a2.335,2.335,0,0,1-2.008-.4,5.105,5.105,0,0,1-3.213,3.213Zm2.008-9.037c-.4,0-.6,0-.8.2a1.557,1.557,0,0,0-.4,2.008,2.006,2.006,0,0,0,1,.8l1.406,1a1.518,1.518,0,0,0,.2-.8,3.137,3.137,0,0,0-.2-2.811A2.85,2.85,0,0,0,83.461,398.628Z" transform="translate(-65.721 -322.853)" fill="#0f1422"/>
  <path id="Path_7375" data-name="Path 7375" d="M249.464,186.79a93.664,93.664,0,0,0,9.438-6.024l34.54-27.712a4.861,4.861,0,0,0-6.024-7.631l-34.54,27.712a101.05,101.05,0,0,0-8.033,8.033Z" transform="translate(-198.79 -117.24)" fill="#ff8d76"/>
  <path id="Path_7376" data-name="Path 7376" d="M210.273,337.43a65.784,65.784,0,0,0-8.434,11.246c-.2.2,0,.6.4.4a81.615,81.615,0,0,0,12.852-5.824Z" transform="translate(-163.817 -273.904)" fill="#e8eae9"/>
  <g id="Group_941" data-name="Group 941" transform="translate(37.943 29.99)">
    <path id="Path_7377" data-name="Path 7377" d="M210.273,337.43a65.784,65.784,0,0,0-8.434,11.246c-.2.2,0,.6.4.4a81.615,81.615,0,0,0,12.852-5.824Z" transform="translate(-201.76 -303.894)" fill="#006d8f"/>
    <path id="Path_7378" data-name="Path 7378" d="M307.452,274.5l-1.807,1.406,6.225,7.631,1.606-1.406Z" transform="translate(-286.087 -252.809)" fill="#006d8f"/>
    <path id="Path_7379" data-name="Path 7379" d="M445.4,170.141l-6.426-8.234,3.012-2.61,6.627,8.233Z" transform="translate(-394.319 -159.297)" fill="#006d8f"/>
    <path id="Path_7380" data-name="Path 7380" d="M412.172,214.365h0a1.271,1.271,0,0,1,.2-1.807l12.852-10.242-2.41-3.012,2.008-1.606,3.012,3.816a1.271,1.271,0,0,1-.2,1.807l-13.856,11.045A.94.94,0,0,1,412.172,214.365Z" transform="translate(-372.332 -190.468)" fill="#006d8f"/>
  </g>
</svg>
