<svg id="book" xmlns="http://www.w3.org/2000/svg" width="16.17" height="19.208" viewBox="0 0 16.17 19.208">
  <g id="Group_1303" data-name="Group 1303" transform="translate(0 0)">
    <path id="Path_7799" data-name="Path 7799" d="M55.919,10.2a.75.75,0,0,0,.75-.75V.75a.75.75,0,0,0-.75-.75H42.751A2.254,2.254,0,0,0,40.5,2.251V16.958a2.254,2.254,0,0,0,2.251,2.251H55.919a.75.75,0,1,0,0-1.5H42.751a.75.75,0,1,1,0-1.5H55.919a.75.75,0,0,0,.75-.75V13.206a.75.75,0,0,0-1.5,0v1.5H45V10.391a.75.75,0,1,0-1.5,0v4.315h-.75a2.24,2.24,0,0,0-.75.129V2.251a.751.751,0,0,1,.75-.75h.75V7.428a.75.75,0,0,0,1.2.6l1.422-1.081,1.422,1.081a.75.75,0,0,0,1.2-.6V1.5h6.415V9.454A.75.75,0,0,0,55.919,10.2ZM47.253,5.916l-.671-.51a.75.75,0,0,0-.908,0L45,5.916V1.5h2.251Z" transform="translate(-40.5)"/>
  </g>
</svg>
