<svg id="bell_2_" data-name="bell (2)" xmlns="http://www.w3.org/2000/svg" width="17.43" height="19.208" viewBox="0 0 17.43 19.208">
  <g id="Group_1302" data-name="Group 1302" transform="translate(0 0)">
    <g id="Group_1301" data-name="Group 1301">
      <path id="Path_7796" data-name="Path 7796" d="M25.192,40.047a7.3,7.3,0,0,1,1.9-3.778.75.75,0,1,0-1.084-1.038,8.793,8.793,0,0,0-2.3,4.551.75.75,0,0,0,.606.871.76.76,0,0,0,.133.012A.751.751,0,0,0,25.192,40.047Z" transform="translate(-23.703 -33.686)"/>
      <path id="Path_7797" data-name="Path 7797" d="M60.106,12.6a2.772,2.772,0,0,1-1.057-.793.75.75,0,1,0-1.175.934,4.218,4.218,0,0,0,1.183,1.012,2.543,2.543,0,0,1-.392.991,1.633,1.633,0,0,1-1.443.716H48.07a1.923,1.923,0,0,1-1.828-1.711A4.51,4.51,0,0,0,47,13.2a3.83,3.83,0,0,0,1.3-2.92V7.653A4.362,4.362,0,0,1,52.573,3.3h.036l.059,0,.052,0a4.38,4.38,0,0,1,4.316,4.352V8.7a.75.75,0,0,0,1.5,0V7.653a5.888,5.888,0,0,0-5.177-5.811V.75a.75.75,0,0,0-1.5,0v1.1a5.86,5.86,0,0,0-5.065,5.8V10.28A2.546,2.546,0,0,1,45.187,12.6a.737.737,0,0,0-.494.705,4.1,4.1,0,0,0,.75,2.3,3.159,3.159,0,0,0,2.626,1.351H50.4a2.251,2.251,0,0,0,4.5,0h2.326A3.111,3.111,0,0,0,59.9,15.6a4.144,4.144,0,0,0,.7-2.293A.737.737,0,0,0,60.106,12.6Zm-7.459,5.11a.751.751,0,0,1-.75-.75h1.5A.751.751,0,0,1,52.647,17.708Z" transform="translate(-43.906)"/>
      <path id="Path_7798" data-name="Path 7798" d="M395.3,38.842a8.975,8.975,0,0,0-2.322-4.614.75.75,0,1,0-1.08,1.042,7.459,7.459,0,0,1,1.925,3.836.75.75,0,1,0,1.477-.265Z" transform="translate(-377.887 -32.724)"/>
    </g>
  </g>
</svg>
