<svg id="Group_1320" data-name="Group 1320" xmlns="http://www.w3.org/2000/svg" width="19.209" height="19.208" viewBox="0 0 19.209 19.208">
  <path id="Path_7800" data-name="Path 7800" d="M279,279.822a1.3,1.3,0,0,0,1.3,1.3h1.525a1.3,1.3,0,0,0,1.3-1.3V278.3a1.3,1.3,0,0,0-1.3-1.3H280.3a1.3,1.3,0,0,0-1.3,1.3Zm1.3-1.525h1.525v1.525H280.3Z" transform="translate(-266.666 -266.15)"/>
  <circle id="Ellipse_293" data-name="Ellipse 293" cx="1" cy="1" r="1" transform="translate(13.36 6.24)"/>
  <circle id="Ellipse_294" data-name="Ellipse 294" cx="1" cy="1" r="1" transform="translate(8.36 6.24)"/>
  <circle id="Ellipse_295" data-name="Ellipse 295" cx="1" cy="1" r="1" transform="translate(3.36 6.24)"/>
  <circle id="Ellipse_296" data-name="Ellipse 296" cx="1" cy="1" r="1" transform="translate(3.36 11.24)"/>
  <circle id="Ellipse_297" data-name="Ellipse 297" cx="1" cy="1" r="1" transform="translate(8.36 11.24)"/>
  <path id="Path_7801" data-name="Path 7801" d="M18.458,13.206a.75.75,0,0,0,.75-.75V4.5a3,3,0,0,0-3-3h-.975V.75a.75.75,0,0,0-1.5,0V1.5H10.317V.75a.75.75,0,0,0-1.5,0V1.5H5.44V.75a.75.75,0,0,0-1.5,0V1.5H3a3,3,0,0,0-3,3V16.207a3,3,0,0,0,3,3H16.207a3,3,0,0,0,3-3,.75.75,0,0,0-1.5,0,1.5,1.5,0,0,1-1.5,1.5H3a1.5,1.5,0,0,1-1.5-1.5V4.5A1.5,1.5,0,0,1,3,3h.938v.75a.75.75,0,0,0,1.5,0V3H8.816v.75a.75.75,0,0,0,1.5,0V3h3.414v.75a.75.75,0,0,0,1.5,0V3h.975a1.5,1.5,0,0,1,1.5,1.5v7.954A.75.75,0,0,0,18.458,13.206Z" transform="translate(0 0)"/>
</svg>
