<svg id="Group_1307" data-name="Group 1307" xmlns="http://www.w3.org/2000/svg" width="15.269" height="19.208" viewBox="0 0 15.269 19.208">
  <g id="Group_1306" data-name="Group 1306" transform="translate(0 0)">
    <g id="Group_1318" data-name="Group 1318">
      <path id="Path_7805" data-name="Path 7805" d="M153.552,314.872a.75.75,0,0,0-.75-.75H148.75a.75.75,0,0,0,0,1.5H152.8A.75.75,0,0,0,153.552,314.872Z" transform="translate(-144.398 -300.874)"/>
      <path id="Path_7806" data-name="Path 7806" d="M51.519,13.21a.75.75,0,0,0,.75-.75V3a3,3,0,0,0-3-3H40a3,3,0,0,0-3,3V16.207a3,3,0,0,0,3,3h9.267a3,3,0,0,0,3-3,.75.75,0,0,0-1.5,0,1.5,1.5,0,0,1-1.5,1.5H40a1.5,1.5,0,0,1-1.5-1.5V3A1.5,1.5,0,0,1,40,1.5h9.267a1.5,1.5,0,0,1,1.5,1.5V12.46A.75.75,0,0,0,51.519,13.21Z" transform="translate(-37)"/>
      <path id="Path_7807" data-name="Path 7807" d="M156.1,236.872a.75.75,0,0,0-.75-.75h-6.6a.75.75,0,0,0,0,1.5h6.6A.75.75,0,0,0,156.1,236.872Z" transform="translate(-144.398 -225.8)"/>
      <path id="Path_7808" data-name="Path 7808" d="M155.353,80.122h-6.6a.75.75,0,0,0,0,1.5h6.6a.75.75,0,1,0,0-1.5Z" transform="translate(-144.398 -75.653)"/>
      <path id="Path_7809" data-name="Path 7809" d="M155.353,158.122h-6.6a.75.75,0,0,0,0,1.5h6.6a.75.75,0,0,0,0-1.5Z" transform="translate(-144.398 -150.727)"/>
    </g>
  </g>
</svg>
