<svg id="email_7_" data-name="email (7)" xmlns="http://www.w3.org/2000/svg" width="19.209" height="14.106" viewBox="0 0 19.209 14.106">
  <g id="Group_1309" data-name="Group 1309" transform="translate(0 0)">
    <g id="Group_1308" data-name="Group 1308">
      <path id="Path_7810" data-name="Path 7810" d="M16.958,68H2.251A2.254,2.254,0,0,0,0,70.251v9.6a2.254,2.254,0,0,0,2.251,2.251H16.958a2.254,2.254,0,0,0,2.251-2.251v-9.6A2.254,2.254,0,0,0,16.958,68Zm.75,11.855a.751.751,0,0,1-.75.75H2.251a.751.751,0,0,1-.75-.75v-9.6a.751.751,0,0,1,.75-.75H16.958a.751.751,0,0,1,.75.75Z" transform="translate(0 -68)"/>
    </g>
  </g>
  <g id="Group_1311" data-name="Group 1311" transform="translate(0.732 0.936)">
    <g id="Group_1310" data-name="Group 1310">
      <path id="Path_7811" data-name="Path 7811" d="M36.37,92.937,28.394,98.87l-7.976-5.933-.9,1.2,8.872,6.6,8.872-6.6Z" transform="translate(-19.522 -92.937)"/>
    </g>
  </g>
</svg>
