<svg id="list_3_" data-name="list (3)" xmlns="http://www.w3.org/2000/svg" width="19.209" height="17.799" viewBox="0 0 19.209 17.799">
  <g id="Group_1313" data-name="Group 1313" transform="translate(0)">
    <g id="Group_1312" data-name="Group 1312">
      <path id="Path_7812" data-name="Path 7812" d="M2.213,394a2.214,2.214,0,0,0,0,4.427.75.75,0,1,0,0-1.5.713.713,0,1,1,.713-.713.75.75,0,0,0,1.5,0A2.216,2.216,0,0,0,2.213,394Z" transform="translate(0 -380.628)"/>
      <path id="Path_7813" data-name="Path 7813" d="M162.75,40.5h11.63a.75.75,0,0,0,0-1.5H162.75a.75.75,0,0,0,0,1.5Z" transform="translate(-155.922 -37.537)"/>
      <path id="Path_7814" data-name="Path 7814" d="M2.213,197a2.213,2.213,0,0,0,0,4.427.75.75,0,1,0,0-1.5.713.713,0,1,1,.713-.713.75.75,0,0,0,1.5,0A2.216,2.216,0,0,0,2.213,197Z" transform="translate(0 -190.314)"/>
      <path id="Path_7815" data-name="Path 7815" d="M174.381,236H162.75a.75.75,0,0,0,0,1.5h11.63a.75.75,0,0,0,0-1.5Z" transform="translate(-155.922 -227.851)"/>
      <path id="Path_7816" data-name="Path 7816" d="M174.381,433H162.75a.75.75,0,1,0,0,1.5h11.63a.75.75,0,0,0,0-1.5Z" transform="translate(-155.922 -418.164)"/>
      <path id="Path_7817" data-name="Path 7817" d="M2.213,0a2.213,2.213,0,1,0,0,4.427.75.75,0,1,0,0-1.5.713.713,0,1,1,.713-.713.75.75,0,0,0,1.5,0A2.216,2.216,0,0,0,2.213,0Z"/>
    </g>
  </g>
</svg>
