<svg id="dog" xmlns="http://www.w3.org/2000/svg" width="23.664" height="19.208" viewBox="0 0 23.664 19.208">
  <path id="Path_7802" data-name="Path 7802" d="M23.5,8.175,17.98,1.555a2.532,2.532,0,0,0-.222-.266.7.7,0,0,0-.073-.073A2.54,2.54,0,0,0,15.916.5H7.748a2.54,2.54,0,0,0-1.77.717.666.666,0,0,0-.066.066,2.536,2.536,0,0,0-.228.273L.161,8.175A.693.693,0,0,0,0,8.619,3.29,3.29,0,0,0,5.2,11.3v2.516a3.669,3.669,0,0,0,3.253,3.64,3.664,3.664,0,0,0,6.762,0,3.668,3.668,0,0,0,3.253-3.64V11.3a3.29,3.29,0,0,0,5.2-2.682A.693.693,0,0,0,23.5,8.175ZM3.292,10.525A1.908,1.908,0,0,1,1.4,8.853L5.2,4.3V8.619A1.908,1.908,0,0,1,3.292,10.525Zm8.54,7.8a2.277,2.277,0,0,1-1.889-1,3.678,3.678,0,0,0,1.889-1.358,3.678,3.678,0,0,0,1.889,1.358A2.277,2.277,0,0,1,11.832,18.322Zm.088-5.343a.6.6,0,0,1-.088.121.6.6,0,0,1-.088-.121L11,11.692a.612.612,0,0,1-.06-.136.614.614,0,0,1,.148-.016h1.486a.614.614,0,0,1,.148.016.6.6,0,0,1-.06.136Zm5.159.838a2.277,2.277,0,0,1-4.507.46,1.814,1.814,0,0,0,.549-.606l.743-1.287a1.41,1.41,0,0,0-1.289-2.232H11.089A1.41,1.41,0,0,0,9.8,12.386l.743,1.286a1.814,1.814,0,0,0,.549.606,2.277,2.277,0,0,1-4.507-.46V3.05a1.158,1.158,0,0,1,.194-.642l.162-.194a1.16,1.16,0,0,1,.807-.327h8.169a1.158,1.158,0,0,1,.809.329l.159.19a1.161,1.161,0,0,1,.2.646h0Zm3.292-3.292a1.908,1.908,0,0,1-1.906-1.906V4.3l3.8,4.552A1.908,1.908,0,0,1,20.372,10.525Zm0,0" transform="translate(0 -0.5)"/>
  <path id="Path_7803" data-name="Path 7803" d="M177.424,129.031a.694.694,0,1,0,.49.2A.7.7,0,0,0,177.424,129.031Zm0,0" transform="translate(-168.562 -123.091)"/>
  <path id="Path_7804" data-name="Path 7804" d="M305.963,129.031a.694.694,0,1,0,.49.2A.7.7,0,0,0,305.963,129.031Zm0,0" transform="translate(-291.16 -123.091)"/>
</svg>
