<svg xmlns="http://www.w3.org/2000/svg" width="19.209" height="19.208" viewBox="0 0 19.209 19.208">
  <path id="user_1_" data-name="user (1)" d="M17.685,12.193a9,9,0,0,0-2.295-1.436.75.75,0,0,0-.609,1.371,7.5,7.5,0,0,1,1.914,1.192,2.992,2.992,0,0,1,1.014,2.249v1.388a.751.751,0,0,1-.75.75H2.251a.751.751,0,0,1-.75-.75V15.569a2.992,2.992,0,0,1,1.014-2.249C3.272,12.654,5.481,11.1,9.6,11.1A5.559,5.559,0,1,0,6.222,9.953a10.432,10.432,0,0,0-4.7,2.241A4.493,4.493,0,0,0,0,15.569v1.388a2.253,2.253,0,0,0,2.251,2.251H16.958a2.253,2.253,0,0,0,2.251-2.251V15.569A4.493,4.493,0,0,0,17.685,12.193ZM5.552,5.552A4.052,4.052,0,1,1,9.6,9.6,4.056,4.056,0,0,1,5.552,5.552Zm0,0"/>
</svg>
