<svg xmlns="http://www.w3.org/2000/svg" width="48.723" height="40.69" viewBox="0 0 48.723 40.69">
  <g id="left-quote_1_" data-name="left-quote (1)" transform="translate(48.723 48.548) rotate(180)">
    <g id="Group_932" data-name="Group 932" transform="translate(0 7.858)">
      <path id="Path_7357" data-name="Path 7357" d="M15.594,26.3a12.91,12.91,0,0,0-3.567-.521,11.211,11.211,0,0,0-4.473.916c1.124-4.116,3.825-11.219,9.206-12.019a1.278,1.278,0,0,0,1.043-.919L18.979,9.55a1.278,1.278,0,0,0-1.057-1.61,8.932,8.932,0,0,0-1.2-.082C10.26,7.858,3.864,14.6,1.165,24.251-.419,29.914-.884,38.428,3.019,43.787a11.651,11.651,0,0,0,9.47,4.76h.05A11.335,11.335,0,0,0,15.594,26.3Z" transform="translate(0 -7.858)" fill="#ff8d76"/>
      <path id="Path_7358" data-name="Path 7358" d="M71.034,31.651A11.362,11.362,0,0,0,64.22,26.3a12.909,12.909,0,0,0-3.567-.521,11.213,11.213,0,0,0-4.474.916C57.3,22.578,60,15.475,65.386,14.675a1.279,1.279,0,0,0,1.043-.919L67.6,9.55a1.278,1.278,0,0,0-1.057-1.61,8.921,8.921,0,0,0-1.2-.082c-6.459,0-12.855,6.741-15.554,16.393-1.584,5.663-2.048,14.176,1.855,19.536a11.65,11.65,0,0,0,9.469,4.759h.051a11.335,11.335,0,0,0,9.869-16.9Z" transform="translate(-23.774 -7.858)" fill="#ff8d76"/>
    </g>
  </g>
</svg>
