<svg xmlns="http://www.w3.org/2000/svg" width="20.119" height="20.12" viewBox="0 0 20.119 20.12">
  <path id="exit" d="M14.686,15.4v1.572a3.147,3.147,0,0,1-3.144,3.144h-7.9A3.147,3.147,0,0,1,.5,16.976V3.144A3.147,3.147,0,0,1,3.644,0h7.9a3.147,3.147,0,0,1,3.144,3.144V4.716a.786.786,0,0,1-1.572,0V3.144a1.574,1.574,0,0,0-1.572-1.572h-7.9A1.574,1.574,0,0,0,2.072,3.144V16.976a1.574,1.574,0,0,0,1.572,1.572h7.9a1.574,1.574,0,0,0,1.572-1.572V15.4a.786.786,0,0,1,1.572,0ZM20.045,8.71l-1.76-1.76a.786.786,0,1,0-1.112,1.111l1.252,1.252H8.988a.786.786,0,1,0,0,1.572h9.437l-1.252,1.252a.786.786,0,1,0,1.112,1.111l1.76-1.76A1.967,1.967,0,0,0,20.045,8.71Zm0,0" transform="translate(-0.5)"/>
</svg>
