<svg xmlns="http://www.w3.org/2000/svg" width="14.553" height="13.098" viewBox="0 0 14.553 13.098">
  <path id="_-Icon-Color" data-name="🔹-Icon-Color" d="M10.819,3.455l1.332,1.455H15.1v8.732H3.455V4.911H6.4L7.734,3.455ZM11.46,2H7.094L5.762,3.455H3.455A1.46,1.46,0,0,0,2,4.911v8.732A1.46,1.46,0,0,0,3.455,15.1H15.1a1.46,1.46,0,0,0,1.455-1.455V4.911A1.46,1.46,0,0,0,15.1,3.455H12.791ZM9.277,7.094A2.183,2.183,0,1,1,7.094,9.277,2.189,2.189,0,0,1,9.277,7.094Zm0-1.455a3.638,3.638,0,1,0,3.638,3.638A3.64,3.64,0,0,0,9.277,5.638Z" transform="translate(-2 -2)" fill="#0f1422" fill-rule="evenodd"/>
</svg>
