<svg xmlns="http://www.w3.org/2000/svg" width="38.016" height="49.261" viewBox="0 0 38.016 49.261">
  <g id="Group_1076" data-name="Group 1076" transform="translate(-1108 -960)">
    <path id="Path_7646" data-name="Path 7646" d="M-3535.191-3020.792v35.335l12.865-6.21,15.1-12.222Z" transform="translate(4651.688 3983)" fill="#ff8d76"/>
    <g id="play-button_3_" data-name="play-button (3)" transform="translate(1070.244 960)">
      <g id="Group_1074" data-name="Group 1074" transform="translate(37.756 0)">
        <path id="Path_7644" data-name="Path 7644" d="M73.077,13.145Z" transform="translate(-67.817 -11.153)" fill="#0f1422"/>
        <path id="Path_7645" data-name="Path 7645" d="M75.736,19.4a.818.818,0,0,0-.182-.82,1.218,1.218,0,0,0-.547-1.367C68.9,14.843,63.523,10.742,58.055,7.1A97.457,97.457,0,0,0,45.933.443c-.091,0-.182-.091-.273-.091A.811.811,0,0,0,44.2.625l-.273,1.094-.091.091c-.091-.091-.182-.182-.273-.182a.4.4,0,0,0-.456.091h-.091c-.091,0-.091.091,0,.091.273,0,0,.182,0,.091a5.444,5.444,0,0,0-.547,1,34.483,34.483,0,0,1-2.005,3.008c-.729,1-3.372,3.281-2.552,4.739,0,.091.091.091.091.182-.365,6.106.091,12.213.273,18.319.182,6.015-.091,12.486,1,18.5a.694.694,0,0,0,.729.638c1.641,3.646,13.489-4.1,14.947-5.013,4.192-2.643,8.294-5.468,12.213-8.476,1.732-1.367,6.562-4.1,6.927-6.471a.842.842,0,0,0-.273-.82A61.734,61.734,0,0,0,75.736,19.4Zm-3.555,8.2c-1.549.82-3.19,2.825-4.375,3.828-3.463,2.734-7.018,5.286-10.664,7.747-5.1,3.464-10.39,6.562-16.314,8.2h0c.547-5.924-.273-12.3-.547-18.228a174.885,174.885,0,0,0-1-18.319,3.174,3.174,0,0,0,1-1.185L42.47,6.641c.365-.547.911-1.276,1.367-2.1.091,1.367.273,2.734.273,4.01l.547,12.031q.273,5.2.273,10.39c0,2.461-.547,5.2-.091,7.656.091.638,1.094.638,1.367.182a.7.7,0,0,0,.182-.456h0a1.046,1.046,0,0,0,1.094.456c5.742-1,11.484-5.742,16.041-9.023a82.152,82.152,0,0,0,8.385-6.471A9.653,9.653,0,0,0,73,22.408Q72.455,25.142,72.182,27.6ZM59.969,29.517c-2.917,2.005-5.924,3.828-8.932,5.56-1.094.638-2.917,1.185-4.1,2.005,1.458-4.466.273-11.119.091-15.221-.182-4.01-.365-8.02-.547-12.122-.091-2.005.091-4.466-.091-6.653,4.193,2.37,8.294,4.557,12.3,7.2,3.372,2.279,6.744,4.648,10.208,6.653a17.63,17.63,0,0,0,4.375,2.1C69.448,23.137,64.617,26.327,59.969,29.517Z" transform="translate(-37.756 0)" fill="#0f1422"/>
      </g>
    </g>
  </g>
</svg>
