<svg xmlns="http://www.w3.org/2000/svg" width="36.448" height="36.447" viewBox="0 0 36.448 36.447">
  <g id="sale" transform="translate(365 98.993)">
    <path id="Path_7775" data-name="Path 7775" d="M34.286,17.345a1.337,1.337,0,0,1-.316-2.243,3.579,3.579,0,0,0,.959-4.285,3.542,3.542,0,0,0-3.837-2.041,1.269,1.269,0,0,1-1.189-.43,1.314,1.314,0,0,1-.266-1.282,3.574,3.574,0,0,0-1.5-4.13,3.531,3.531,0,0,0-4.324.374,1.266,1.266,0,0,1-1.232.288,1.29,1.29,0,0,1-.9-.925,3.577,3.577,0,0,0-6.918,0,1.29,1.29,0,0,1-.9.926,1.266,1.266,0,0,1-1.232-.288A3.531,3.531,0,0,0,8.31,2.935a3.574,3.574,0,0,0-1.5,4.13,1.315,1.315,0,0,1-.266,1.282,1.269,1.269,0,0,1-1.189.43A3.543,3.543,0,0,0,1.52,10.818,3.579,3.579,0,0,0,2.479,15.1a1.337,1.337,0,0,1-.316,2.243,3.609,3.609,0,0,0,.986,6.885,1.282,1.282,0,0,1,1.026.756,1.317,1.317,0,0,1-.1,1.3,3.58,3.58,0,0,0,.284,4.388,3.533,3.533,0,0,0,4.252.865,1.263,1.263,0,0,1,1.259.074,1.3,1.3,0,0,1,.609,1.151,3.562,3.562,0,0,0,2.586,3.538,3.639,3.639,0,0,0,1.019.147,3.537,3.537,0,0,0,3.034-1.729,1.294,1.294,0,0,1,2.22,0,3.58,3.58,0,0,0,6.639-1.956,1.3,1.3,0,0,1,.609-1.151,1.264,1.264,0,0,1,1.259-.074,3.533,3.533,0,0,0,4.252-.865,3.58,3.58,0,0,0,.284-4.388,1.317,1.317,0,0,1-.1-1.3,1.282,1.282,0,0,1,1.026-.756,3.609,3.609,0,0,0,.986-6.885Z" transform="translate(-365 -99)"/>
  </g>
</svg>
