<svg xmlns="http://www.w3.org/2000/svg" width="22.904" height="22.904" viewBox="0 0 22.904 22.904">
  <path id="Icon_awesome-skype" data-name="Icon awesome-skype" d="M21.718,15.944a11.129,11.129,0,0,0,.24-2.24,10.494,10.494,0,0,0-10.5-10.5,10.809,10.809,0,0,0-2.24.24,5.72,5.72,0,0,0-8.028,8.018,11.129,11.129,0,0,0-.24,2.24,10.494,10.494,0,0,0,10.5,10.5,10.809,10.809,0,0,0,2.24-.24A5.72,5.72,0,0,0,22.9,19.427a5.641,5.641,0,0,0-1.186-3.482Zm-9.951,4.679C8.412,20.623,5.6,19.13,5.6,17.3a1.437,1.437,0,0,1,1.509-1.565c1.6,0,1.744,2.3,4.505,2.3,1.314,0,2.163-.583,2.163-1.345,0-.956-.818-1.1-2.148-1.432-3.2-.788-6.024-1.125-6.024-4.459,0-3.027,3-4.147,5.579-4.147,2.818,0,5.666,1.12,5.666,2.833a1.541,1.541,0,0,1-1.549,1.626c-1.447,0-1.493-1.713-3.835-1.713-1.314,0-2.148.358-2.148,1.151,0,1.012,1.064,1.115,3.534,1.688,2.117.476,4.638,1.37,4.638,3.968,0,3.022-2.92,4.423-5.727,4.423Z" transform="translate(0 -2.25)" fill="#40234c"/>
</svg>
