<svg xmlns="http://www.w3.org/2000/svg" width="32.632" height="19.385" viewBox="0 0 32.632 19.385">
  <path id="Icon_awesome-vk" data-name="Icon awesome-vk" d="M33.2,8.065c.224-.757,0-1.315-1.078-1.315H28.55A1.532,1.532,0,0,0,27,7.762a29.9,29.9,0,0,1-4.386,7.3c-.83.83-1.212,1.1-1.666,1.1-.224,0-.569-.267-.569-1.024V8.065c0-.909-.254-1.315-1.006-1.315h-5.61a.861.861,0,0,0-.909.818c0,.86,1.284,1.06,1.418,3.483v5.258c0,1.151-.206,1.363-.66,1.363-1.212,0-4.156-4.446-5.9-9.535C7.36,7.15,7.014,6.75,6.1,6.75H2.531c-1.018,0-1.224.479-1.224,1.012,0,.945,1.212,5.64,5.64,11.843,2.95,4.234,7.106,6.53,10.886,6.53,2.272,0,2.55-.509,2.55-1.387,0-4.047-.206-4.428.933-4.428.527,0,1.436.267,3.556,2.308,2.423,2.423,2.823,3.507,4.18,3.507H32.62c1.018,0,1.533-.509,1.236-1.514-.678-2.114-5.264-6.464-5.47-6.754-.527-.678-.376-.981,0-1.587.006-.006,4.362-6.137,4.81-8.214Z" transform="translate(-1.308 -6.75)"/>
</svg>
