<svg id="Group_954" data-name="Group 954" xmlns="http://www.w3.org/2000/svg" width="32.518" height="32.554" viewBox="0 0 32.518 32.554">
  <path id="Path_22" data-name="Path 22" d="M68.494,100.875l2.277-8.089a16.232,16.232,0,1,1,6.064,5.941Zm8.768-5.1.5.3a13.48,13.48,0,1,0-4.34-4.242l.335.521-1.311,4.658Z" transform="translate(-68.494 -68.321)"/>
  <path id="Path_23" data-name="Path 23" d="M151.246,152.885l-1.054-.057a1.274,1.274,0,0,0-.906.31,4.8,4.8,0,0,0-1.579,2.419c-.374,1.666.2,3.707,1.7,5.747a17.1,17.1,0,0,0,9.216,6.7,4.491,4.491,0,0,0,3.8-.47,3.4,3.4,0,0,0,1.48-2.159l.168-.786a.546.546,0,0,0-.305-.61l-3.561-1.641a.546.546,0,0,0-.661.162l-1.4,1.812a.4.4,0,0,1-.45.134,10.948,10.948,0,0,1-5.924-5.069.4.4,0,0,1,.051-.451l1.336-1.546a.546.546,0,0,0,.089-.572l-1.535-3.591A.546.546,0,0,0,151.246,152.885Z" transform="translate(-139.528 -144.205)"/>
</svg>
