<svg id="Group_17" data-name="Group 17" xmlns="http://www.w3.org/2000/svg" width="28.997" height="35.211" viewBox="0 0 28.997 35.211">
  <path id="Path_24" data-name="Path 24" d="M110.438,218.121a1.536,1.536,0,0,0-.122-.541.582.582,0,0,0-.523-.358.911.911,0,0,0-.715.268.475.475,0,0,0-.12.178l0,5.766v.142s.049.066.057.075a1.145,1.145,0,0,0,.61.375.591.591,0,0,0,.78-.467,1.4,1.4,0,0,0,.032-.291C110.443,221.553,110.447,219.837,110.438,218.121Zm0,0a1.536,1.536,0,0,0-.122-.541.582.582,0,0,0-.523-.358.911.911,0,0,0-.715.268.475.475,0,0,0-.12.178l0,5.766v.142s.049.066.057.075a1.145,1.145,0,0,0,.61.375.591.591,0,0,0,.78-.467,1.4,1.4,0,0,0,.032-.291C110.443,221.553,110.447,219.837,110.438,218.121Zm6.456-8.7q-10.235-.22-20.475,0a4.355,4.355,0,0,0-4.261,4.354v10.658a4.355,4.355,0,0,0,4.261,4.356q10.237.219,20.475,0a4.355,4.355,0,0,0,4.262-4.356V213.781A4.355,4.355,0,0,0,116.894,209.426ZM98.424,225.41H96.456V214.285H94.419v-1.861h6.047v1.857H98.424Zm7.042-4.617v4.618h-1.742v-1.056c-.063.067-.1.1-.131.141a3.2,3.2,0,0,1-1.343.963,1.63,1.63,0,0,1-.816.074,1,1,0,0,1-.789-.628,2.438,2.438,0,0,1-.181-1.005c0-1.271,0-8,0-8.065H102.2c0,.059.01,4.889.011,7.244a1.925,1.925,0,0,0,.027.385.425.425,0,0,0,.611.341,1.9,1.9,0,0,0,.842-.659.3.3,0,0,0,.033-.176v-7.145l1.744,0Zm6.629,3.7a1.429,1.429,0,0,1-1.483,1.05,1.969,1.969,0,0,1-1.486-.678l-.169-.18v.729h-1.746V212.423h1.746V216.7a1.758,1.758,0,0,1,.188-.3,2,2,0,0,1,1.005-.639,1.513,1.513,0,0,1,1.81.823,3.374,3.374,0,0,1,.278,1.458q0,2.723,0,5.445A3.186,3.186,0,0,1,112.1,224.488Zm6.447-.365a2.135,2.135,0,0,1-1.844,1.512,2.917,2.917,0,0,1-1.664-.17,2.311,2.311,0,0,1-1.32-1.681,5.075,5.075,0,0,1-.127-1.084c-.014-1.422-.007-2.845,0-4.267a2.872,2.872,0,0,1,.688-2,2.541,2.541,0,0,1,2.174-.839,3.041,3.041,0,0,1,.758.138,2.114,2.114,0,0,1,1.44,1.71,5.151,5.151,0,0,1,.1.968c.014.759-.005,2.43-.005,2.43h-3.343v2.4a.778.778,0,1,0,1.557,0V222h1.8A8.7,8.7,0,0,1,118.542,224.122Zm-1.595-6.113a.778.778,0,1,0-1.557,0v1.345h1.557Zm-6.631-.428a.582.582,0,0,0-.523-.358.911.911,0,0,0-.715.268.475.475,0,0,0-.12.178l0,5.766v.142s.049.066.057.075a1.144,1.144,0,0,0,.61.375.591.591,0,0,0,.78-.467,1.4,1.4,0,0,0,.032-.291c0-1.717.005-3.433,0-5.148A1.534,1.534,0,0,0,110.316,217.581Z" transform="translate(-92.159 -193.693)"/>
  <path id="Path_25" data-name="Path 25" d="M261.772,94.99v9.641h-1.786l0-1.036c-.2.195-.366.376-.551.54a2.412,2.412,0,0,1-1.135.59,1.134,1.134,0,0,1-1.45-.772,2.544,2.544,0,0,1-.116-.719V94.99h1.773v7.352a1.671,1.671,0,0,0,.025.291.4.4,0,0,0,.57.344,1.905,1.905,0,0,0,.857-.659.317.317,0,0,0,.027-.18V94.99Z" transform="translate(-239.153 -91.58)"/>
  <path id="Path_26" data-name="Path 26" d="M138.547,68.155c-.388-1.635-1.2-5.085-1.2-5.085h-2.033s1.562,5.18,2.26,7.49a.922.922,0,0,1,.037.262v5.3h1.875v-5.3a.922.922,0,0,1,.037-.262c.7-2.31,2.26-7.49,2.26-7.49h-2.033s-.813,3.451-1.2,5.085Z" transform="translate(-130.704 -63.07)"/>
  <path id="Path_27" data-name="Path 27" d="M197.366,92.731h0a2.558,2.558,0,0,0-2.558,2.558V100.3a2.558,2.558,0,0,0,2.558,2.558h0a2.558,2.558,0,0,0,2.558-2.558V95.289A2.558,2.558,0,0,0,197.366,92.731Zm.738,7.665a.738.738,0,0,1-1.476,0V95.188a.738.738,0,0,1,1.476,0Z" transform="translate(-183.842 -89.562)"/>
</svg>
