<svg xmlns="http://www.w3.org/2000/svg" width="32.798" height="27.631" viewBox="0 0 32.798 27.631">
  <path id="Path_16" data-name="Path 16" d="M77.705,99.612l-30,11.689a1.094,1.094,0,0,0,.087,2.068l7.622,2.251,2.845,9.026a1.309,1.309,0,0,0,2.184.522l3.941-4.024,7.732,5.676a1.614,1.614,0,0,0,2.534-.97l5.121-24.485A1.543,1.543,0,0,0,77.705,99.612Zm-3.761,5.434L60.012,117.367a.748.748,0,0,0-.248.477l-.536,4.769a.144.144,0,0,1-.282.027l-2.207-7.112a.748.748,0,0,1,.32-.858l16.453-10.2A.363.363,0,0,1,73.945,105.046Z" transform="translate(-47.013 -99.504)"/>
</svg>
