<svg xmlns="http://www.w3.org/2000/svg" width="31.9" height="31.906" viewBox="0 0 31.9 31.906">
  <g id="Group_955" data-name="Group 955" transform="translate(-655.343 -4247.398)">
    <path id="Path_28" data-name="Path 28" d="M32.268,9.381a11.659,11.659,0,0,0-.742-3.871A8.173,8.173,0,0,0,26.858.841,11.689,11.689,0,0,0,22.988.1C21.28.019,20.738,0,16.406,0S11.531.019,9.83.093A11.662,11.662,0,0,0,5.959.835,7.785,7.785,0,0,0,3.129,2.68,7.856,7.856,0,0,0,1.291,5.5,11.69,11.69,0,0,0,.549,9.374c-.081,1.708-.1,2.25-.1,6.582s.019,4.874.093,6.576A11.658,11.658,0,0,0,1.285,26.4a8.172,8.172,0,0,0,4.668,4.668,11.69,11.69,0,0,0,3.871.742c1.7.075,2.244.093,6.576.093s4.874-.019,6.576-.093a11.656,11.656,0,0,0,3.871-.742A8.161,8.161,0,0,0,31.514,26.4a11.7,11.7,0,0,0,.742-3.871c.075-1.7.093-2.244.093-6.576S32.343,11.082,32.268,9.381ZM29.4,22.408a8.745,8.745,0,0,1-.549,2.961A5.293,5.293,0,0,1,25.817,28.4a8.776,8.776,0,0,1-2.961.548c-1.683.075-2.188.094-6.445.094s-4.768-.019-6.445-.094A8.741,8.741,0,0,1,7.006,28.4a4.91,4.91,0,0,1-1.832-1.191,4.96,4.96,0,0,1-1.191-1.832,8.778,8.778,0,0,1-.548-2.961c-.075-1.683-.093-2.188-.093-6.445s.019-4.768.093-6.445a8.741,8.741,0,0,1,.548-2.961,4.85,4.85,0,0,1,1.2-1.833A4.953,4.953,0,0,1,7.013,3.54a8.782,8.782,0,0,1,2.961-.549c1.683-.075,2.188-.093,6.445-.093s4.768.019,6.445.093a8.745,8.745,0,0,1,2.961.549,4.906,4.906,0,0,1,1.832,1.19,4.959,4.959,0,0,1,1.191,1.833A8.781,8.781,0,0,1,29.4,9.524c.075,1.683.093,2.188.093,6.445S29.47,20.725,29.4,22.408Zm0,0" transform="translate(654.894 4247.398)"/>
    <path id="Path_29" data-name="Path 29" d="M133.146,124.5a8.2,8.2,0,1,0,8.2,8.2A8.2,8.2,0,0,0,133.146,124.5Zm0,13.513a5.317,5.317,0,1,1,5.317-5.317A5.318,5.318,0,0,1,133.146,138.013Zm0,0" transform="translate(538.154 4130.659)"/>
    <path id="Path_30" data-name="Path 30" d="M366.276,90.515a1.914,1.914,0,1,1-1.914-1.913A1.914,1.914,0,0,1,366.276,90.515Zm0,0" transform="translate(315.457 4164.32)"/>
  </g>
</svg>
