<svg xmlns="http://www.w3.org/2000/svg" width="43.58" height="38.986" viewBox="0 0 43.58 38.986">
  <g id="Group_936" data-name="Group 936" transform="translate(0 -25.368)">
    <ellipse id="Ellipse_159" data-name="Ellipse 159" cx="5.19" cy="7.585" rx="5.19" ry="7.585" transform="translate(10.379 25.368)" fill="#fff"/>
    <ellipse id="Ellipse_160" data-name="Ellipse 160" cx="5.19" cy="7.585" rx="5.19" ry="7.585" transform="translate(22.356 25.368)" fill="#fff"/>
    <path id="Path_7359" data-name="Path 7359" d="M9.016,129.1c0,4.15-.515,7.514-3.005,7.514S0,133.249,0,129.1s2.018-7.514,4.508-7.514S9.016,124.949,9.016,129.1Z" transform="translate(0 -86.988)" fill="#fff"/>
    <path id="Path_7360" data-name="Path 7360" d="M377.016,129.1c0,4.15-3.521,7.514-6.011,7.514S368,133.249,368,129.1s2.018-7.514,4.508-7.514S377.016,124.949,377.016,129.1Z" transform="translate(-333.437 -86.988)" fill="#fff"/>
    <path id="Path_7361" data-name="Path 7361" d="M128.044,214.466c0,4.5-2.329,8.284-7.514,9.356-.96.2-3.471-4.2-4.508-4.2s-3.548,4.4-4.508,4.2c-5.184-1.072-7.514-4.855-7.514-9.356,0-5.335,5.382-12.881,12.022-12.881S128.044,209.13,128.044,214.466Z" transform="translate(-94.232 -159.474)" fill="#fff"/>
  </g>
</svg>
