<svg xmlns="http://www.w3.org/2000/svg" width="39.448" height="35.29" viewBox="0 0 39.448 35.29">
  <g id="Group_938" data-name="Group 938" transform="translate(0 -25.368)">
    <ellipse id="Ellipse_159" data-name="Ellipse 159" cx="4.698" cy="6.866" rx="4.698" ry="6.866" transform="translate(9.395 25.368)" fill="#f5f6f7"/>
    <ellipse id="Ellipse_160" data-name="Ellipse 160" cx="4.698" cy="6.866" rx="4.698" ry="6.866" transform="translate(20.236 25.368)" fill="#f5f6f7"/>
    <path id="Path_7359" data-name="Path 7359" d="M8.162,128.386c0,3.756-.467,6.8-2.721,6.8S0,132.143,0,128.386s1.827-6.8,4.081-6.8S8.162,124.63,8.162,128.386Z" transform="translate(0 -87.863)" fill="#f5f6f7"/>
    <path id="Path_7360" data-name="Path 7360" d="M376.162,128.386c0,3.756-3.187,6.8-5.441,6.8s-2.721-3.045-2.721-6.8,1.827-6.8,4.081-6.8S376.162,124.63,376.162,128.386Z" transform="translate(-336.714 -87.863)" fill="#f5f6f7"/>
    <path id="Path_7361" data-name="Path 7361" d="M125.764,213.245c0,4.075-2.108,7.5-6.8,8.469-.869.18-3.142-3.805-4.081-3.805s-3.212,3.985-4.081,3.805c-4.693-.971-6.8-4.394-6.8-8.469,0-4.83,4.872-11.66,10.882-11.66S125.764,208.415,125.764,213.245Z" transform="translate(-95.158 -161.062)" fill="#f5f6f7"/>
  </g>
</svg>
