<svg version="1" xmlns="http://www.w3.org/2000/svg" width="800" height="800" viewBox="0 0 600.000000 600.000000"><path d="M201.3 1.6c-6.9 1.9-16.7 7.7-21.9 13-16.7 17.3-22.1 42.9-15 72.1.8 3.3 3.3 9.8 5.8 14.8 11.7 24.4 34.1 40.4 56.4 40.5 6.5 0 17.4-1.8 17.4-3 0-.4.6-.7 1.3-.7 2.3 0 10.5-5.4 15.4-10.1 12.7-12.4 19.3-30 18.7-50.4-.1-5.6-.5-11.7-.9-13.3-.3-1.7-.8-4-1-5.2-.2-1.3-1.4-5.1-2.6-8.5-8.3-23.7-24.2-40.6-45.4-48.3-6.2-2.3-21.3-2.7-28.2-.9z"/><path d="M424.8 65.6c-.2.1-2.1.5-4.3.8-2.2.3-5.1.7-6.5 1.1-1.4.3-3.7.7-5.2 1-1.5.3-4 1-5.5 1.6-1.5.6-3.6 1.2-4.5 1.4-3 .6-18.1 8-23.8 11.7-14.2 9.2-35 27.9-53 47.8-4.7 5.1-9.6 10.6-11 12-13.8 14.7-22.1 22.7-28.5 27.5-2.2 1.6-4.2 3.2-4.5 3.5-.3.3-2.7 1.9-5.5 3.6-14.8 8.9-21.8 10.8-39.5 10.8-13.1-.1-18.6-.6-28.5-3-3.9-.9-7.4-1.7-8-1.8-3.3-.7-16.9-5.5-27-9.7-1.1-.4-3.8-1.3-6-2-2.2-.6-4.7-1.4-5.5-1.7-1.8-.6-2.7-.8-6-1.6-1.4-.3-3.6-.8-5-1.1-3.8-.9-12.9-1.7-19-1.8-11.7-.1-24.3 3-36.5 8.9-9.4 4.6-9.6 4.7-19.5 12.5-15.5 12.1-25.1 26.6-29.4 44.4-1 3.8-2.1 8.5-2.6 10.2-.8 3.3-.6 31.2.3 36.8.3 1.6.8 4.6 1.1 6.5.8 5.6 2.3 12.1 4 18 .9 3 1.8 6.2 2.1 7 4.6 16 14 37.8 24.2 55.9 2.9 5.1 5.3 9.7 5.3 10.2s.5.9 1 .9c.6 0 1 .4 1 .9 0 2 24.6 37.9 28.2 41.2 1 .9 1.8 1.9 1.8 2.3 0 .6 8.3 11 11.3 14.1.7.7 3.7 4.1 6.7 7.6 9.9 11.5 66.5 68.8 80.9 81.9 5.8 5.2 11.2 10.2 12.1 11 .9.8 5.6 5.1 10.6 9.5 4.9 4.4 10.5 9.4 12.4 11.2 7.3 6.7 10.8 9.7 22.2 18.9 6.5 5.2 12.1 9.4 12.6 9.4s1.7.9 2.7 2c1 1.1 2.2 2 2.6 2 .5 0 2.5 1.2 4.6 2.6 11.5 7.8 25.3 10.8 25.3 5.5 0-2.5-5.1-6.9-18.8-16.1-11.9-8-15.3-11.2-13.2-12.5 1-.6 11.3 4.2 15.9 7.5 1.6 1.1 4 2.4 5.5 3 1.4.5 2.6 1.4 2.6 2 0 .5.9 1 1.9 1 1.1 0 2.2.4 2.5.9 1 1.6 16.2 9 20.5 10 5.2 1.1 7-.5 5.2-4.6-1.9-4.5-9-9.4-35.1-24.1-6.9-3.9-12.7-8.8-11.8-9.8 1-.9 8.8 1.4 8.8 2.6 0 .6.8 1 1.8 1s2.2.4 2.8 1c1.6 1.6 18.4 11.4 25.7 14.9 3.7 1.8 8.4 3.3 10.8 3.4 3.8.2 4.4-.1 5.3-2.5.8-2.2.5-3.3-1.9-6.3-2.5-3.4-10.7-9.3-19.5-14.1-1.9-1-3.7-2.2-4-2.5-.3-.3-1.4-.9-2.4-1.3-3.7-1.3-17.6-10-17.6-10.9 0-1.5 5-.1 13.3 3.7 4.2 2 11.1 5.1 15.2 7 13.5 6.3 22 8.5 25.5 6.6 1-.5 1.7-1.7 1.6-2.6-.3-1.8-6.1-7.3-9.6-9.2-1.4-.7-4.5-2.4-7-3.8-6.2-3.5-29.4-15.4-30.1-15.4-1.1 0-12-6.2-11.6-6.6.2-.2 3.7.5 7.8 1.5 4.1 1.1 8.9 2.1 10.6 2.4 1.8.3 3.6.8 4.2 1.1 1.8 1.1 16.4 1.5 18.3.5 4.7-2.5.3-6.3-12.7-10.9-5-1.7-9.7-3.3-10.5-3.5-.8-.2-8.7-2.4-17.4-5-8.8-2.6-16.7-4.8-17.5-5-8.7-1.9-26.2-9.4-33.8-14.6-8.9-6.1-18.5-16.3-24-25.4-4.2-6.9-11.3-22.6-11.8-26-.3-2.3-.8-5.2-1-6.5-.3-1.4-.7-4.8-1-7.5-.3-2.8-.8-6.8-1.1-9-.2-2.2-.7-9-.9-15-.5-11.9-1.5-28.5-2-32.5-1.6-12.2-8.2-35.7-13.3-47-.8-1.9-1.6-3.7-1.6-4-.1-.3-1.4-4.1-2.8-8.5-2.6-7.6-3.9-12.6-5.3-20.5-.8-3.9-.8-20.7-.1-21.9.3-.4.8-2.3 1.1-4.2.3-1.8.7-3.4.8-3.5.1-.2 4.1 4.8 8.9 10.9 13.1 16.9 31.8 35.3 33.7 33.1.4-.5 2.3-2.9 4.1-5.4 4.6-6 15.9-17.1 22.4-21.9 15.8-11.7 36.4-16.8 53.7-13.3 15 3 32.8-4.6 56.8-24.1 8.1-6.6 36.1-34.4 36.1-35.8 0-3.5 12.3 5.4 18.1 13.1 10.3 13.7 12.1 33.8 4.9 54.5-3.4 10.1-12.2 28.6-15.6 33.1-1.3 1.7-2.4 3.4-2.4 3.8 0 .6-9.9 14.7-11 15.6-1.4 1.1-6.9 9.9-10.3 16.3-3.1 5.8-7.1 16-8.2 20.7-3.3 14-3.8 17.7-3.8 30.5 0 8.8.6 16.2 1.5 20.1 1.1 4.7 1.2 6.3.2 7.1-1.1 1.1-22.2 13.3-22.9 13.3-.9 0-17.3 10.4-19.3 12.3-1.3 1.2-2.2 3-2 4.2.7 4.6 12 1.8 32.1-8 12.1-5.9 11.6-4.6-2.3 6-5.4 4.1-18.4 14.5-23.7 18.8-5 4.3-13.4 13.2-14.7 15.8-1.4 2.9-1.4 3 .7 3.8 1.2.5 2.9.7 3.7.6 3.1-.6 10-3.8 10-4.6 0-.5.6-.9 1.3-.9.7 0 8.1-5.2 16.5-11.5 14.1-10.6 18.2-13 18.2-10.6 0 .8-5.3 5.7-19.3 18.1-14.1 12.4-20 20.7-17.7 25 1 1.9 2.7 2.5 6 2 1.8-.2 12.1-7.5 17.1-12.2 2-1.8 7.3-6.7 11.8-10.8 8.6-7.8 13.8-11.6 14.7-10.7 1.5 1.4-1.5 5.3-9.9 12.9-23.8 21.5-29.2 27.6-28.5 32.1.2 1.7.9 2.2 3.3 2.1 4.5-.2 12.1-5.9 27.9-20.8 7.8-7.3 15.7-13.6 17.2-13.6 3.2 0 .9 3.6-8.3 13.2-12.4 12.8-11.4 11.7-14.4 15.8-2.4 3.3-2.8 6.9-.8 7.1.5.1 1.5.2 2.2.3 1.8.3 5.6-1.4 10.7-4.8 4.8-3.2 22.9-20.9 27-26.5 1.4-1.9 3-3.9 3.5-4.5 2.3-2.5 11.5-14.6 11.5-15.1 0-.4.7-1.4 1.6-2.3.9-.8 10.8-15.3 22.1-32.1 19.1-28.6 39.5-58.3 42.8-62.4.8-.9 1.5-1.9 1.5-2.2 0-.2 3.8-6.2 8.4-13.2 14.5-22.2 31.5-51.2 39.2-67 4.1-8.4 7.4-15.6 7.4-16 0-.4.7-2.1 1.5-3.7s3.1-7.4 5-13.1c3-8.9 4.1-12.6 6-20.8.2-1 .6-2.6.9-3.5.3-.9.7-3.3 1-5.2.3-1.9.9-5.8 1.3-8.5 1.3-8 .9-36.3-.6-43.5-.7-3.6-2.3-9.7-3.4-13.5-1.1-3.9-2.2-7.5-2.3-8.2-1.1-5.9-14.1-28.4-20.3-35.1-1.6-1.7-2.8-3.2-2.6-3.2 1 0-16.6-16-19.4-17.6-1.7-1-3.1-2.2-3.1-2.6 0-.4-.6-.8-1.4-.8-.8 0-1.6-.3-1.8-.8-.5-1.1-5.5-3.9-15.5-8.8-9.3-4.4-22.2-8.7-30.4-10-2.4-.3-5.5-.8-6.9-1.1-3-.5-27.8-1.2-28.2-.7z"/><path d="M291 295.8c-1.4.2-2.7.7-3 1.1-.3.3-1.4 1.1-2.5 1.7-1.1.5-3 2.9-4.2 5.3-2 3.9-2.1 4.6-.8 8.8 1.7 5.6 3.9 8 9 9.7 5.2 1.8 10.7.3 14.5-4.1 1.7-1.8 3.1-4.3 3.1-5.3.1-1.1.2-2.8.2-3.8.3-4.7-4.9-11.9-8.8-12.3-.5-.1-1.9-.4-3-.8s-3.1-.5-4.5-.3z"/></svg>